<svg width="44" height="44" viewBox="0 0 44 44" fill="none" xmlns="http://www.w3.org/2000/svg">
<path d="M41.0259 30.5253L40.8464 29.9868C40.667 29.6278 40.5772 29.2689 40.3977 28.9996C40.2182 28.6407 40.1285 28.2817 39.949 28.0125L39.4105 26.9355L39.3208 26.8458C36.3593 20.3842 33.308 14.1919 30.2567 8.26886L30.167 7.99963C29.808 7.37143 29.449 6.74322 29.1798 6.02527L29.0003 5.84579C28.6413 5.12784 28.1926 4.40989 27.5644 3.69194C26.2182 1.98681 24.1541 0.999634 22.0003 0.999634C19.8464 0.999634 17.8721 1.89707 16.4362 3.6022C15.808 4.40989 15.3593 5.21758 14.9105 5.93553C14.5516 6.56374 14.2823 7.28168 13.9234 7.90989L13.8336 8.17912C10.3336 14.9099 7.28234 21.0125 4.67977 26.756L4.59003 26.8458C4.41054 27.2048 4.23105 27.5637 4.14131 27.9227C3.96182 28.2817 3.87208 28.5509 3.69259 28.9099C3.51311 29.3586 3.24387 29.8971 3.06439 30.4355C2.52593 32.0509 2.34644 33.5766 2.52593 35.1022C2.97464 38.333 5.12849 41.0253 8.17977 42.2817C9.2567 42.7304 10.4234 42.9996 11.6798 42.9996C12.0387 42.9996 12.4875 42.9099 12.8464 42.9099C14.2823 42.7304 15.808 42.2817 17.1541 41.474C18.7695 40.5766 20.2952 39.3201 22.09 37.4355C23.7952 39.2304 25.4105 40.4868 27.0259 41.474C28.3721 42.2817 29.808 42.7304 31.3336 42.9099C31.6029 42.9099 32.0516 42.9996 32.5003 42.9996C33.7567 42.9996 35.0131 42.7304 36.0003 42.2817C38.9618 41.115 41.1157 38.333 41.6541 35.1022C41.7439 33.756 41.5644 32.2304 41.0259 30.5253ZM18.1413 22.7176C18.2311 22.1791 18.4105 21.6407 18.6798 21.1919C19.3977 20.115 20.5644 19.5766 21.9105 19.5766C23.3464 19.5766 24.5131 20.2048 25.1413 21.1919C25.5003 21.6407 25.6798 22.1791 25.7695 22.7176C25.8593 23.4355 25.8593 24.2432 25.6798 25.0509C25.2311 27.0253 23.9746 29.4484 21.9105 32.1407C19.9362 29.5381 18.59 27.115 18.1413 25.0509C18.0516 24.1535 18.0516 23.4355 18.1413 22.7176ZM29.1798 25.9483C29.449 24.6919 29.5387 23.5253 29.3593 22.2689C29.1798 21.1919 28.8208 20.115 28.1926 19.3073C26.8464 17.333 24.6028 16.1663 22.0003 16.1663C19.4875 16.1663 17.2439 17.333 15.808 19.3073C15.1798 20.2048 14.8208 21.1919 14.6413 22.2689C14.4618 23.4355 14.5516 24.6919 14.8208 25.9483C15.449 28.6407 17.0644 31.6919 19.667 35.0125C18.1413 36.7176 16.7054 37.8842 15.3593 38.6919C14.3721 39.2304 13.3849 39.5894 12.3977 39.6791C11.4105 39.7689 10.4234 39.6791 9.43618 39.3201C7.55157 38.5125 6.20541 36.8073 5.93618 34.833C5.84644 33.6663 5.93618 32.7689 6.3849 31.6919C6.47464 31.4227 6.56439 31.1535 6.74387 30.8843C6.83362 30.7048 6.83362 30.615 6.92336 30.4355C7.19259 29.8073 7.55157 29.0894 7.8208 28.3714V28.2817C10.8721 21.8201 13.9234 15.5381 16.8849 9.7945L16.9746 9.52527C17.1541 9.25604 17.3336 8.89707 17.5131 8.53809C17.6926 8.17912 17.8721 7.90989 18.0516 7.55092C18.4105 6.83297 18.7695 6.29451 19.1285 5.84579C19.9362 4.94835 20.9234 4.49963 22.09 4.49963C23.2567 4.49963 24.2439 4.94835 25.0516 5.84579C25.4105 6.29451 25.7695 6.83297 26.1285 7.55092C26.308 7.82015 26.4875 8.17912 26.5772 8.53809C26.7567 8.89707 26.9362 9.1663 27.0259 9.43553L27.1157 9.70476C30.2567 15.8073 33.2182 21.9996 36.09 28.1022L36.1798 28.2817C36.3593 28.6407 36.449 28.9099 36.6285 29.2689C36.808 29.6278 36.9875 29.9868 37.0772 30.256C37.167 30.4355 37.167 30.5253 37.2567 30.7048C37.4362 30.974 37.5259 31.2432 37.6157 31.5125C37.9746 32.5894 38.0644 33.5766 37.8849 34.474C37.6157 36.4484 36.2695 38.1535 34.3849 38.9612C33.4875 39.3201 32.5003 39.4996 31.5131 39.3201C30.5259 39.2304 29.5387 38.8714 28.5516 38.333C27.2054 37.615 25.8593 36.4483 24.2439 34.6535C26.9362 31.6919 28.5516 28.6407 29.1798 25.9483Z" fill="#FF5A5F"/>
</svg>
