<svg width="44" height="44" viewBox="0 0 44 44" fill="none" xmlns="http://www.w3.org/2000/svg">
<g clip-path="url(#clip0_5002_705)">
<path fill-rule="evenodd" clip-rule="evenodd" d="M23.2587 23.759C22.5919 25.089 21.4504 25.9451 20.2137 26.2341C20.027 26.2341 19.7408 26.3283 19.4545 26.3283C17.3643 26.3283 16.1286 24.7112 16.1286 22.3348C16.1286 19.2889 17.9342 17.8646 20.2137 17.196C21.4504 16.9115 22.8791 16.8155 24.3042 16.8155V17.958C24.3042 20.145 24.3984 21.8555 23.2587 23.759ZM24.3042 12.4441C23.0684 12.5383 21.6397 12.6326 20.2137 12.8192C18.0284 13.1082 15.8432 13.4887 14.0393 14.3449C10.5214 15.7718 8.14319 18.8141 8.14319 23.2824C8.14319 28.8977 11.7545 31.748 16.3215 31.748C17.8409 31.748 19.0766 31.5559 20.2137 31.2741C22.0247 30.7015 23.5423 29.6551 25.3479 27.7517C26.3943 29.1786 26.6824 29.8472 28.4863 31.3683C28.9619 31.5559 29.4375 31.5559 29.8154 31.2741C30.9578 30.321 32.9564 28.6087 34.0001 27.6574C34.4758 27.2778 34.3824 26.7062 34.0934 26.2341C33.0497 24.9014 32.0015 23.759 32.0015 21.1914V12.6317C32.0015 9.0186 32.2905 5.68911 29.6278 3.21847C27.4425 1.22437 24.0188 0.461548 21.3561 0.461548H20.2137C15.3693 0.742445 10.2378 2.83616 9.09268 8.82834C8.90242 9.59116 9.47498 9.87475 9.8555 9.96809L15.1791 10.6349C15.749 10.5389 16.0352 10.0623 16.1286 9.59116C16.6024 7.49834 18.3147 6.45193 20.2137 6.25898H20.5969C21.7384 6.25898 22.9751 6.73552 23.6383 7.6886C24.3984 8.82834 24.3042 10.3513 24.3042 11.684V12.4441Z" fill="#343B45"/>
<path fill-rule="evenodd" clip-rule="evenodd" d="M43.5332 32.7208V32.719C43.5135 32.2703 43.4193 31.9284 43.2326 31.6439L43.212 31.617L43.1895 31.5882C42.9993 31.3809 42.8171 31.302 42.6196 31.2158C42.0291 30.9879 41.1703 30.8658 40.1373 30.864C39.3952 30.864 38.5767 30.9349 37.7537 31.1153L37.7511 31.0588L36.9227 31.3352L36.9075 31.3423L36.439 31.4949V31.5147C35.9034 31.7369 35.3961 32.0219 34.9277 32.3636C34.6387 32.579 34.4009 32.8662 34.3875 33.3041C34.3874 33.4325 34.4155 33.5593 34.4698 33.6755C34.5241 33.7918 34.6032 33.8948 34.7016 33.9772C34.8092 34.063 34.9334 34.1258 35.0663 34.1616C35.1992 34.1974 35.3381 34.2055 35.4743 34.1854L35.5146 34.1836L35.5452 34.1782C35.9508 34.0921 36.5413 34.0338 37.2323 33.9377C37.8246 33.8713 38.4529 33.8238 38.9976 33.8238C39.3826 33.8211 39.729 33.8489 39.9668 33.8991C40.0692 33.9178 40.1683 33.951 40.2612 33.9979C40.2798 34.076 40.2874 34.1563 40.2836 34.2366C40.289 34.6925 40.097 35.5388 39.8304 36.3653C39.572 37.1909 39.2579 38.0193 39.0505 38.5694C38.9962 38.7022 38.9678 38.8441 38.9671 38.9876C38.9617 39.2084 39.0532 39.4767 39.2453 39.6544C39.4338 39.8312 39.6761 39.9021 39.8789 39.9021H39.8887C40.193 39.8994 40.4514 39.7782 40.674 39.6032C42.7767 37.7132 43.5081 34.6925 43.5386 32.9918L43.5332 32.7208ZM37.3005 35.3413C37.0789 35.3405 36.8599 35.3896 36.6598 35.4849C36.4291 35.5765 36.1931 35.6832 35.9705 35.7775L35.6439 35.9139L35.2185 36.0844V36.0889C30.5967 37.9645 25.7416 39.0639 21.2481 39.1599C21.083 39.1653 20.9161 39.1653 20.7563 39.1653C13.6899 39.1698 7.92567 35.8915 2.11029 32.6607C1.92152 32.5576 1.71058 32.5019 1.49554 32.4982C1.23439 32.4982 0.966057 32.597 0.770416 32.7791C0.672588 32.8723 0.594761 32.9844 0.541684 33.1086C0.488606 33.2328 0.461391 33.3665 0.461698 33.5016C0.459006 33.8534 0.649262 34.1782 0.914903 34.3882C6.37311 39.1294 12.3554 43.5331 20.4027 43.5385C20.5598 43.5385 20.7195 43.5331 20.8784 43.5313C25.9973 43.4165 31.7849 41.6862 36.2784 38.8638L36.3053 38.8458C36.9081 38.4861 37.4861 38.0864 38.0355 37.6495C38.3802 37.3938 38.6189 36.9935 38.6189 36.578C38.6036 35.8403 37.9763 35.3413 37.3005 35.3413Z" fill="#FF9A00"/>
</g>
<defs>
<clipPath id="clip0_5002_705">
<rect width="43.0769" height="43.0769" fill="white" transform="translate(0.461548 0.461548)"/>
</clipPath>
</defs>
</svg>
