<svg width="103" height="62" viewBox="0 0 103 62" fill="none" xmlns="http://www.w3.org/2000/svg">
<rect x="0.755127" y="0.5" width="101.49" height="61" rx="8.35714" fill="url(#paint0_radial_3809_3475)"/>
<rect x="0.755127" y="0.5" width="101.49" height="61" rx="8.35714" stroke="url(#paint1_linear_3809_3475)"/>
<g clip-path="url(#clip0_3809_3475)">
<path d="M27.8884 19.0504C28.7822 17.9324 29.3886 16.4314 29.2288 14.8975C27.9204 14.9626 26.3237 15.7607 25.3994 16.8795C24.5693 17.8377 23.8347 19.4016 24.0263 20.8711C25.4949 20.9985 26.9624 20.137 27.8884 19.0504Z" fill="#151C28"/>
<path d="M29.2124 21.1579C27.0794 21.0309 25.2658 22.3685 24.2472 22.3685C23.2281 22.3685 21.6682 21.222 19.9811 21.2528C17.7852 21.2851 15.7477 22.5267 14.6334 24.5013C12.3415 28.4516 14.0286 34.3112 16.2574 37.5284C17.3396 39.12 18.6442 40.8727 20.3629 40.8097C21.9868 40.7459 22.6234 39.7581 24.5973 39.7581C26.5698 39.7581 27.1432 40.8097 28.8622 40.7778C30.6449 40.7459 31.7594 39.1853 32.8417 37.592C34.0834 35.7775 34.5916 34.0256 34.6235 33.9294C34.5915 33.8975 31.186 32.5911 31.1544 28.6737C31.1222 25.3936 33.8282 23.8333 33.9555 23.7366C32.4277 21.4769 30.0401 21.222 29.2124 21.1579Z" fill="#151C28"/>
<path d="M48.8958 16.7188C53.5318 16.7188 56.76 19.9144 56.76 24.5671C56.76 29.2364 53.4652 32.4487 48.7795 32.4487H43.6466V40.6115H39.938V16.7188H48.8958ZM43.6464 29.3357H47.9017C51.1306 29.3357 52.9682 27.5973 52.9682 24.5837C52.9682 21.5704 51.1306 19.8483 47.9183 19.8483H43.6464V29.3357Z" fill="#151C28"/>
<path d="M57.729 35.6615C57.729 32.6147 60.0636 30.7437 64.2034 30.512L68.9717 30.2305V28.8895C68.9717 26.9523 67.6636 25.7932 65.4785 25.7932C63.4082 25.7932 62.1167 26.7865 61.8025 28.3431H58.4247C58.6234 25.1969 61.3055 22.8789 65.6107 22.8789C69.8328 22.8789 72.5316 25.1142 72.5316 28.6078V40.6121H69.104V37.7476H69.0216C68.0116 39.685 65.8093 40.9101 63.5245 40.9101C60.1135 40.9101 57.729 38.7906 57.729 35.6615ZM68.9716 34.0886V32.7143L64.6831 32.9792C62.5472 33.1283 61.3385 34.0721 61.3385 35.5623C61.3385 37.0854 62.5968 38.079 64.5176 38.079C67.0177 38.0787 68.9716 36.3568 68.9716 34.0886Z" fill="#151C28"/>
<path d="M75.7684 47.019V44.1214C76.0329 44.1875 76.6288 44.1875 76.927 44.1875C78.5827 44.1875 79.4769 43.4922 80.0231 41.704C80.0231 41.6708 80.338 40.6443 80.338 40.6277L74.0463 23.1924H77.9203L82.3252 37.3658H82.3911L86.796 23.1924H90.5707L84.0464 41.5216C82.5568 45.7441 80.8347 47.1018 77.2252 47.1018C76.927 47.1018 76.0327 47.0686 75.7684 47.019Z" fill="#151C28"/>
</g>
<defs>
<radialGradient id="paint0_radial_3809_3475" cx="0" cy="0" r="1" gradientUnits="userSpaceOnUse" gradientTransform="translate(51.7711 42.4048) rotate(90) scale(47.4641 78.4611)">
<stop stop-color="#E2E5E6"/>
<stop offset="0.868666" stop-color="white"/>
</radialGradient>
<linearGradient id="paint1_linear_3809_3475" x1="51.5" y1="0" x2="51.5" y2="62" gradientUnits="userSpaceOnUse">
<stop offset="0.4" stop-color="#E2E5E6"/>
<stop offset="1" stop-color="white"/>
</linearGradient>
<clipPath id="clip0_3809_3475">
<rect width="75.9184" height="53.1429" fill="white" transform="translate(13.5406 4.42871)"/>
</clipPath>
</defs>
</svg>
