<svg width="44" height="44" viewBox="0 0 44 44" fill="none" xmlns="http://www.w3.org/2000/svg">
<g clip-path="url(#clip0_5002_193)">
<path d="M22.0096 43.5319V35.1781C30.8524 35.1781 37.713 26.4129 34.3215 17.1046C33.6928 15.4007 32.7009 13.854 31.4147 12.5719C30.1284 11.2897 28.5786 10.3028 26.8727 9.67953C17.5666 6.31175 8.797 13.1486 8.797 21.9914H0.469116C0.469116 7.8976 14.0975 -3.09348 28.8766 1.52402C35.3212 3.54943 40.4753 8.67975 42.4791 15.1266C47.0923 29.9035 36.1012 43.5319 22.0096 43.5319Z" fill="#0080FF"/>
<path d="M22.0356 35.2309H13.7077V26.9009H22.0356V35.2309ZM13.7077 41.6066H7.33195V35.2309H13.7077V41.6066ZM7.33195 35.2309H1.98401V29.8808H7.33195V35.2309Z" fill="#0080FF"/>
</g>
<defs>
<clipPath id="clip0_5002_193">
<rect width="43.0769" height="43.0769" fill="white" transform="translate(0.461548 0.461548)"/>
</clipPath>
</defs>
</svg>
