<svg width="44" height="44" viewBox="0 0 44 44" fill="none" xmlns="http://www.w3.org/2000/svg">
<g clip-path="url(#clip0_5002_771)">
<path d="M0.46167 39.9478C1.7335 39.9478 3.64125 37.2769 5.86695 36.8954C7.13878 36.8954 8.09266 39.5662 11.2722 39.9478C13.4979 39.9478 14.4518 37.2769 16.6775 37.2769C18.9032 37.2769 19.8571 39.9478 22.0828 39.9478C24.3085 39.9478 25.2624 37.2769 27.4881 37.2769C29.7138 37.2769 30.6677 39.9478 32.8934 39.9478C35.1191 39.9478 36.0729 37.2769 38.2986 37.2769C40.5244 37.2769 41.4782 39.9478 43.7039 39.9478" stroke="black" stroke-width="1.14465" stroke-linecap="round" stroke-linejoin="round"/>
<path d="M4.81153 37.291L3.35529 34.5057L40.8743 32.0892C37.9237 34.7728 34.1336 36.9476 30.299 38.7282" stroke="black" stroke-width="1.14465" stroke-linecap="round" stroke-linejoin="round"/>
<path d="M18.2926 8.55945C24.6772 10.5117 33.6054 19.9423 36.6451 30.0788C34.979 29.4238 33.7326 28.7561 31.3925 29.3539C29.1286 21.1188 25.0778 13.2525 18.2926 8.55945Z" stroke="black" stroke-width="1.14465" stroke-linecap="round" stroke-linejoin="round"/>
<path d="M6.41983 4.05139C14.5977 7.54893 25.8153 17.2848 27.8756 30.2511C18.445 26.4483 11.2655 28.4769 6.26721 31.5611C13.8918 21.8697 10.4706 10.8493 6.41983 4.05139Z" stroke="black" stroke-width="1.14465" stroke-linecap="round" stroke-linejoin="round"/>
</g>
<defs>
<clipPath id="clip0_5002_771">
<rect width="43.0769" height="43.0769" fill="white" transform="translate(0.461548 0.461548)"/>
</clipPath>
</defs>
</svg>
