<svg width="44" height="44" viewBox="0 0 44 44" fill="none" xmlns="http://www.w3.org/2000/svg">
<g clip-path="url(#clip0_5002_603)">
<path d="M18.7157 24.6205L18.6977 33.7026C18.6977 42.3359 18.6798 42.8205 18.59 42.8205C18.267 42.8205 15.5387 43 14.6234 43.0898C14.0311 43.1436 12.8285 43.2692 11.967 43.3769C11.0875 43.4846 10.3695 43.5564 10.3516 43.5385C10.3516 43.5205 10.3336 33.8282 10.3336 21.9821V0.461548L18.7157 24.6205ZM33.649 0.479497H25.3387L25.3208 10.0103V19.5751L33.6311 43.5205C33.667 43.5026 33.667 33.7923 33.667 21.9641L33.649 0.479497Z" fill="#AD080F"/>
<path d="M33.6311 43.5205H33.5593C33.4157 43.5205 33.1285 43.5026 32.7875 43.4667C30.867 43.2333 28.3362 43 26.29 42.9103C25.6259 42.8744 25.0695 42.8385 25.0516 42.8385C25.0516 42.8385 24.5311 41.3308 23.5439 38.5128C22.5926 35.7667 21.1926 31.7462 19.3798 26.5231L18.7157 24.6205L10.3336 0.461548H18.6798L19.0387 1.48462L20.6182 6.02565L33.6311 43.5205Z" fill="#DF0D12"/>
</g>
<defs>
<clipPath id="clip0_5002_603">
<rect width="43.0769" height="43.0769" fill="white" transform="translate(0.461548 0.461548)"/>
</clipPath>
</defs>
</svg>
