<svg width="44" height="44" viewBox="0 0 44 44" fill="none" xmlns="http://www.w3.org/2000/svg">
<g clip-path="url(#clip0_5002_635)">
<mask id="mask0_5002_635" style="mask-type:luminance" maskUnits="userSpaceOnUse" x="1" y="0" width="44" height="44">
<path d="M44.3694 0.461548H1.29248V43.5385H44.3694V0.461548Z" fill="white"/>
</mask>
<g mask="url(#mask0_5002_635)">
<path fill-rule="evenodd" clip-rule="evenodd" d="M10.2811 9.63833C11.0143 5.44439 14.6752 2.25659 19.0789 2.25659C21.3523 2.25659 23.4268 3.10523 25.0041 4.50485C24.8527 4.583 24.7024 4.66508 24.5535 4.75112L14.3388 10.6486C14.0598 10.8096 13.8886 11.1077 13.8901 11.4298L13.9488 24.6347L10.1472 22.4624V11.1882C10.1472 10.6589 10.1932 10.1411 10.2811 9.63833ZM37.6517 9.57472C38.7884 11.5436 39.0907 13.7646 38.6672 15.8303C38.5238 15.7383 38.3776 15.6492 38.2286 15.5631L28.014 9.66566C27.735 9.50463 27.3911 9.5054 27.1131 9.66767L15.7067 16.321L15.6872 11.9426L25.4509 6.30552C25.9093 6.04083 26.3808 5.82167 26.8602 5.6464C30.8588 4.18459 35.4499 5.76113 37.6517 9.57472ZM15.7483 25.663L15.7159 18.3936L21.9952 14.7308L28.3069 18.3374L28.3392 25.607L22.06 29.2696L15.7483 25.663ZM35.2505 20.2382L23.7854 13.6866L27.5676 11.4805L37.3311 17.1175C37.7896 17.3822 38.2151 17.681 38.6068 18.0086C41.872 20.7405 42.8021 25.5047 40.6003 29.3184C39.4636 31.2872 37.6914 32.6596 35.6906 33.3256C35.6987 33.1555 35.7028 32.9843 35.7028 32.8121V21.0173C35.7028 20.6953 35.5302 20.3979 35.2505 20.2382ZM30.1651 32.5705L30.1063 19.3657L33.908 21.538V32.8121C33.908 33.3414 33.862 33.8594 33.7741 34.3624C33.0407 38.5561 29.3799 41.7438 24.9763 41.7438C22.7028 41.7438 20.6283 40.8952 19.0511 39.4955C19.2024 39.4174 19.3526 39.3352 19.5018 39.2493L29.7164 33.3518C29.9953 33.1908 30.1666 32.8927 30.1651 32.5705ZM16.9415 34.3331L28.3485 27.6793L28.3679 32.0577L18.6044 37.6949C18.1459 37.9595 17.6744 38.1786 17.1949 38.354C13.1963 39.8157 8.60527 38.2393 6.4035 34.4257C5.26688 32.4569 4.96448 30.2363 5.38774 28.1708C5.53101 28.2627 5.67709 28.3517 5.82598 28.4377L16.0406 34.3351C16.3195 34.4961 16.6633 34.4954 16.9415 34.3331ZM8.80455 23.7622L20.2698 30.3139L16.4871 32.5203L6.72341 26.8833C6.26508 26.6186 5.83964 26.3199 5.44818 25.9925C2.18268 23.2605 1.25238 18.4961 3.45422 14.6824C4.59104 12.7134 6.36349 11.341 8.36445 10.6749C8.35643 10.8451 8.35237 11.0162 8.35237 11.1882V22.9831C8.35237 23.3051 8.52493 23.6025 8.80455 23.7622Z" fill="black"/>
</g>
</g>
<defs>
<clipPath id="clip0_5002_635">
<rect width="43.0769" height="43.0769" fill="white" transform="translate(0.461548 0.461548)"/>
</clipPath>
</defs>
</svg>
