<svg width="44" height="44" viewBox="0 0 44 44" fill="none" xmlns="http://www.w3.org/2000/svg">
<g clip-path="url(#clip0_5002_701)">
<path fill-rule="evenodd" clip-rule="evenodd" d="M34.7077 19.6308C27.8154 15.5385 16.2923 15.1077 9.72309 17.1539C8.64617 17.4769 7.56924 16.8308 7.24616 15.8616C6.92308 14.7846 7.56924 13.7077 8.53847 13.3846C16.1846 11.1231 28.7846 11.5539 36.7539 16.2923C37.7231 16.8308 38.0462 18.1231 37.5077 19.0923C36.9692 19.8462 35.6769 20.1692 34.7077 19.6308ZM34.4923 25.6615C33.9539 26.4154 32.9846 26.7385 32.2308 26.2C26.4154 22.6462 17.5846 21.5693 10.8 23.7231C9.93847 23.9385 8.96924 23.5077 8.75386 22.6462C8.53848 21.7846 8.96924 20.8154 9.83078 20.6C17.6923 18.2308 27.3846 19.4154 34.0616 23.5077C34.7077 23.8308 35.0308 24.9077 34.4923 25.6615ZM31.9077 31.5846C31.4769 32.2308 30.7231 32.4462 30.0769 32.0154C25.0154 28.8923 18.6616 28.2462 11.1231 29.9692C10.3692 30.1846 9.72309 29.6462 9.5077 29C9.29232 28.2462 9.83078 27.6 10.4769 27.3846C18.6616 25.5539 25.7692 26.3077 31.3692 29.7539C32.1231 30.0769 32.2308 30.9385 31.9077 31.5846ZM22 0.461548C10.1539 0.461548 0.461548 10.1539 0.461548 22C0.461548 33.8462 10.1539 43.5385 22 43.5385C33.8462 43.5385 43.5385 33.8462 43.5385 22C43.5385 10.1539 33.9539 0.461548 22 0.461548Z" fill="#00DA5A"/>
</g>
<defs>
<clipPath id="clip0_5002_701">
<rect width="43.0769" height="43.0769" fill="white" transform="translate(0.461548 0.461548)"/>
</clipPath>
</defs>
</svg>
