<svg width="380" height="240" viewBox="0 0 380 240" fill="none" xmlns="http://www.w3.org/2000/svg">
<g clip-path="url(#clip0_4236_1582)">
<rect width="380" height="240" rx="16.2254" fill="url(#paint0_linear_4236_1582)"/>
<path d="M16.9247 241.553C11.1363 241.553 6.0941 240.468 1.93668 238.329C-2.1781 236.201 -5.37612 233.148 -7.56143 229.254C-9.77873 225.296 -10.9087 220.604 -10.9087 215.327C-10.9087 209.943 -9.82137 205.219 -7.66804 201.272C-5.57867 197.442 -2.64715 194.431 1.03057 192.313L1.36103 192.133C5.20931 189.973 9.77181 188.888 14.9206 188.888C20.0694 188.888 24.7812 189.92 28.7361 191.952C32.6483 193.973 35.7504 196.835 37.9357 200.485C40.1423 204.155 41.2936 208.549 41.3576 213.539C41.3576 214.795 41.2936 215.965 41.155 217.029H1.44631V219.189C1.83007 223.498 3.25852 226.977 5.69968 229.509C8.20479 232.095 11.616 233.403 15.8587 233.403C19.206 233.403 22.0522 232.648 24.3121 231.169C26.3162 229.871 27.7553 228.009 28.5868 225.647H40.153C39.492 228.275 38.3408 230.701 36.7098 232.85C34.6844 235.521 31.966 237.67 28.6294 239.223C25.2715 240.776 21.338 241.574 16.9247 241.574V241.553ZM15.5602 196.846C11.8505 196.846 8.90835 197.857 6.31796 200.038C3.78087 202.187 2.25647 205.081 1.79809 208.656L1.56357 210.454H29.898L29.6315 208.624C29.1305 205.198 27.766 202.442 25.5807 200.431V200.4L24.9944 199.91C22.5106 197.878 19.3339 196.846 15.5709 196.846H15.5602Z" fill="white" fill-opacity="0.08"/>
<path d="M64.9605 241.554C59.2787 241.554 54.6736 240.245 51.2623 237.681C47.9471 235.181 46.3374 231.723 46.3374 227.105C46.3374 221.785 48.2242 217.806 52.0938 214.955C56.0594 212.029 61.9864 210.539 69.7149 210.539H82.1019V206.284C82.1019 203.315 80.9719 200.911 78.744 199.134C76.612 197.453 73.7871 196.612 70.3439 196.612C67.2738 196.612 64.694 197.315 62.6686 198.708C60.9417 199.9 59.7584 201.443 59.1508 203.305H47.8298C48.5867 199.006 50.7187 195.697 54.3218 193.197C58.4792 190.314 64.1184 188.856 71.0794 188.856C78.0404 188.856 84.0633 190.495 87.901 193.601C91.7386 196.708 93.6041 201.134 93.6041 207.124V226.35C93.6041 228.19 94.0518 229.488 94.9792 230.308C95.864 231.074 97.1112 231.457 98.6889 231.457H98.7849V240.905H92.7726C89.5746 240.905 87.2827 240.213 85.9395 238.841C84.7989 237.67 84.2659 235.957 84.3192 233.617L84.4578 227.871L81.3663 232.723C79.5008 235.649 77.3049 237.798 74.6292 239.298C71.9855 240.788 68.7342 241.543 64.9392 241.543L64.9605 241.554ZM69.6083 217.327C66.1971 217.327 63.4468 218.051 61.4427 219.487C59.268 221.03 58.1701 223.232 58.1701 226.031C58.1701 228.414 59.1295 230.425 60.9523 231.85C62.6793 233.202 64.9925 233.893 67.8174 233.893C72.1241 233.893 75.5993 232.616 78.147 230.095C80.7054 227.563 82.0379 224.179 82.1019 220.019V217.327H69.5977H69.6083Z" fill="white" fill-opacity="0.08"/>
<path d="M125.988 241.553C121.447 241.553 117.492 240.5 113.9 238.33C110.35 236.18 107.546 233.095 105.563 229.148C103.527 225.147 102.504 220.413 102.504 215.093C102.504 209.773 103.506 205.241 105.563 201.219C107.578 197.282 110.403 194.218 113.963 192.101C117.588 189.93 121.564 188.877 126.105 188.877C132.704 188.877 137.65 191.111 141.243 195.708L144.099 199.368V169.758H155.825V240.915H145.73L143.812 231.19L141.658 234.01C137.778 239.085 132.651 241.553 125.988 241.553ZM129.495 197.899C124.986 197.899 121.308 199.559 118.579 202.836C115.914 205.996 114.56 210.167 114.56 215.231C114.56 220.296 115.914 224.424 118.579 227.605C121.319 230.882 124.997 232.531 129.485 232.531C133.972 232.531 137.629 230.893 140.347 227.669C142.98 224.509 144.323 220.37 144.323 215.338C144.323 210.305 142.991 206.017 140.358 202.836C137.661 199.559 134.004 197.899 129.495 197.899Z" fill="white" fill-opacity="0.08"/>
<path d="M162.999 240.915V189.515H174.725V240.925H162.999V240.915ZM168.926 180.504C166.869 180.504 165.217 179.855 163.852 178.514C162.498 177.184 161.837 175.567 161.837 173.588C161.837 171.609 162.488 170.024 163.831 168.747C165.195 167.438 166.869 166.8 168.926 166.8C170.984 166.8 172.615 167.428 173.937 168.726C175.258 170.024 175.898 171.62 175.898 173.588C175.898 175.556 175.248 177.184 173.926 178.525C172.604 179.855 170.962 180.504 168.926 180.504Z" fill="white" fill-opacity="0.08"/>
<path d="M182.966 240.936V189.516H193.072L194.863 198.357L196.995 195.729C198.743 193.58 200.875 191.878 203.338 190.686C205.8 189.484 208.913 188.877 212.591 188.877C218.56 188.877 223.315 190.675 227.131 194.378C230.883 198.006 232.781 204.23 232.781 212.891V214.487H232.813V240.926H221.087V213.731C221.087 200.74 214.232 198.017 208.476 198.017C204.105 198.017 200.662 199.538 198.231 202.538C195.897 205.432 194.703 209.486 194.703 214.593V240.936H182.977H182.966Z" fill="white" fill-opacity="0.08"/>
<path d="M264.867 262.8C257.554 262.8 251.606 261.183 247.182 258.001C243.259 255.171 241.02 251.384 240.37 246.447H252.469C253.365 248.894 254.857 250.83 256.925 252.235C259.27 253.831 262.33 254.639 266.029 254.639C270.645 254.639 274.322 253.426 276.945 251.043C279.61 248.607 280.953 245.032 280.953 240.414V230.051L278.096 233.69C274.44 238.35 269.344 240.617 262.522 240.617C257.97 240.617 254.015 239.574 250.422 237.435C246.873 235.307 244.069 232.296 242.086 228.466C240.061 224.572 239.027 219.944 239.027 214.699C239.027 209.453 240.029 204.964 242.086 200.995C244.112 197.058 246.862 194.101 250.486 191.962C254.09 189.855 258.172 188.781 262.639 188.781C269.291 188.781 274.418 191.281 278.298 196.431L280.537 199.399L282.2 189.526H292.37V240.925C292.359 247.66 290.206 252.873 285.803 256.831C281.401 260.789 274.354 262.8 264.856 262.8H264.867ZM266.007 197.686C261.498 197.686 257.831 199.325 255.102 202.57C252.437 205.74 251.083 209.858 251.083 214.805C251.083 219.752 252.437 223.87 255.113 226.987C257.842 230.179 261.509 231.796 266.007 231.796C270.506 231.796 274.141 230.179 276.859 226.987C279.503 223.859 280.836 219.795 280.836 214.901C280.836 210.007 279.503 205.825 276.87 202.633C274.162 199.356 270.506 197.697 265.997 197.697L266.007 197.686Z" fill="white" fill-opacity="0.08"/>
<path d="M333.495 241.585C326.396 241.585 320.17 240.085 314.968 237.117C309.798 234.169 305.768 229.945 302.997 224.562C300.204 219.136 298.786 212.678 298.786 205.379C298.786 198.08 300.204 191.622 302.997 186.196C305.779 180.791 309.809 176.567 314.968 173.62L315.778 173.162V173.141C320.81 170.471 326.769 169.119 333.495 169.119C339.007 169.119 344.006 170.205 348.345 172.354C352.662 174.503 356.201 177.535 358.845 181.387C361.19 184.802 362.725 188.739 363.429 193.122H350.626C349.528 189.1 347.513 185.855 344.624 183.461C341.426 180.791 337.397 179.429 332.653 179.429C326.225 179.429 321.066 181.887 317.313 186.749C313.657 191.462 311.802 197.729 311.802 205.358C311.802 212.986 313.604 219.093 317.313 223.902C321.066 228.786 326.225 231.265 332.653 231.265C337.397 231.265 341.426 229.914 344.635 227.232C347.535 224.817 349.539 221.572 350.637 217.572H363.439C362.736 221.976 361.201 225.913 358.866 229.307C356.18 233.191 352.651 236.233 348.366 238.34C344.006 240.489 339.007 241.574 333.517 241.574L333.495 241.585Z" fill="white" fill-opacity="0.08"/>
<path d="M386.062 241.553C380.38 241.553 375.775 240.245 372.364 237.681C369.049 235.18 367.439 231.722 367.439 227.105C367.439 221.785 369.326 217.806 373.195 214.955C377.161 212.029 383.088 210.539 390.816 210.539H403.203V206.283C403.203 203.315 402.073 200.91 399.846 199.134C397.714 197.453 394.889 196.601 391.445 196.601C388.375 196.601 385.796 197.304 383.77 198.697C382.043 199.889 380.86 201.432 380.252 203.294H368.931C369.688 198.995 371.82 195.686 375.423 193.186C379.581 190.303 385.22 188.845 392.181 188.845C399.142 188.845 405.165 190.484 409.003 193.59C412.84 196.697 414.706 201.123 414.706 207.113V226.339C414.706 228.179 415.153 229.477 416.081 230.297C416.976 231.063 418.213 231.446 419.791 231.446H419.886V240.894H413.874C410.676 240.894 408.384 240.202 407.041 238.83C405.9 237.659 405.367 235.946 405.421 233.606L405.559 227.86L402.468 232.712C400.602 235.638 398.406 237.787 395.731 239.287C393.098 240.777 389.836 241.532 386.041 241.532L386.062 241.553ZM390.699 217.327C387.235 217.327 384.57 218.04 382.523 219.487C380.348 221.03 379.25 223.232 379.25 226.03C379.25 228.414 380.21 230.424 382.033 231.85C383.759 233.201 386.073 233.893 388.898 233.893C393.204 233.893 396.679 232.616 399.227 230.095C401.786 227.562 403.118 224.179 403.182 220.019V217.327H390.678H390.699Z" fill="white" fill-opacity="0.08"/>
<g clip-path="url(#clip1_4236_1582)">
<path d="M35.2878 40.8413L32.0017 35.061L28.5088 28.9126L30.1518 26.0185L32.4367 22L35.6073 27.584L34.2867 29.9088L32.4367 26.6544L31.1529 28.9118L33.1084 32.3531L36.6084 38.5144H39.169L37.6733 35.8717L38.994 33.547L43.1387 40.842H35.2878V40.8413Z" fill="white"/>
<path d="M21.7324 40.8413L27.2347 31.1592L28.5553 33.4839L27.3721 35.5702L25.6972 38.5115H31.4085L32.732 40.8413H21.7324Z" fill="white"/>
<path d="M48.2773 40.8413V24.1399H51.0037V38.4392H57.4858V40.8413H48.2773Z" fill="white"/>
<path d="M63.8122 40.9917C61.9708 40.9917 60.4419 40.4137 59.3912 39.3208C58.356 38.2451 57.8091 36.6967 57.8091 34.8447C57.8091 31.0804 60.0742 28.6476 63.5792 28.6476C66.9842 28.6476 69.2125 30.915 69.2557 34.4243C69.2557 34.6979 69.2422 34.9629 69.216 35.2064H60.4653V35.813C60.5432 37.834 61.8015 39.1403 63.6727 39.1403C65.0869 39.1403 66.0993 38.4786 66.4989 37.3119H68.9787C68.7349 38.2738 68.2043 39.1318 67.454 39.7649C66.5032 40.567 65.2441 40.991 63.813 40.991L63.8122 40.9917ZM63.6025 30.4488C61.9503 30.4488 60.7473 31.5538 60.539 33.2634L60.4816 33.7317H66.7823L66.7115 33.2526C66.4521 31.4972 65.2895 30.4495 63.6025 30.4495V30.4488Z" fill="white"/>
<path d="M74.2775 40.9917C73.0553 40.9917 72.0301 40.6852 71.3124 40.1043C70.5812 39.5128 70.21 38.6784 70.21 37.6242C70.21 36.3974 70.6294 35.4449 71.4569 34.7938C72.3319 34.1056 73.6335 33.7561 75.3268 33.7561H78.0907V32.7155C78.0907 31.286 77.1207 30.3979 75.5599 30.3979C74.2619 30.3979 73.287 31.006 72.9746 31.9757H70.5557C70.9801 29.9381 72.9271 28.6469 75.6534 28.6469C77.8923 28.6469 80.5605 29.3874 80.5605 32.9153V37.4731C80.5605 38.5423 81.1684 38.6863 81.7033 38.6884V40.8399H80.4103C79.7117 40.8399 79.2122 40.6802 78.9253 40.3665C78.683 40.1008 78.5703 39.7061 78.581 39.1597L78.6093 37.6715L77.8689 38.9298C77.0421 40.3357 75.9014 40.9903 74.2775 40.9903V40.9917ZM75.3034 35.2816C73.7043 35.2816 72.7492 36.0636 72.7492 37.3735C72.7492 38.523 73.5959 39.265 74.9074 39.265C76.8147 39.265 78.0645 37.9644 78.0914 35.9519V35.2816H75.3041H75.3034Z" fill="white"/>
<path d="M87.0693 40.9917C85.5736 40.9917 84.2905 40.4238 83.3589 39.3488C82.3932 38.2351 81.8823 36.6602 81.8823 34.7946C81.8823 32.9289 82.3917 31.4178 83.356 30.3027C84.2792 29.2356 85.5892 28.6476 87.0459 28.6476C88.4488 28.6476 89.5937 29.199 90.3568 30.2425L91.0461 31.1843V24.1399H93.562V40.8413H91.3969L90.9675 38.5023L90.4482 39.2242C89.6043 40.3966 88.4679 40.9917 87.0693 40.9917ZM87.792 30.6987C85.8039 30.6987 84.4684 32.3545 84.4684 34.8189C84.4684 37.2833 85.8039 38.9391 87.792 38.9391C89.78 38.9391 91.0922 37.2933 91.0922 34.8433C91.0922 32.3639 89.7659 30.698 87.792 30.698V30.6987Z" fill="white"/>
<path d="M94.8995 40.8413V28.798H97.4388V40.8413H94.8995ZM96.1692 26.5921C95.2991 26.5921 94.6431 25.9196 94.6431 25.028C94.6431 24.122 95.2991 23.4388 96.1692 23.4388C97.0392 23.4388 97.6953 24.122 97.6953 25.028C97.6953 25.9196 97.0392 26.5921 96.1692 26.5921Z" fill="white"/>
<path d="M107.219 40.8413V34.4694C107.219 32.7613 106.731 30.7245 104.408 30.7245C102.487 30.7245 101.341 32.1991 101.341 34.67V40.842H98.8252V28.7987H100.992L101.393 30.9207L101.907 30.2511C102.747 29.1582 103.831 28.649 105.317 28.649C108.968 28.649 109.735 31.624 109.735 34.1199V40.8427H107.219V40.8413Z" fill="white"/>
<path d="M116.551 46C114.967 46 113.634 45.6168 112.696 44.8913C111.853 44.2396 111.35 43.3422 111.196 42.2207H113.798C114.229 43.4676 115.286 44.1486 116.809 44.1486C118.921 44.1486 120.132 42.9118 120.132 40.7547V38.2108L119.444 39.1461C118.653 40.2218 117.523 40.7668 116.086 40.7668H116.038C114.56 40.7668 113.287 40.2046 112.36 39.1411C111.404 38.0453 110.899 36.5077 110.899 34.695C110.899 32.8824 111.408 31.3626 112.371 30.2611C113.294 29.2048 114.606 28.6232 116.063 28.6232C117.519 28.6232 118.651 29.2248 119.485 30.4123L120.024 31.1786L120.399 28.7987H122.579V40.8807C122.579 44.2303 120.495 46.0007 116.552 46.0007L116.551 46ZM116.808 30.6486C114.82 30.6486 113.484 32.2844 113.484 34.7194C113.484 37.1544 114.82 38.7651 116.808 38.7651C118.796 38.7651 120.108 37.1494 120.108 34.7444C120.108 32.3395 118.782 30.6486 116.808 30.6486Z" fill="white"/>
<path d="M131.135 40.9917C126.57 40.9917 123.733 37.7345 123.733 32.4906C123.733 29.9424 124.438 27.8017 125.772 26.2999C127.114 24.7888 129.041 23.9895 131.345 23.9895C134.816 23.9895 137.351 26.1638 137.916 29.5721H135.117C134.567 27.5425 133.107 26.3414 131.159 26.3414C129.749 26.3414 128.565 26.9502 127.735 28.1018C126.946 29.1962 126.529 30.7137 126.529 32.4906C126.529 34.2674 126.941 35.7714 127.719 36.8672C128.542 38.0267 129.715 38.639 131.112 38.639C133.089 38.639 134.566 37.4387 135.117 35.4083H137.895C137.639 36.9811 136.933 38.3232 135.836 39.3094C134.612 40.4094 132.987 40.991 131.134 40.991L131.135 40.9917Z" fill="white"/>
<path d="M142.548 40.9917C141.326 40.9917 140.301 40.6852 139.583 40.1043C138.852 39.5128 138.481 38.6784 138.481 37.6242C138.481 36.3974 138.9 35.4449 139.728 34.7938C140.603 34.1056 141.904 33.7561 143.598 33.7561H146.362V32.7155C146.362 31.286 145.392 30.3979 143.831 30.3979C142.534 30.3979 141.558 31.006 141.246 31.9757H138.827C139.251 29.9381 141.198 28.6469 143.924 28.6469C146.163 28.6469 148.832 29.3874 148.832 32.9153V37.4731C148.832 38.5423 149.439 38.6863 149.974 38.6884V40.8399H148.681C147.983 40.8399 147.483 40.6802 147.196 40.3665C146.954 40.1008 146.841 39.7061 146.852 39.1597L146.88 37.6715L146.14 38.9298C145.313 40.3357 144.172 40.9903 142.549 40.9903L142.548 40.9917ZM143.574 35.2816C141.975 35.2816 141.02 36.0636 141.02 37.3735C141.02 38.523 141.867 39.265 143.178 39.265C145.086 39.265 146.335 37.9644 146.362 35.9519V35.2816H143.575H143.574Z" fill="white"/>
<path d="M150.953 40.8413V28.798H153.226L153.646 31.4758L154.184 30.5269C154.669 29.6717 155.419 28.7973 157.306 28.7973H157.479V31.1743H156.559C154.566 31.1743 153.469 32.5128 153.469 34.9443V40.8406H150.953V40.8413Z" fill="white"/>
<path d="M162.898 40.9917C161.402 40.9917 160.119 40.4238 159.187 39.3488C158.222 38.2351 157.711 36.6602 157.711 34.7946C157.711 32.9289 158.22 31.4178 159.185 30.3027C160.108 29.2356 161.418 28.6476 162.875 28.6476C164.277 28.6476 165.422 29.199 166.185 30.2425L166.875 31.1843V24.1399H169.391V40.8413H167.225L166.796 38.5023L166.277 39.2242C165.433 40.3966 164.297 40.9917 162.898 40.9917ZM163.621 30.6987C161.633 30.6987 160.297 32.3545 160.297 34.8189C160.297 37.2833 161.633 38.9391 163.621 38.9391C165.609 38.9391 166.921 37.2933 166.921 34.8433C166.921 32.3932 165.594 30.698 163.621 30.698V30.6987Z" fill="white"/>
<path d="M175.661 40.9917C172.677 40.9917 170.686 39.6231 170.354 37.3879H172.731C173.026 38.5717 174.124 39.2908 175.685 39.2908C178.032 39.2908 178.286 38.0382 178.286 37.4989C178.286 36.1231 177.203 35.9698 175.409 35.7156L175.199 35.6855C174.029 35.5387 172.716 35.3145 171.807 34.7595C170.962 34.2431 170.568 33.4983 170.568 32.4147C170.568 31.3311 171.001 30.3643 171.82 29.6889C172.667 28.9906 173.859 28.6218 175.268 28.6218H175.333C176.856 28.6218 178.145 28.9749 179.063 29.6431C179.844 30.2117 180.334 31.0031 180.496 31.9506H178.102C177.827 30.9344 176.828 30.2977 175.452 30.2977C173.929 30.2977 172.945 30.9809 172.945 32.0394C172.945 32.6589 173.26 33.0972 173.88 33.3436C174.366 33.5362 175.029 33.6222 175.868 33.731L176.043 33.754C178.938 34.0705 180.733 34.7609 180.733 37.2232C180.733 38.3254 180.263 39.2628 179.375 39.9332C178.459 40.625 177.175 40.991 175.663 40.991L175.661 40.9917Z" fill="white"/>
</g>
<g opacity="0.7">
<rect x="41.5047" y="84.4037" width="46.273" height="34.914" rx="5.34434" fill="#F9FBFB" fill-opacity="0.22" stroke="#360854" stroke-width="1.1423"/>
<path d="M41.6729 94.9242H54.2733C55.9068 94.9242 57.231 96.2484 57.231 97.8819V103.613M57.231 119.178V112.301M57.231 112.301V103.613M57.231 112.301H41.6729M57.231 103.613H41.6729" stroke="#360854" stroke-width="1.1423"/>
<path d="M87.6074 94.9243H72.7901M72.7901 94.9243V103.613M72.7901 94.9243V84.5722M72.7901 119.178V112.301M72.7901 112.301V103.613M72.7901 112.301H87.6074M72.7901 103.613H87.6074" stroke="#360854" stroke-width="1.1423"/>
</g>
<g clip-path="url(#clip2_4236_1582)">
<mask id="mask0_4236_1582" style="mask-type:luminance" maskUnits="userSpaceOnUse" x="259" y="188" width="100" height="32">
<path d="M311.13 198.23C311.074 202.688 315.103 205.175 318.138 206.654C321.256 208.172 322.304 209.145 322.292 210.502C322.268 212.579 319.804 213.495 317.498 213.531C313.475 213.593 311.136 212.445 309.276 211.576L307.827 218.357C309.693 219.217 313.148 219.967 316.73 220C325.14 220 330.642 215.849 330.671 209.413C330.704 201.245 319.373 200.792 319.45 197.141C319.477 196.034 320.533 194.853 322.848 194.552C323.994 194.401 327.157 194.285 330.743 195.936L332.15 189.375C330.222 188.672 327.743 188 324.658 188C316.742 188 311.175 192.208 311.13 198.23ZM345.674 188.565C344.139 188.565 342.845 189.461 342.267 190.836L330.255 219.518H338.658L340.33 214.897H350.599L351.569 219.518H358.976L352.512 188.565H345.674ZM346.85 196.927L349.275 208.55H342.633L346.85 196.927ZM300.942 188.565L294.318 219.518H302.325L308.946 188.565H300.942ZM289.096 188.565L280.761 209.633L277.39 191.72C276.994 189.72 275.432 188.565 273.697 188.565H260.071L259.881 189.464C262.678 190.071 265.856 191.05 267.781 192.097C268.96 192.737 269.296 193.297 269.683 194.817L276.068 219.518H284.531L297.505 188.565H289.096Z" fill="white"/>
</mask>
<g mask="url(#mask0_4236_1582)">
<path d="M249.504 191.822L347.141 155.864L369.354 216.179L271.717 252.137" fill="url(#paint1_linear_4236_1582)"/>
</g>
</g>
</g>
<defs>
<linearGradient id="paint0_linear_4236_1582" x1="380" y1="-3.5724e-05" x2="0.419582" y2="240.662" gradientUnits="userSpaceOnUse">
<stop stop-color="#787889"/>
<stop offset="0.805613" stop-color="#40404A"/>
</linearGradient>
<linearGradient id="paint1_linear_4236_1582" x1="268.857" y1="219.027" x2="352.373" y2="188.27" gradientUnits="userSpaceOnUse">
<stop stop-color="white"/>
<stop offset="1" stop-color="white" stop-opacity="0.72"/>
</linearGradient>
<clipPath id="clip0_4236_1582">
<rect width="380" height="240" rx="16.2254" fill="white"/>
</clipPath>
<clipPath id="clip1_4236_1582">
<rect width="159" height="24" fill="white" transform="translate(21.7324 22)"/>
</clipPath>
<clipPath id="clip2_4236_1582">
<rect width="99.0947" height="32" fill="white" transform="translate(259.881 188)"/>
</clipPath>
</defs>
</svg>
