<svg width="380" height="240" viewBox="0 0 380 240" fill="none" xmlns="http://www.w3.org/2000/svg">
<g clip-path="url(#clip0_4236_1660)">
<rect width="380" height="240" rx="16.2254" fill="url(#paint0_linear_4236_1660)"/>
<path d="M16.8564 241.553C11.0679 241.553 6.02574 240.468 1.86832 238.329C-2.24646 236.201 -5.44448 233.148 -7.62979 229.254C-9.84709 225.296 -10.9771 220.604 -10.9771 215.327C-10.9771 209.943 -9.88973 205.219 -7.7364 201.272C-5.64703 197.442 -2.71551 194.431 0.962207 192.313L1.29267 192.133C5.14095 189.973 9.70345 188.888 14.8523 188.888C20.0011 188.888 24.7128 189.92 28.6677 191.952C32.5799 193.973 35.682 196.835 37.8673 200.485C40.0739 204.155 41.2252 208.549 41.2892 213.539C41.2892 214.795 41.2252 215.965 41.0867 217.029H1.37795V219.189C1.76171 223.498 3.19016 226.977 5.63132 229.509C8.13643 232.095 11.5476 233.403 15.7903 233.403C19.1376 233.403 21.9838 232.648 24.2438 231.169C26.2479 229.871 27.687 228.009 28.5185 225.647H40.0846C39.4237 228.275 38.2724 230.701 36.6414 232.85C34.616 235.52 31.8977 237.67 28.5611 239.223C25.2032 240.776 21.2696 241.574 16.8564 241.574V241.553ZM15.4919 196.846C11.7822 196.846 8.83999 197.857 6.2496 200.038C3.71251 202.187 2.18811 205.081 1.72973 208.656L1.49521 210.454H29.8296L29.5631 208.624C29.0621 205.198 27.6976 202.442 25.5123 200.431V200.399L24.926 199.91C22.4422 197.878 19.2655 196.846 15.5025 196.846H15.4919Z" fill="white" fill-opacity="0.2"/>
<path d="M64.8922 241.554C59.2104 241.554 54.6052 240.245 51.194 237.681C47.8787 235.181 46.269 231.723 46.269 227.105C46.269 221.785 48.1559 217.806 52.0255 214.955C55.991 212.029 61.918 210.539 69.6466 210.539H82.0335V206.284C82.0335 203.315 80.9036 200.911 78.6756 199.134C76.5436 197.453 73.7187 196.612 70.2755 196.612C67.2054 196.612 64.6257 197.315 62.6003 198.708C60.8733 199.9 59.6901 201.443 59.0824 203.305H47.7615C48.5183 199.006 50.6503 195.697 54.2534 193.197C58.4109 190.314 64.05 188.856 71.011 188.856C77.9721 188.856 83.995 190.495 87.8326 193.601C91.6702 196.708 93.5357 201.134 93.5357 207.124V226.35C93.5357 228.19 93.9835 229.488 94.9109 230.308C95.7957 231.074 97.0429 231.457 98.6206 231.457H98.7165V240.905H92.7042C89.5062 240.905 87.2143 240.213 85.8712 238.841C84.7305 237.67 84.1975 235.957 84.2508 233.617L84.3894 227.871L81.298 232.723C79.4325 235.649 77.2365 237.798 74.5608 239.298C71.9171 240.788 68.6658 241.543 64.8708 241.543L64.8922 241.554ZM69.5399 217.327C66.1287 217.327 63.3784 218.051 61.3743 219.487C59.1997 221.03 58.1017 223.232 58.1017 226.031C58.1017 228.414 59.0611 230.425 60.884 231.85C62.6109 233.202 64.9242 233.893 67.7491 233.893C72.0557 233.893 75.5309 232.616 78.0786 230.095C80.6371 227.563 81.9696 224.179 82.0335 220.019V217.327H69.5293H69.5399Z" fill="white" fill-opacity="0.2"/>
<path d="M125.92 241.553C121.379 241.553 117.424 240.5 113.832 238.33C110.282 236.18 107.478 233.095 105.495 229.148C103.459 225.147 102.436 220.413 102.436 215.093C102.436 209.773 103.438 205.241 105.495 201.219C107.51 197.282 110.335 194.218 113.896 192.101C117.52 189.93 121.496 188.877 126.037 188.877C132.636 188.877 137.582 191.111 141.175 195.708L144.032 199.368V169.758H155.758V240.915H145.663L143.744 231.19L141.59 234.01C137.71 239.085 132.583 241.553 125.92 241.553ZM129.427 197.899C124.918 197.899 121.24 199.559 118.511 202.836C115.846 205.996 114.493 210.167 114.493 215.231C114.493 220.296 115.846 224.424 118.511 227.605C121.251 230.882 124.929 232.531 129.417 232.531C133.905 232.531 137.561 230.893 140.279 227.669C142.912 224.509 144.255 220.37 144.255 215.338C144.255 210.305 142.923 206.017 140.29 202.836C137.593 199.559 133.937 197.899 129.427 197.899Z" fill="white" fill-opacity="0.2"/>
<path d="M162.931 240.915V189.515H174.657V240.925H162.931V240.915ZM168.858 180.504C166.801 180.504 165.148 179.855 163.784 178.514C162.43 177.184 161.769 175.567 161.769 173.588C161.769 171.609 162.419 170.024 163.762 168.747C165.127 167.438 166.801 166.8 168.858 166.8C170.915 166.8 172.546 167.428 173.868 168.726C175.19 170.024 175.83 171.62 175.83 173.588C175.83 175.556 175.179 177.184 173.858 178.525C172.536 179.855 170.894 180.504 168.858 180.504Z" fill="white" fill-opacity="0.2"/>
<path d="M182.898 240.936V189.516H193.004L194.795 198.357L196.927 195.729C198.675 193.58 200.807 191.878 203.269 190.686C205.732 189.484 208.844 188.877 212.522 188.877C218.492 188.877 223.246 190.675 227.063 194.378C230.815 198.006 232.712 204.23 232.712 212.891V214.487H232.744V240.926H221.018V213.731C221.018 200.74 214.164 198.017 208.407 198.017C204.037 198.017 200.594 199.538 198.163 202.538C195.829 205.432 194.635 209.486 194.635 214.593V240.936H182.909H182.898Z" fill="white" fill-opacity="0.2"/>
<path d="M264.799 262.8C257.486 262.8 251.538 261.183 247.114 258.001C243.191 255.171 240.952 251.384 240.302 246.447H252.401C253.297 248.894 254.789 250.83 256.857 252.235C259.202 253.831 262.262 254.639 265.961 254.639C270.577 254.639 274.254 253.426 276.877 251.043C279.542 248.607 280.885 245.032 280.885 240.414V230.051L278.028 233.69C274.372 238.35 269.276 240.617 262.454 240.617C257.902 240.617 253.947 239.574 250.355 237.435C246.805 235.307 244.001 232.296 242.018 228.466C239.993 224.572 238.959 219.944 238.959 214.699C238.959 209.453 239.961 204.964 242.018 200.995C244.044 197.058 246.794 194.101 250.419 191.962C254.022 189.855 258.104 188.781 262.571 188.781C269.223 188.781 274.35 191.281 278.231 196.431L280.469 199.399L282.132 189.526H292.302V240.925C292.291 247.66 290.138 252.873 285.735 256.831C281.333 260.789 274.286 262.8 264.788 262.8H264.799ZM265.94 197.686C261.43 197.686 257.763 199.325 255.034 202.57C252.369 205.74 251.016 209.858 251.016 214.805C251.016 219.752 252.369 223.87 255.045 226.987C257.774 230.179 261.441 231.796 265.94 231.796C270.438 231.796 274.073 230.179 276.792 226.987C279.435 223.859 280.768 219.795 280.768 214.901C280.768 210.007 279.435 205.825 276.802 202.633C274.095 199.356 270.438 197.697 265.929 197.697L265.94 197.686Z" fill="white" fill-opacity="0.2"/>
<path d="M333.427 241.585C326.327 241.585 320.102 240.085 314.9 237.116C309.73 234.169 305.7 229.945 302.928 224.562C300.136 219.136 298.718 212.678 298.718 205.379C298.718 198.08 300.136 191.622 302.928 186.196C305.711 180.791 309.74 176.567 314.9 173.62L315.71 173.162V173.141C320.741 170.471 326.7 169.119 333.427 169.119C338.938 169.119 343.938 170.205 348.276 172.354C352.594 174.503 356.133 177.535 358.777 181.387C361.122 184.802 362.657 188.739 363.36 193.122H350.558C349.46 189.1 347.445 185.855 344.556 183.461C341.358 180.791 337.328 179.429 332.585 179.429C326.157 179.429 320.997 181.887 317.245 186.749C313.589 191.462 311.734 197.729 311.734 205.358C311.734 212.986 313.535 219.093 317.245 223.902C320.997 228.786 326.157 231.265 332.585 231.265C337.328 231.265 341.358 229.914 344.567 227.232C347.466 224.817 349.47 221.572 350.568 217.572H363.371C362.667 221.976 361.132 225.913 358.798 229.307C356.111 233.191 352.583 236.233 348.298 238.34C343.938 240.489 338.938 241.574 333.448 241.574L333.427 241.585Z" fill="white" fill-opacity="0.2"/>
<path d="M385.994 241.553C380.312 241.553 375.707 240.245 372.296 237.681C368.98 235.18 367.371 231.722 367.371 227.105C367.371 221.785 369.257 217.806 373.127 214.955C377.093 212.029 383.02 210.539 390.748 210.539H403.135V206.283C403.135 203.315 402.005 200.91 399.777 199.134C397.645 197.453 394.82 196.601 391.377 196.601C388.307 196.601 385.727 197.304 383.702 198.697C381.975 199.889 380.792 201.432 380.184 203.294H368.863C369.62 198.995 371.752 195.686 375.355 193.186C379.512 190.303 385.152 188.845 392.113 188.845C399.074 188.845 405.097 190.484 408.934 193.59C412.772 196.697 414.637 201.123 414.637 207.113V226.339C414.637 228.179 415.085 229.477 416.012 230.297C416.908 231.063 418.144 231.446 419.722 231.446H419.818V240.894H413.806C410.608 240.894 408.316 240.202 406.973 238.83C405.832 237.659 405.299 235.946 405.352 233.606L405.491 227.86L402.4 232.712C400.534 235.638 398.338 237.787 395.662 239.287C393.029 240.777 389.767 241.532 385.972 241.532L385.994 241.553ZM390.631 217.327C387.166 217.327 384.501 218.04 382.455 219.487C380.28 221.03 379.182 223.232 379.182 226.03C379.182 228.414 380.141 230.424 381.964 231.85C383.691 233.201 386.004 233.893 388.829 233.893C393.136 233.893 396.611 232.616 399.159 230.095C401.717 227.562 403.05 224.179 403.114 220.019V217.327H390.61H390.631Z" fill="white" fill-opacity="0.2"/>
<g clip-path="url(#clip1_4236_1660)">
<path d="M33.7526 39.8413L30.4666 34.061L26.9736 27.9126L28.6167 25.0185L30.9016 21L34.0722 26.584L32.7515 28.9088L30.9016 25.6544L29.6178 27.9118L31.5733 31.3531L35.0733 37.5144H37.6338L36.1382 34.8717L37.4588 32.547L41.6036 39.842H33.7526V39.8413Z" fill="black"/>
<path d="M20.1973 39.8413L25.6995 30.1592L27.0202 32.4839L25.837 34.5702L24.1621 37.5115H29.8733L31.1968 39.8413H20.1973Z" fill="black"/>
<path d="M46.7422 39.8413V23.1399H49.4685V37.4392H55.9506V39.8413H46.7422Z" fill="black"/>
<path d="M62.2771 39.9917C60.4357 39.9917 58.9067 39.4137 57.856 38.3208C56.8209 37.2451 56.2739 35.6967 56.2739 33.8447C56.2739 30.0804 58.539 27.6476 62.044 27.6476C65.4491 27.6476 67.6773 29.915 67.7205 33.4243C67.7205 33.6979 67.7071 33.9629 67.6809 34.2064H58.9301V34.813C59.008 36.834 60.2664 38.1403 62.1375 38.1403C63.5517 38.1403 64.5642 37.4786 64.9637 36.3119H67.4435C67.1998 37.2738 66.6691 38.1318 65.9188 38.7649C64.968 39.567 63.709 39.991 62.2778 39.991L62.2771 39.9917ZM62.0674 29.4488C60.4151 29.4488 59.2121 30.5538 59.0038 32.2634L58.9464 32.7317H65.2472L65.1763 32.2526C64.917 30.4972 63.7543 29.4495 62.0674 29.4495V29.4488Z" fill="black"/>
<path d="M72.7423 39.9917C71.5202 39.9917 70.495 39.6852 69.7772 39.1043C69.0461 38.5128 68.6748 37.6784 68.6748 36.6242C68.6748 35.3974 69.0942 34.4449 69.9218 33.7938C70.7968 33.1056 72.0983 32.7561 73.7916 32.7561H76.5555V31.7155C76.5555 30.286 75.5856 29.3979 74.0247 29.3979C72.7267 29.3979 71.7518 30.006 71.4394 30.9757H69.0206C69.445 28.9381 71.3919 27.6469 74.1183 27.6469C76.3571 27.6469 79.0254 28.3874 79.0254 31.9153V36.4731C79.0254 37.5423 79.6333 37.6863 80.1682 37.6884V39.8399H78.8752C78.1766 39.8399 77.6771 39.6802 77.3901 39.3665C77.1478 39.1008 77.0352 38.7061 77.0458 38.1597L77.0741 36.6715L76.3338 37.9298C75.5069 39.3357 74.3662 39.9903 72.7423 39.9903V39.9917ZM73.7683 34.2816C72.1692 34.2816 71.2141 35.0636 71.2141 36.3735C71.2141 37.523 72.0608 38.265 73.3722 38.265C75.2795 38.265 76.5293 36.9644 76.5562 34.9519V34.2816H73.769H73.7683Z" fill="black"/>
<path d="M85.5341 39.9917C84.0385 39.9917 82.7554 39.4238 81.8237 38.3488C80.858 37.2351 80.3472 35.6602 80.3472 33.7946C80.3472 31.9289 80.8566 30.4178 81.8209 29.3027C82.744 28.2356 84.0541 27.6476 85.5108 27.6476C86.9136 27.6476 88.0585 28.199 88.8216 29.2425L89.511 30.1843V23.1399H92.0269V39.8413H89.8617L89.4323 37.5023L88.913 38.2242C88.0692 39.3966 86.9327 39.9917 85.5341 39.9917ZM86.2568 29.6987C84.2688 29.6987 82.9332 31.3545 82.9332 33.8189C82.9332 36.2833 84.2688 37.9391 86.2568 37.9391C88.2449 37.9391 89.557 36.2933 89.557 33.8433C89.557 31.3639 88.2307 29.698 86.2568 29.698V29.6987Z" fill="black"/>
<path d="M93.3644 39.8413V27.798H95.9037V39.8413H93.3644ZM94.634 25.5921C93.764 25.5921 93.1079 24.9196 93.1079 24.028C93.1079 23.122 93.764 22.4388 94.634 22.4388C95.5041 22.4388 96.1602 23.122 96.1602 24.028C96.1602 24.9196 95.5041 25.5921 94.634 25.5921Z" fill="black"/>
<path d="M105.684 39.8413V33.4694C105.684 31.7613 105.196 29.7245 102.873 29.7245C100.952 29.7245 99.8059 31.1991 99.8059 33.67V39.842H97.29V27.7987H99.4567L99.8577 29.9207L100.372 29.2511C101.212 28.1582 102.296 27.649 103.782 27.649C107.433 27.649 108.2 30.624 108.2 33.1199V39.8427H105.684V39.8413Z" fill="black"/>
<path d="M115.016 45C113.432 45 112.099 44.6168 111.161 43.8913C110.318 43.2396 109.814 42.3422 109.661 41.2207H112.263C112.694 42.4676 113.751 43.1486 115.273 43.1486C117.385 43.1486 118.597 41.9118 118.597 39.7547V37.2108L117.909 38.1461C117.118 39.2218 115.988 39.7668 114.551 39.7668H114.503C113.025 39.7668 111.752 39.2046 110.825 38.1411C109.869 37.0453 109.364 35.5077 109.364 33.695C109.364 31.8824 109.873 30.3626 110.836 29.2611C111.759 28.2048 113.071 27.6232 114.527 27.6232C115.984 27.6232 117.116 28.2248 117.95 29.4123L118.489 30.1786L118.864 27.7987H121.043V39.8807C121.043 43.2303 118.96 45.0007 115.017 45.0007L115.016 45ZM115.273 29.6486C113.285 29.6486 111.949 31.2844 111.949 33.7194C111.949 36.1544 113.285 37.7651 115.273 37.7651C117.261 37.7651 118.573 36.1494 118.573 33.7444C118.573 31.3395 117.247 29.6486 115.273 29.6486Z" fill="black"/>
<path d="M129.6 39.9917C125.034 39.9917 122.198 36.7345 122.198 31.4906C122.198 28.9424 122.903 26.8017 124.237 25.2999C125.579 23.7888 127.506 22.9895 129.81 22.9895C133.281 22.9895 135.816 25.1638 136.381 28.5721H133.582C133.032 26.5425 131.572 25.3414 129.623 25.3414C128.213 25.3414 127.03 25.9502 126.2 27.1018C125.411 28.1962 124.994 29.7137 124.994 31.4906C124.994 33.2674 125.406 34.7714 126.184 35.8672C127.007 37.0267 128.18 37.639 129.577 37.639C131.553 37.639 133.031 36.4387 133.582 34.4083H136.36C136.104 35.9811 135.398 37.3232 134.301 38.3094C133.077 39.4094 131.452 39.991 129.599 39.991L129.6 39.9917Z" fill="black"/>
<path d="M141.013 39.9917C139.791 39.9917 138.766 39.6852 138.048 39.1043C137.317 38.5128 136.946 37.6784 136.946 36.6242C136.946 35.3974 137.365 34.4449 138.193 33.7938C139.068 33.1056 140.369 32.7561 142.063 32.7561H144.827V31.7155C144.827 30.286 143.857 29.3979 142.296 29.3979C140.998 29.3979 140.023 30.006 139.71 30.9757H137.292C137.716 28.9381 139.663 27.6469 142.389 27.6469C144.628 27.6469 147.296 28.3874 147.296 31.9153V36.4731C147.296 37.5423 147.904 37.6863 148.439 37.6884V39.8399H147.146C146.448 39.8399 145.948 39.6802 145.661 39.3665C145.419 39.1008 145.306 38.7061 145.317 38.1597L145.345 36.6715L144.605 37.9298C143.778 39.3357 142.637 39.9903 141.014 39.9903L141.013 39.9917ZM142.039 34.2816C140.44 34.2816 139.485 35.0636 139.485 36.3735C139.485 37.523 140.332 38.265 141.643 38.265C143.55 38.265 144.8 36.9644 144.827 34.9519V34.2816H142.04H142.039Z" fill="black"/>
<path d="M149.417 39.8413V27.798H151.69L152.111 30.4758L152.649 29.5269C153.134 28.6717 153.884 27.7973 155.771 27.7973H155.944V30.1743H155.024C153.031 30.1743 151.933 31.5128 151.933 33.9443V39.8406H149.417V39.8413Z" fill="black"/>
<path d="M161.363 39.9917C159.867 39.9917 158.584 39.4238 157.652 38.3488C156.687 37.2351 156.176 35.6602 156.176 33.7946C156.176 31.9289 156.685 30.4178 157.649 29.3027C158.573 28.2356 159.883 27.6476 161.339 27.6476C162.742 27.6476 163.887 28.199 164.65 29.2425L165.34 30.1843V23.1399H167.856V39.8413H165.69L165.261 37.5023L164.742 38.2242C163.898 39.3966 162.761 39.9917 161.363 39.9917ZM162.085 29.6987C160.097 29.6987 158.762 31.3545 158.762 33.8189C158.762 36.2833 160.097 37.9391 162.085 37.9391C164.074 37.9391 165.386 36.2933 165.386 33.8433C165.386 31.3932 164.059 29.698 162.085 29.698V29.6987Z" fill="black"/>
<path d="M174.126 39.9917C171.142 39.9917 169.151 38.6231 168.819 36.3879H171.196C171.491 37.5717 172.589 38.2908 174.15 38.2908C176.497 38.2908 176.751 37.0382 176.751 36.4989C176.751 35.1231 175.668 34.9698 173.874 34.7156L173.664 34.6855C172.494 34.5387 171.181 34.3145 170.272 33.7595C169.427 33.2431 169.033 32.4983 169.033 31.4147C169.033 30.3311 169.466 29.3643 170.285 28.6889C171.131 27.9906 172.324 27.6218 173.732 27.6218H173.798C175.321 27.6218 176.61 27.9749 177.528 28.6431C178.309 29.2117 178.799 30.0031 178.961 30.9506H176.566C176.291 29.9344 175.293 29.2977 173.917 29.2977C172.394 29.2977 171.41 29.9809 171.41 31.0394C171.41 31.6589 171.724 32.0972 172.345 32.3436C172.83 32.5362 173.494 32.6222 174.333 32.731L174.508 32.754C177.403 33.0705 179.198 33.7609 179.198 36.2232C179.198 37.3254 178.728 38.2628 177.84 38.9332C176.924 39.625 175.64 39.991 174.128 39.991L174.126 39.9917Z" fill="black"/>
</g>
<g opacity="0.7">
<rect x="41.7504" y="84.4024" width="46.273" height="34.914" rx="5.34434" fill="#232121" fill-opacity="0.22" stroke="#232121" stroke-width="1.1423"/>
<path d="M41.9189 94.9234H54.5194C56.1529 94.9234 57.4771 96.2477 57.4771 97.8812V103.612M57.4771 119.177V112.3M57.4771 112.3V103.612M57.4771 112.3H41.9189M57.4771 103.612H41.9189" stroke="#232121" stroke-width="1.1423"/>
<path d="M87.855 94.9228H73.0377M73.0377 94.9228V103.611M73.0377 94.9228V84.5707M73.0377 119.176V112.3M73.0377 112.3V103.611M73.0377 112.3H87.855M73.0377 103.611H87.855" stroke="#232121" stroke-width="1.1423"/>
</g>
<g clip-path="url(#clip2_4236_1660)">
<mask id="mask0_4236_1660" style="mask-type:luminance" maskUnits="userSpaceOnUse" x="259" y="188" width="100" height="32">
<path d="M310.863 198.23C310.806 202.688 314.835 205.175 317.87 206.654C320.989 208.172 322.036 209.145 322.024 210.502C322 212.579 319.537 213.495 317.231 213.531C313.207 213.593 310.869 212.445 309.009 211.576L307.56 218.357C309.425 219.217 312.88 219.967 316.463 220C324.872 220 330.374 215.849 330.404 209.413C330.436 201.245 319.105 200.792 319.183 197.141C319.209 196.034 320.266 194.853 322.581 194.552C323.726 194.401 326.889 194.285 330.475 195.936L331.883 189.375C329.954 188.672 327.476 188 324.39 188C316.475 188 310.907 192.208 310.863 198.23ZM345.407 188.565C343.871 188.565 342.577 189.461 342 190.836L329.987 219.518H338.39L340.063 214.897H350.332L351.302 219.518H358.708L352.245 188.565H345.407ZM346.582 196.927L349.007 208.55H342.366L346.582 196.927ZM300.674 188.565L294.05 219.518H302.058L308.679 188.565H300.674ZM288.828 188.565L280.493 209.633L277.122 191.72C276.726 189.72 275.164 188.565 273.429 188.565H259.804L259.613 189.464C262.41 190.071 265.588 191.05 267.514 192.097C268.692 192.737 269.028 193.297 269.415 194.817L275.801 219.518H284.263L297.237 188.565H288.828Z" fill="white"/>
</mask>
<g mask="url(#mask0_4236_1660)">
<path d="M249.236 191.822L346.874 155.864L369.086 216.179L271.449 252.137" fill="url(#paint1_linear_4236_1660)"/>
</g>
</g>
</g>
<defs>
<linearGradient id="paint0_linear_4236_1660" x1="380" y1="-3.5724e-05" x2="0.419582" y2="240.662" gradientUnits="userSpaceOnUse">
<stop stop-color="#ECECEC"/>
<stop offset="0.805613" stop-color="#D2D2D2"/>
</linearGradient>
<linearGradient id="paint1_linear_4236_1660" x1="268.59" y1="219.027" x2="352.105" y2="188.27" gradientUnits="userSpaceOnUse">
<stop stop-color="#151C28"/>
<stop offset="1" stop-color="#3D444F"/>
</linearGradient>
<clipPath id="clip0_4236_1660">
<rect width="380" height="240" rx="16.2254" fill="white"/>
</clipPath>
<clipPath id="clip1_4236_1660">
<rect width="159" height="24" fill="white" transform="translate(20.1973 21)"/>
</clipPath>
<clipPath id="clip2_4236_1660">
<rect width="99.0947" height="32" fill="white" transform="translate(259.613 188)"/>
</clipPath>
</defs>
</svg>
