<svg width="380" height="240" viewBox="0 0 380 240" fill="none" xmlns="http://www.w3.org/2000/svg">
<g clip-path="url(#clip0_4236_1543)">
<rect width="380" height="240" rx="16.2254" fill="url(#paint0_linear_4236_1543)"/>
<path d="M16.9926 243.953C11.2042 243.953 6.16197 242.868 2.00455 240.729C-2.11023 238.601 -5.30825 235.548 -7.49356 231.654C-9.71086 227.696 -10.8408 223.004 -10.8408 217.727C-10.8408 212.343 -9.7535 207.619 -7.60017 203.672C-5.5108 199.842 -2.57928 196.831 1.09844 194.714L1.4289 194.533C5.27718 192.373 9.83968 191.288 14.9885 191.288C20.1373 191.288 24.849 192.32 28.8039 194.352C32.7162 196.373 35.8182 199.235 38.0035 202.885C40.2102 206.555 41.3615 210.949 41.4254 215.939C41.4254 217.195 41.3615 218.365 41.2229 219.429H1.51418V221.589C1.89794 225.898 3.32639 229.377 5.76755 231.909C8.27266 234.495 11.6839 235.803 15.9266 235.803C19.2738 235.803 22.1201 235.048 24.38 233.569C26.3841 232.271 27.8232 230.409 28.6547 228.047H40.2208C39.5599 230.675 38.4086 233.101 36.7776 235.25C34.7522 237.921 32.0339 240.07 28.6973 241.623C25.3394 243.176 21.4058 243.974 16.9926 243.974V243.953ZM15.6281 199.246C11.9184 199.246 8.97623 200.257 6.38583 202.438C3.84874 204.587 2.32435 207.481 1.86596 211.056L1.63144 212.854H29.9659L29.6994 211.024C29.1983 207.598 27.8339 204.842 25.6485 202.831V202.8L25.0622 202.31C22.5784 200.278 19.4018 199.246 15.6388 199.246H15.6281Z" fill="white" fill-opacity="0.12"/>
<path d="M65.0279 243.954C59.3461 243.954 54.7409 242.645 51.3297 240.081C48.0144 237.581 46.4048 234.123 46.4048 229.505C46.4048 224.185 48.2916 220.206 52.1612 217.355C56.1268 214.429 62.0538 212.939 69.7823 212.939H82.1693V208.684C82.1693 205.715 81.0393 203.311 78.8114 201.534C76.6794 199.853 73.8544 199.012 70.4112 199.012C67.3411 199.012 64.7614 199.715 62.736 201.108C61.0091 202.3 59.8258 203.843 59.2182 205.705H47.8972C48.6541 201.406 50.7861 198.097 54.3892 195.597C58.5466 192.714 64.1858 191.256 71.1468 191.256C78.1078 191.256 84.1307 192.895 87.9683 196.001C91.806 199.108 93.6715 203.534 93.6715 209.524V228.75C93.6715 230.59 94.1192 231.888 95.0466 232.708C95.9314 233.474 97.1786 233.857 98.7563 233.857H98.8523V243.305H92.84C89.642 243.305 87.3501 242.613 86.0069 241.241C84.8663 240.07 84.3333 238.357 84.3866 236.017L84.5252 230.271L81.4337 235.123C79.5682 238.049 77.3723 240.198 74.6966 241.698C72.0529 243.188 68.8016 243.943 65.0066 243.943L65.0279 243.954ZM69.6757 219.727C66.2645 219.727 63.5142 220.451 61.5101 221.887C59.3354 223.43 58.2375 225.632 58.2375 228.431C58.2375 230.814 59.1969 232.825 61.0197 234.25C62.7467 235.602 65.0599 236.293 67.8848 236.293C72.1915 236.293 75.6666 235.016 78.2144 232.495C80.7728 229.963 82.1053 226.579 82.1693 222.419V219.727H69.665H69.6757Z" fill="white" fill-opacity="0.12"/>
<path d="M126.056 243.953C121.515 243.953 117.56 242.9 113.967 240.73C110.418 238.58 107.614 235.495 105.631 231.548C103.595 227.547 102.572 222.813 102.572 217.493C102.572 212.173 103.574 207.641 105.631 203.619C107.646 199.682 110.471 196.618 114.031 194.501C117.656 192.33 121.632 191.277 126.173 191.277C132.772 191.277 137.718 193.511 141.31 198.108L144.167 201.768V172.158H155.893V243.315H145.798L143.879 233.59L141.726 236.41C137.846 241.485 132.718 243.953 126.056 243.953ZM129.563 200.299C125.054 200.299 121.376 201.959 118.647 205.236C115.982 208.396 114.628 212.567 114.628 217.631C114.628 222.696 115.982 226.824 118.647 230.005C121.387 233.282 125.064 234.931 129.552 234.931C134.04 234.931 137.697 233.293 140.415 230.069C143.048 226.909 144.391 222.77 144.391 217.738C144.391 212.705 143.059 208.417 140.426 205.236C137.729 201.959 134.072 200.299 129.563 200.299Z" fill="white" fill-opacity="0.12"/>
<path d="M163.067 243.315V191.915H174.793V243.325H163.067V243.315ZM168.994 182.904C166.936 182.904 165.284 182.255 163.92 180.914C162.566 179.584 161.905 177.967 161.905 175.988C161.905 174.009 162.555 172.424 163.898 171.147C165.263 169.838 166.936 169.2 168.994 169.2C171.051 169.2 172.682 169.828 174.004 171.126C175.326 172.424 175.965 174.02 175.965 175.988C175.965 177.956 175.315 179.584 173.993 180.925C172.671 182.255 171.03 182.904 168.994 182.904Z" fill="white" fill-opacity="0.12"/>
<path d="M183.033 243.336V191.916H193.139L194.93 200.757L197.062 198.129C198.81 195.98 200.942 194.278 203.405 193.086C205.867 191.884 208.98 191.277 212.657 191.277C218.627 191.277 223.381 193.075 227.198 196.778C230.95 200.406 232.848 206.63 232.848 215.291V216.887H232.88V243.326H221.154V216.131C221.154 203.14 214.299 200.417 208.543 200.417C204.172 200.417 200.729 201.938 198.298 204.938C195.964 207.832 194.77 211.886 194.77 216.993V243.336H183.044H183.033Z" fill="white" fill-opacity="0.12"/>
<path d="M264.935 265.2C257.622 265.2 251.674 263.583 247.25 260.401C243.327 257.571 241.088 253.784 240.438 248.847H252.537C253.432 251.294 254.925 253.23 256.993 254.635C259.338 256.231 262.398 257.039 266.097 257.039C270.712 257.039 274.39 255.827 277.013 253.443C279.678 251.007 281.021 247.432 281.021 242.814V232.451L278.164 236.09C274.507 240.75 269.412 243.017 262.589 243.017C258.038 243.017 254.083 241.974 250.49 239.835C246.941 237.707 244.137 234.696 242.154 230.866C240.129 226.972 239.095 222.344 239.095 217.099C239.095 211.853 240.097 207.364 242.154 203.395C244.18 199.458 246.93 196.501 250.554 194.362C254.157 192.255 258.24 191.181 262.707 191.181C269.359 191.181 274.486 193.681 278.366 198.831L280.605 201.799L282.268 191.926H292.438V243.325C292.427 250.06 290.274 255.273 285.871 259.231C281.468 263.189 274.422 265.2 264.924 265.2H264.935ZM266.075 200.086C261.566 200.086 257.899 201.725 255.17 204.97C252.505 208.14 251.151 212.258 251.151 217.205C251.151 222.152 252.505 226.27 255.181 229.387C257.91 232.579 261.577 234.196 266.075 234.196C270.574 234.196 274.209 232.579 276.927 229.387C279.571 226.259 280.903 222.195 280.903 217.301C280.903 212.407 279.571 208.225 276.938 205.033C274.23 201.757 270.574 200.097 266.065 200.097L266.075 200.086Z" fill="white" fill-opacity="0.12"/>
<path d="M333.563 243.985C326.463 243.985 320.238 242.485 315.035 239.517C309.865 236.569 305.836 232.346 303.064 226.962C300.271 221.536 298.854 215.078 298.854 207.779C298.854 200.48 300.271 194.022 303.064 188.596C305.846 183.191 309.876 178.967 315.035 176.02L315.846 175.562V175.541C320.877 172.871 326.836 171.519 333.563 171.519C339.074 171.519 344.073 172.605 348.412 174.754C352.729 176.903 356.269 179.935 358.912 183.787C361.257 187.202 362.793 191.139 363.496 195.522H350.693C349.595 191.5 347.581 188.255 344.692 185.861C341.494 183.191 337.464 181.829 332.72 181.829C326.292 181.829 321.133 184.287 317.381 189.149C313.724 193.862 311.869 200.129 311.869 207.758C311.869 215.386 313.671 221.493 317.381 226.302C321.133 231.186 326.292 233.665 332.72 233.665C337.464 233.665 341.494 232.314 344.702 229.632C347.602 227.217 349.606 223.972 350.704 219.972H363.507C362.803 224.377 361.268 228.313 358.934 231.707C356.247 235.591 352.719 238.633 348.433 240.74C344.073 242.889 339.074 243.974 333.584 243.974L333.563 243.985Z" fill="white" fill-opacity="0.12"/>
<path d="M386.129 243.953C380.448 243.953 375.843 242.645 372.431 240.081C369.116 237.58 367.506 234.122 367.506 229.505C367.506 224.185 369.393 220.206 373.263 217.355C377.228 214.429 383.155 212.939 390.884 212.939H403.271V208.683C403.271 205.715 402.141 203.31 399.913 201.534C397.781 199.853 394.956 199.001 391.513 199.001C388.443 199.001 385.863 199.704 383.838 201.097C382.111 202.289 380.927 203.832 380.32 205.694H368.999C369.756 201.395 371.888 198.086 375.491 195.586C379.648 192.703 385.287 191.245 392.248 191.245C399.209 191.245 405.232 192.884 409.07 195.99C412.908 199.097 414.773 203.523 414.773 209.513V228.739C414.773 230.58 415.221 231.878 416.148 232.697C417.044 233.463 418.28 233.846 419.858 233.846H419.954V243.294H413.942C410.744 243.294 408.452 242.602 407.108 241.23C405.968 240.059 405.435 238.346 405.488 236.006L405.627 230.26L402.535 235.112C400.67 238.038 398.474 240.187 395.798 241.687C393.165 243.177 389.903 243.932 386.108 243.932L386.129 243.953ZM390.767 219.727C387.302 219.727 384.637 220.44 382.59 221.887C380.416 223.43 379.318 225.632 379.318 228.43C379.318 230.814 380.277 232.824 382.1 234.25C383.827 235.601 386.14 236.293 388.965 236.293C393.272 236.293 396.747 235.016 399.295 232.495C401.853 229.962 403.186 226.579 403.25 222.419V219.727H390.745H390.767Z" fill="white" fill-opacity="0.12"/>
<g clip-path="url(#clip1_4236_1543)">
<path d="M35.5553 40.8413L32.2693 35.061L28.7764 28.9126L30.4194 26.0185L32.7043 22L35.8749 27.584L34.5542 29.9088L32.7043 26.6544L31.4205 28.9118L33.376 32.3531L36.876 38.5144H39.4365L37.9409 35.8717L39.2615 33.547L43.4063 40.842H35.5553V40.8413Z" fill="black"/>
<path d="M22 40.8413L27.5023 31.1592L28.8229 33.4839L27.6397 35.5702L25.9648 38.5115H31.6761L32.9996 40.8413H22Z" fill="black"/>
<path d="M48.5449 40.8413V24.1399H51.2713V38.4392H57.7534V40.8413H48.5449Z" fill="black"/>
<path d="M64.0798 40.9917C62.2384 40.9917 60.7095 40.4137 59.6588 39.3208C58.6236 38.2451 58.0767 36.6967 58.0767 34.8447C58.0767 31.0804 60.3418 28.6476 63.8467 28.6476C67.2518 28.6476 69.4801 30.915 69.5233 34.4243C69.5233 34.6979 69.5098 34.9629 69.4836 35.2064H60.7328V35.813C60.8108 37.834 62.0691 39.1403 63.9403 39.1403C65.3544 39.1403 66.3669 38.4786 66.7665 37.3119H69.2463C69.0025 38.2738 68.4719 39.1318 67.7215 39.7649C66.7707 40.567 65.5117 40.991 64.0805 40.991L64.0798 40.9917ZM63.8701 30.4488C62.2179 30.4488 61.0148 31.5538 60.8065 33.2634L60.7491 33.7317H67.0499L66.979 33.2526C66.7197 31.4972 65.5571 30.4495 63.8701 30.4495V30.4488Z" fill="black"/>
<path d="M74.5451 40.9917C73.3229 40.9917 72.2977 40.6852 71.58 40.1043C70.8488 39.5128 70.4775 38.6784 70.4775 37.6242C70.4775 36.3974 70.897 35.4449 71.7245 34.7938C72.5995 34.1056 73.901 33.7561 75.5944 33.7561H78.3583V32.7155C78.3583 31.286 77.3883 30.3979 75.8275 30.3979C74.5295 30.3979 73.5546 31.006 73.2421 31.9757H70.8233C71.2477 29.9381 73.1947 28.6469 75.921 28.6469C78.1599 28.6469 80.8281 29.3874 80.8281 32.9153V37.4731C80.8281 38.5423 81.436 38.6863 81.9709 38.6884V40.8399H80.6779C79.9793 40.8399 79.4798 40.6802 79.1929 40.3665C78.9506 40.1008 78.8379 39.7061 78.8485 39.1597L78.8769 37.6715L78.1365 38.9298C77.3097 40.3357 76.169 40.9903 74.5451 40.9903V40.9917ZM75.571 35.2816C73.9719 35.2816 73.0168 36.0636 73.0168 37.3735C73.0168 38.523 73.8635 39.265 75.1749 39.265C77.0822 39.265 78.332 37.9644 78.359 35.9519V35.2816H75.5717H75.571Z" fill="black"/>
<path d="M87.3369 40.9917C85.8412 40.9917 84.5581 40.4238 83.6264 39.3488C82.6607 38.2351 82.1499 36.6602 82.1499 34.7946C82.1499 32.9289 82.6593 31.4178 83.6236 30.3027C84.5468 29.2356 85.8568 28.6476 87.3135 28.6476C88.7163 28.6476 89.8613 29.199 90.6243 30.2425L91.3137 31.1843V24.1399H93.8296V40.8413H91.6644L91.2351 38.5023L90.7157 39.2242C89.8719 40.3966 88.7355 40.9917 87.3369 40.9917ZM88.0596 30.6987C86.0715 30.6987 84.7359 32.3545 84.7359 34.8189C84.7359 37.2833 86.0715 38.9391 88.0596 38.9391C90.0476 38.9391 91.3598 37.2933 91.3598 34.8433C91.3598 32.3639 90.0334 30.698 88.0596 30.698V30.6987Z" fill="black"/>
<path d="M95.1671 40.8413V28.798H97.7064V40.8413H95.1671ZM96.4368 26.5921C95.5667 26.5921 94.9106 25.9196 94.9106 25.028C94.9106 24.122 95.5667 23.4388 96.4368 23.4388C97.3068 23.4388 97.9629 24.122 97.9629 25.028C97.9629 25.9196 97.3068 26.5921 96.4368 26.5921Z" fill="black"/>
<path d="M107.486 40.8413V34.4694C107.486 32.7613 106.999 30.7245 104.676 30.7245C102.755 30.7245 101.609 32.1991 101.609 34.67V40.842H99.0928V28.7987H101.259L101.66 30.9207L102.175 30.2511C103.014 29.1582 104.098 28.649 105.585 28.649C109.236 28.649 110.002 31.624 110.002 34.1199V40.8427H107.486V40.8413Z" fill="black"/>
<path d="M116.819 46C115.235 46 113.902 45.6168 112.964 44.8913C112.121 44.2396 111.617 43.3422 111.463 42.2207H114.066C114.496 43.4676 115.554 44.1486 117.076 44.1486C119.188 44.1486 120.4 42.9118 120.4 40.7547V38.2108L119.712 39.1461C118.92 40.2218 117.79 40.7668 116.353 40.7668H116.306C114.827 40.7668 113.555 40.2046 112.627 39.1411C111.672 38.0453 111.167 36.5077 111.167 34.695C111.167 32.8824 111.676 31.3626 112.639 30.2611C113.562 29.2048 114.873 28.6232 116.33 28.6232C117.787 28.6232 118.918 29.2248 119.753 30.4123L120.292 31.1786L120.667 28.7987H122.846V40.8807C122.846 44.2303 120.763 46.0007 116.82 46.0007L116.819 46ZM117.075 30.6486C115.087 30.6486 113.752 32.2844 113.752 34.7194C113.752 37.1544 115.087 38.7651 117.075 38.7651C119.064 38.7651 120.376 37.1494 120.376 34.7444C120.376 32.3395 119.049 30.6486 117.075 30.6486Z" fill="black"/>
<path d="M131.403 40.9917C126.837 40.9917 124.001 37.7345 124.001 32.4906C124.001 29.9424 124.706 27.8017 126.039 26.2999C127.381 24.7888 129.308 23.9895 131.612 23.9895C135.083 23.9895 137.618 26.1638 138.184 29.5721H135.385C134.835 27.5425 133.375 26.3414 131.426 26.3414C130.016 26.3414 128.832 26.9502 128.003 28.1018C127.214 29.1962 126.797 30.7137 126.797 32.4906C126.797 34.2674 127.208 35.7714 127.986 36.8672C128.81 38.0267 129.983 38.639 131.379 38.639C133.356 38.639 134.833 37.4387 135.385 35.4083H138.163C137.907 36.9811 137.2 38.3232 136.104 39.3094C134.88 40.4094 133.255 40.991 131.402 40.991L131.403 40.9917Z" fill="black"/>
<path d="M142.816 40.9917C141.594 40.9917 140.569 40.6852 139.851 40.1043C139.12 39.5128 138.749 38.6784 138.749 37.6242C138.749 36.3974 139.168 35.4449 139.996 34.7938C140.871 34.1056 142.172 33.7561 143.865 33.7561H146.629V32.7155C146.629 31.286 145.659 30.3979 144.098 30.3979C142.801 30.3979 141.826 31.006 141.513 31.9757H139.094C139.519 29.9381 141.466 28.6469 144.192 28.6469C146.431 28.6469 149.099 29.3874 149.099 32.9153V37.4731C149.099 38.5423 149.707 38.6863 150.242 38.6884V40.8399H148.949C148.25 40.8399 147.751 40.6802 147.464 40.3665C147.222 40.1008 147.109 39.7061 147.12 39.1597L147.148 37.6715L146.407 38.9298C145.581 40.3357 144.44 40.9903 142.817 40.9903L142.816 40.9917ZM143.842 35.2816C142.243 35.2816 141.288 36.0636 141.288 37.3735C141.288 38.523 142.134 39.265 143.446 39.265C145.353 39.265 146.603 37.9644 146.63 35.9519V35.2816H143.843H143.842Z" fill="black"/>
<path d="M151.22 40.8413V28.798H153.493L153.914 31.4758L154.452 30.5269C154.936 29.6717 155.687 28.7973 157.573 28.7973H157.747V31.1743H156.827C154.834 31.1743 153.736 32.5128 153.736 34.9443V40.8406H151.22V40.8413Z" fill="black"/>
<path d="M163.165 40.9917C161.67 40.9917 160.387 40.4238 159.455 39.3488C158.489 38.2351 157.979 36.6602 157.979 34.7946C157.979 32.9289 158.488 31.4178 159.452 30.3027C160.375 29.2356 161.685 28.6476 163.142 28.6476C164.545 28.6476 165.69 29.199 166.453 30.2425L167.142 31.1843V24.1399H169.658V40.8413H167.493L167.064 38.5023L166.544 39.2242C165.701 40.3966 164.564 40.9917 163.165 40.9917ZM163.888 30.6987C161.9 30.6987 160.565 32.3545 160.565 34.8189C160.565 37.2833 161.9 38.9391 163.888 38.9391C165.876 38.9391 167.188 37.2933 167.188 34.8433C167.188 32.3932 165.862 30.698 163.888 30.698V30.6987Z" fill="black"/>
<path d="M175.929 40.9917C172.945 40.9917 170.954 39.6231 170.622 37.3879H172.999C173.294 38.5717 174.392 39.2908 175.952 39.2908C178.3 39.2908 178.553 38.0382 178.553 37.4989C178.553 36.1231 177.471 35.9698 175.677 35.7156L175.467 35.6855C174.297 35.5387 172.984 35.3145 172.075 34.7595C171.229 34.2431 170.836 33.4983 170.836 32.4147C170.836 31.3311 171.268 30.3643 172.087 29.6889C172.934 28.9906 174.127 28.6218 175.535 28.6218H175.6C177.124 28.6218 178.412 28.9749 179.331 29.6431C180.112 30.2117 180.602 31.0031 180.764 31.9506H178.369C178.094 30.9344 177.096 30.2977 175.72 30.2977C174.197 30.2977 173.213 30.9809 173.213 32.0394C173.213 32.6589 173.527 33.0972 174.148 33.3436C174.633 33.5362 175.296 33.6222 176.136 33.731L176.311 33.754C179.206 34.0705 181 34.7609 181 37.2232C181 38.3254 180.531 39.2628 179.643 39.9332C178.727 40.625 177.442 40.991 175.93 40.991L175.929 40.9917Z" fill="black"/>
</g>
<g opacity="0.7">
<rect x="41.5018" y="84.4024" width="46.273" height="34.914" rx="5.34434" fill="#2D3935" fill-opacity="0.22" stroke="#2D3935" stroke-width="1.1423"/>
<path d="M41.6699 94.9235H54.2703C55.9039 94.9235 57.2281 96.2477 57.2281 97.8812V103.612M57.2281 119.177V112.3M57.2281 112.3V103.612M57.2281 112.3H41.6699M57.2281 103.612H41.6699" stroke="#2D3935" stroke-width="1.1423"/>
<path d="M87.6064 94.9229H72.7892M72.7892 94.9229V103.611M72.7892 94.9229V84.5708M72.7892 119.176V112.3M72.7892 112.3V103.611M72.7892 112.3H87.6064M72.7892 103.611H87.6064" stroke="#2D3935" stroke-width="1.1423"/>
</g>
<g clip-path="url(#clip2_4236_1543)">
<foreignObject x="241.974" y="118.117" width="118.058" height="118.058"><div xmlns="http://www.w3.org/1999/xhtml" style="backdrop-filter:blur(16.9px);clip-path:url(#bgblur_3_4236_1543_clip_path);height:100%;width:100%"></div></foreignObject><ellipse data-figma-bg-blur-radius="33.8028" cx="301.002" cy="177.146" rx="25.226" ry="25.226" fill="#2D3935" fill-opacity="0.4"/>
<foreignObject x="273.254" y="118.117" width="118.058" height="118.058"><div xmlns="http://www.w3.org/1999/xhtml" style="backdrop-filter:blur(16.9px);clip-path:url(#bgblur_4_4236_1543_clip_path);height:100%;width:100%"></div></foreignObject><path data-figma-bg-blur-radius="33.8028" d="M357.509 177.146C357.509 191.078 346.215 202.372 332.283 202.372C318.351 202.372 307.057 191.078 307.057 177.146C307.057 163.214 318.351 151.92 332.283 151.92C346.215 151.92 357.509 163.214 357.509 177.146Z" fill="#2D3935" fill-opacity="0.7"/>
<foreignObject x="273.254" y="123.549" width="86.7775" height="107.193"><div xmlns="http://www.w3.org/1999/xhtml" style="backdrop-filter:blur(16.9px);clip-path:url(#bgblur_5_4236_1543_clip_path);height:100%;width:100%"></div></foreignObject><path data-figma-bg-blur-radius="33.8028" d="M316.643 157.352C310.803 161.972 307.057 169.121 307.057 177.145C307.057 185.169 310.803 192.319 316.643 196.939C322.482 192.319 326.228 185.169 326.228 177.145C326.228 169.121 322.482 161.972 316.643 157.352Z" fill="#2D3935" fill-opacity="0.6"/>
</g>
<path d="M281.99 216.473V208.645H283.181V209.915H283.21C283.58 209.08 284.415 208.572 285.432 208.572C286.492 208.572 287.284 209.109 287.625 210.053H287.654C288.097 209.124 289.02 208.572 290.116 208.572C291.663 208.572 292.665 209.574 292.665 211.128V216.473H291.402V211.419C291.402 210.337 290.799 209.698 289.753 209.698C288.707 209.698 287.959 210.475 287.959 211.549V216.473H286.696V211.266C286.696 210.322 286.049 209.698 285.069 209.698C284.023 209.698 283.253 210.518 283.253 211.615V216.473H281.99ZM296.907 215.449C298.185 215.449 299.122 214.621 299.122 213.496V212.864L297.074 212.995C295.897 213.067 295.287 213.496 295.287 214.251C295.287 214.977 295.919 215.449 296.907 215.449ZM296.638 216.546C295.047 216.546 293.994 215.631 293.994 214.244C293.994 212.9 295.026 212.109 296.928 211.992L299.122 211.862V211.208C299.122 210.235 298.483 209.698 297.328 209.698C296.42 209.698 295.745 210.162 295.592 210.903H294.379C294.416 209.581 295.701 208.572 297.342 208.572C299.194 208.572 300.385 209.56 300.385 211.099V216.473H299.187V215.115H299.158C298.715 215.987 297.734 216.546 296.638 216.546ZM301.932 210.83C301.932 209.509 303.13 208.579 304.83 208.579C306.42 208.579 307.626 209.531 307.677 210.816H306.464C306.384 210.082 305.745 209.625 304.786 209.625C303.82 209.625 303.174 210.082 303.174 210.765C303.174 211.295 303.595 211.651 304.496 211.876L305.687 212.174C307.27 212.573 307.836 213.125 307.836 214.266C307.836 215.602 306.551 216.546 304.743 216.546C303.058 216.546 301.838 215.631 301.714 214.273H302.985C303.116 215.072 303.762 215.5 304.83 215.5C305.897 215.5 306.565 215.057 306.565 214.353C306.565 213.801 306.239 213.51 305.345 213.278L303.973 212.922C302.6 212.566 301.932 211.876 301.932 210.83ZM309.623 206.88H310.887V208.645H312.412V209.69H310.887V214.389C310.887 215.108 311.192 215.435 311.86 215.435C312.012 215.435 312.317 215.413 312.404 215.398V216.466C312.252 216.502 311.889 216.531 311.591 216.531C310.175 216.531 309.623 215.943 309.623 214.44V209.69H308.534V208.645H309.623V206.88ZM316.718 209.683C315.491 209.683 314.605 210.576 314.518 211.898H318.824C318.795 210.569 317.953 209.683 316.718 209.683ZM318.795 214.237H320.044C319.826 215.58 318.468 216.546 316.798 216.546C314.598 216.546 313.211 215.014 313.211 212.588C313.211 210.162 314.605 208.572 316.74 208.572C318.832 208.572 320.139 210.046 320.139 212.414V212.907H314.518V212.98C314.518 214.469 315.433 215.435 316.827 215.435C317.808 215.435 318.57 214.97 318.795 214.237ZM321.468 216.473V208.645H322.659V209.915H322.688C322.92 209.095 323.668 208.572 324.583 208.572C324.808 208.572 324.997 208.594 325.106 208.615V209.857C325.005 209.821 324.729 209.785 324.416 209.785C323.4 209.785 322.731 210.525 322.731 211.629V216.473H321.468ZM332.296 211.194H331.054C330.894 210.358 330.197 209.698 329.021 209.698C327.655 209.698 326.726 210.83 326.726 212.559C326.726 214.338 327.67 215.42 329.035 215.42C330.124 215.42 330.851 214.912 331.069 213.968H332.31C332.1 215.493 330.814 216.546 329.028 216.546C326.878 216.546 325.44 215.021 325.44 212.559C325.44 210.155 326.871 208.572 329.013 208.572C330.952 208.572 332.136 209.821 332.296 211.194ZM336.08 215.449C337.358 215.449 338.295 214.621 338.295 213.496V212.864L336.247 212.995C335.07 213.067 334.46 213.496 334.46 214.251C334.46 214.977 335.092 215.449 336.08 215.449ZM335.811 216.546C334.22 216.546 333.167 215.631 333.167 214.244C333.167 212.9 334.199 212.109 336.101 211.992L338.295 211.862V211.208C338.295 210.235 337.655 209.698 336.501 209.698C335.593 209.698 334.918 210.162 334.765 210.903H333.552C333.589 209.581 334.874 208.572 336.515 208.572C338.367 208.572 339.558 209.56 339.558 211.099V216.473H338.36V215.115H338.331C337.888 215.987 336.907 216.546 335.811 216.546ZM341.236 216.473V208.645H342.427V209.915H342.456C342.688 209.095 343.436 208.572 344.351 208.572C344.576 208.572 344.765 208.594 344.874 208.615V209.857C344.773 209.821 344.497 209.785 344.184 209.785C343.168 209.785 342.499 210.525 342.499 211.629V216.473H341.236ZM348.563 216.546C346.595 216.546 345.208 214.948 345.208 212.559C345.208 210.17 346.588 208.572 348.534 208.572C349.653 208.572 350.553 209.058 351.033 209.915H351.062V205.536H352.325V216.473H351.12V215.152H351.098C350.59 216.052 349.696 216.546 348.563 216.546ZM348.789 209.698C347.416 209.698 346.501 210.83 346.501 212.559C346.501 214.295 347.416 215.42 348.789 215.42C350.147 215.42 351.069 214.266 351.069 212.559C351.069 210.86 350.147 209.698 348.789 209.698Z" fill="#2D3935"/>
</g>
<defs>
<clipPath id="bgblur_3_4236_1543_clip_path" transform="translate(-241.974 -118.117)"><ellipse cx="301.002" cy="177.146" rx="25.226" ry="25.226"/>
</clipPath><clipPath id="bgblur_4_4236_1543_clip_path" transform="translate(-273.254 -118.117)"><path d="M357.509 177.146C357.509 191.078 346.215 202.372 332.283 202.372C318.351 202.372 307.057 191.078 307.057 177.146C307.057 163.214 318.351 151.92 332.283 151.92C346.215 151.92 357.509 163.214 357.509 177.146Z"/>
</clipPath><clipPath id="bgblur_5_4236_1543_clip_path" transform="translate(-273.254 -123.549)"><path d="M316.643 157.352C310.803 161.972 307.057 169.121 307.057 177.145C307.057 185.169 310.803 192.319 316.643 196.939C322.482 192.319 326.228 185.169 326.228 177.145C326.228 169.121 322.482 161.972 316.643 157.352Z"/>
</clipPath><linearGradient id="paint0_linear_4236_1543" x1="380" y1="-3.5724e-05" x2="0.419582" y2="240.662" gradientUnits="userSpaceOnUse">
<stop stop-color="#A7A6FC"/>
<stop offset="0.805613" stop-color="#AFAEEA"/>
</linearGradient>
<clipPath id="clip0_4236_1543">
<rect width="380" height="240" rx="16.2254" fill="white"/>
</clipPath>
<clipPath id="clip1_4236_1543">
<rect width="159" height="24" fill="white" transform="translate(22 22)"/>
</clipPath>
<clipPath id="clip2_4236_1543">
<rect x="275.827" y="151.872" width="81.8028" height="50.7718" rx="5.40845" fill="white"/>
</clipPath>
</defs>
</svg>
