<svg width="196" height="30" viewBox="0 0 196 30" fill="none" xmlns="http://www.w3.org/2000/svg">
<g clip-path="url(#clip0_3224_747)">
<path d="M16.7093 22.9759L12.6586 15.9268L8.35284 8.42887L10.3782 4.89955L13.1949 -0.000976562L17.1032 6.80875L15.4752 9.64374L13.1949 5.67511L11.6123 8.42799L14.0228 12.6246L18.3373 20.1382H21.4937L19.65 16.9155L21.278 14.0805L26.3872 22.9767H16.7093V22.9759Z" fill="#8C3CFC"/>
<path d="M-0.00012207 22.9761L6.78253 11.1689L8.41051 14.0039L6.95197 16.5481L4.8873 20.135H11.9276L13.5591 22.9761H-0.00012207Z" fill="#8C3CFC"/>
<path d="M32.7219 22.9765V2.60938H36.0827V20.0472H44.0732V22.9765H32.7219Z" fill="black"/>
<path d="M51.8717 23.16C49.6018 23.16 47.717 22.4552 46.4218 21.1224C45.1458 19.8106 44.4716 17.9223 44.4716 15.6638C44.4716 11.0733 47.2637 8.10645 51.5843 8.10645C55.7818 8.10645 58.5286 10.8716 58.5819 15.1511C58.5819 15.4847 58.5653 15.8079 58.5329 16.1048H47.7459V16.8446C47.8419 19.3093 49.393 20.9023 51.6996 20.9023C53.4429 20.9023 54.691 20.0953 55.1835 18.6726H58.2404C57.9399 19.8455 57.2858 20.8918 56.3609 21.6639C55.1888 22.6421 53.6368 23.1591 51.8726 23.1591L51.8717 23.16ZM51.6132 10.303C49.5765 10.303 48.0935 11.6506 47.8367 13.7354L47.7659 14.3066H55.5329L55.4456 13.7223C55.1259 11.5816 53.6927 10.3039 51.6132 10.3039V10.303Z" fill="black"/>
<path d="M64.7724 23.1599C63.2659 23.1599 62.0021 22.7861 61.1173 22.0778C60.216 21.3564 59.7584 20.3389 59.7584 19.0533C59.7584 17.5572 60.2754 16.3956 61.2955 15.6017C62.3741 14.7624 63.9785 14.3361 66.0659 14.3361H69.4729V13.0671C69.4729 11.3239 68.2773 10.2409 66.3532 10.2409C64.7532 10.2409 63.5514 10.9824 63.1663 12.1649H60.1846C60.7077 9.68017 63.1078 8.10547 66.4685 8.10547C69.2284 8.10547 72.5175 9.00854 72.5175 13.3108V18.869C72.5175 20.1729 73.2669 20.3485 73.9263 20.3511V22.9747H72.3324C71.4712 22.9747 70.8555 22.78 70.5018 22.3974C70.2031 22.0734 70.0642 21.5922 70.0773 20.9258L70.1123 19.1109L69.1996 20.6454C68.1803 22.3599 66.7742 23.1581 64.7724 23.1581V23.1599ZM66.0371 16.1964C64.0659 16.1964 62.8886 17.1502 62.8886 18.7476C62.8886 20.1494 63.9322 21.0542 65.5489 21.0542C67.9 21.0542 69.4406 19.4681 69.4738 17.0139V16.1964H66.038H66.0371Z" fill="black"/>
<path d="M80.541 23.16C78.6973 23.16 77.1156 22.4674 75.9672 21.1564C74.7767 19.7983 74.147 17.8778 74.147 15.6026C74.147 13.3275 74.775 11.4846 75.9637 10.1248C77.1017 8.82346 78.7165 8.10642 80.5122 8.10642C82.2415 8.10642 83.6529 8.77892 84.5935 10.0514L85.4433 11.1999V2.60938H88.5447V22.9765H85.8756L85.3464 20.1241L84.7062 21.0045C83.666 22.4342 82.2651 23.16 80.541 23.16ZM81.4319 10.6078C78.9812 10.6078 77.3349 12.627 77.3349 15.6323C77.3349 18.6376 78.9812 20.6569 81.4319 20.6569C83.8826 20.6569 85.5001 18.6498 85.5001 15.662C85.5001 12.6384 83.8651 10.6069 81.4319 10.6069V10.6078Z" fill="black"/>
<path d="M90.1935 22.9761V8.28939H93.3237V22.9761H90.1935ZM91.7586 5.59939C90.6861 5.59939 89.8774 4.77929 89.8774 3.69193C89.8774 2.58711 90.6861 1.75391 91.7586 1.75391C92.8311 1.75391 93.6399 2.58711 93.6399 3.69193C93.6399 4.77929 92.8311 5.59939 91.7586 5.59939Z" fill="black"/>
<path d="M105.379 22.9758V15.2054C105.379 13.1224 104.778 10.6385 101.915 10.6385C99.5468 10.6385 98.1337 12.4368 98.1337 15.4499V22.9767H95.0323V8.28996H97.7031L98.1974 10.8778L98.8315 10.0612C99.8664 8.72839 101.203 8.10742 103.035 8.10742C107.536 8.10742 108.481 11.7354 108.481 14.7792V22.9776H105.379V22.9758Z" fill="black"/>
<path d="M116.883 29.2669C114.931 29.2669 113.288 28.7997 112.131 27.915C111.092 27.1202 110.471 26.0258 110.282 24.6581H113.489C114.02 26.1787 115.324 27.0093 117.2 27.0093C119.804 27.0093 121.297 25.5009 121.297 22.8703V19.7681L120.449 20.9087C119.474 22.2205 118.081 22.8852 116.31 22.8852H116.251C114.428 22.8852 112.86 22.1996 111.716 20.9026C110.538 19.5663 109.916 17.6912 109.916 15.4807C109.916 13.2702 110.544 11.4168 111.73 10.0736C112.868 8.78535 114.485 8.07617 116.281 8.07617C118.076 8.07617 119.471 8.80981 120.5 10.2579L121.165 11.1924L121.627 8.29015H124.313V23.024C124.313 27.1088 121.745 29.2678 116.884 29.2678L116.883 29.2669ZM117.2 10.5461C114.749 10.5461 113.103 12.5409 113.103 15.5104C113.103 18.4799 114.749 20.4441 117.2 20.4441C119.65 20.4441 121.268 18.4737 121.268 15.5409C121.268 12.6081 119.633 10.5461 117.2 10.5461Z" fill="black"/>
<path d="M134.861 23.1598C129.233 23.1598 125.737 19.1877 125.737 12.7928C125.737 9.6853 126.606 7.07477 128.249 5.2433C129.904 3.40047 132.279 2.42578 135.119 2.42578C139.398 2.42578 142.523 5.07736 143.22 9.23376H139.769C139.091 6.75861 137.291 5.29395 134.89 5.29395C133.152 5.29395 131.692 6.03633 130.669 7.44072C129.697 8.77524 129.183 10.6259 129.183 12.7928C129.183 14.9596 129.69 16.7937 130.649 18.13C131.664 19.544 133.111 20.2907 134.832 20.2907C137.269 20.2907 139.09 18.8269 139.769 16.3509H143.194C142.878 18.2689 142.008 19.9056 140.656 21.1082C139.147 22.4497 137.144 23.1589 134.86 23.1589L134.861 23.1598Z" fill="black"/>
<path d="M148.93 23.1599C147.424 23.1599 146.16 22.7861 145.275 22.0778C144.374 21.3564 143.916 20.3389 143.916 19.0533C143.916 17.5572 144.433 16.3956 145.453 15.6017C146.532 14.7624 148.136 14.3361 150.224 14.3361H153.631V13.0671C153.631 11.3239 152.435 10.2409 150.511 10.2409C148.912 10.2409 147.709 10.9824 147.324 12.1649H144.342C144.866 9.68017 147.266 8.10547 150.626 8.10547C153.386 8.10547 156.675 9.00854 156.675 13.3108V18.869C156.675 20.1729 157.425 20.3485 158.084 20.3511V22.9747H156.49C155.629 22.9747 155.013 22.78 154.66 22.3974C154.361 22.0734 154.222 21.5922 154.235 20.9258L154.27 19.1109L153.357 20.6454C152.338 22.3599 150.932 23.1581 148.931 23.1581L148.93 23.1599ZM150.195 16.1964C148.224 16.1964 147.046 17.1502 147.046 18.7476C147.046 20.1494 148.09 21.0542 149.707 21.0542C152.058 21.0542 153.599 19.4681 153.632 17.0139V16.1964H150.196H150.195Z" fill="black"/>
<path d="M159.29 22.9757V8.28896H162.092L162.611 11.5545L163.274 10.3973C163.871 9.35448 164.796 8.28809 167.122 8.28809H167.336V11.1868H166.201C163.744 11.1868 162.392 12.8192 162.392 15.7843V22.9748H159.29V22.9757Z" fill="black"/>
<path d="M174.015 23.16C172.171 23.16 170.59 22.4674 169.441 21.1564C168.251 19.7983 167.621 17.8778 167.621 15.6026C167.621 13.3275 168.249 11.4846 169.438 10.1248C170.576 8.82346 172.191 8.10642 173.986 8.10642C175.716 8.10642 177.127 8.77892 178.068 10.0514L178.917 11.1999V2.60938H182.019V22.9765H179.35L178.82 20.1241L178.18 21.0045C177.14 22.4342 175.739 23.16 174.015 23.16ZM174.906 10.6078C172.455 10.6078 170.809 12.627 170.809 15.6323C170.809 18.6376 172.455 20.6569 174.906 20.6569C177.357 20.6569 178.974 18.6498 178.974 15.662C178.974 12.6742 177.339 10.6069 174.906 10.6069V10.6078Z" fill="black"/>
<path d="M189.749 23.1592C186.07 23.1592 183.616 21.4902 183.207 18.7644H186.137C186.501 20.2081 187.854 21.0849 189.778 21.0849C192.671 21.0849 192.984 19.5574 192.984 18.8997C192.984 17.222 191.649 17.0351 189.438 16.725L189.18 16.6883C187.737 16.5093 186.118 16.2359 184.998 15.5591C183.956 14.9294 183.47 14.021 183.47 12.6996C183.47 11.3782 184.004 10.1991 185.014 9.37555C186.057 8.52401 187.527 8.07422 189.263 8.07422H189.344C191.222 8.07422 192.81 8.50479 193.942 9.31966C194.905 10.0131 195.509 10.9782 195.709 12.1337H192.757C192.418 10.8944 191.187 10.1179 189.491 10.1179C187.614 10.1179 186.4 10.9511 186.4 12.242C186.4 12.9975 186.788 13.532 187.553 13.8324C188.152 14.0673 188.969 14.1721 190.004 14.3049L190.22 14.3328C193.788 14.7189 196.001 15.5608 196.001 18.5635C196.001 19.9076 195.422 21.0509 194.327 21.8684C193.198 22.712 191.615 23.1583 189.751 23.1583L189.749 23.1592Z" fill="black"/>
</g>
<defs>
<clipPath id="clip0_3224_747">
<rect width="196" height="29.2678" fill="white" transform="translate(0 -0.000976562)"/>
</clipPath>
</defs>
</svg>
