<svg width="109" height="836" viewBox="0 0 109 836" fill="none" xmlns="http://www.w3.org/2000/svg">
<path d="M4.5 0V836" stroke="#371F47"/>
<path d="M107 798H3" stroke="#D4B1EF" stroke-opacity="0.32"/>
<rect width="8" height="8" rx="2" transform="matrix(-1 0 0 1 8 794)" fill="#FBFBFE"/>
<rect x="-0.5" y="0.5" width="7" height="7" rx="1.5" transform="matrix(-1 0 0 1 7 794)" stroke="#D4B1EF" stroke-opacity="0.32"/>
<path d="M5 38H109" stroke="#371F47"/>
<rect x="0.5" y="34.5" width="7" height="7" rx="1.5" fill="#180425" stroke="#371F47"/>
<path d="M15 73H18.5" stroke="#805A99"/>
<path d="M15 115H18.5" stroke="#805A99"/>
<path d="M15 159H18.5" stroke="#805A99"/>
<path d="M15 207H18.5" stroke="#805A99"/>
<path d="M15 255H18.5" stroke="#805A99"/>
<path d="M15 304H18.5" stroke="#805A99"/>
<path d="M15 354H18.5" stroke="#805A99"/>
<path d="M15 403H18.5" stroke="#805A99"/>
<path d="M15 453H18.5" stroke="#805A99"/>
<path d="M15 502H18.5" stroke="#805A99"/>
<path d="M15 551H18.5" stroke="#805A99"/>
<path d="M22.4034 72.5852C22.4053 72.1364 22.5237 71.7528 22.7585 71.4347C22.9934 71.1165 23.3352 70.8731 23.7841 70.7045C24.233 70.536 24.7737 70.4517 25.4062 70.4517C26.0369 70.4517 26.5758 70.536 27.0227 70.7045C27.4697 70.875 27.8106 71.1193 28.0455 71.4375C28.2803 71.7576 28.3977 72.1402 28.3977 72.5852C28.3977 73.0303 28.2794 73.4119 28.0426 73.7301C27.8078 74.0483 27.4669 74.2917 27.0199 74.4602C26.5748 74.6307 26.0369 74.7159 25.4062 74.7159C24.7718 74.7159 24.2301 74.6316 23.7812 74.4631C23.3343 74.2945 22.9924 74.0511 22.7557 73.733C22.5208 73.4148 22.4034 73.0322 22.4034 72.5852ZM23.1619 72.5852C23.1619 72.9792 23.3542 73.2869 23.7386 73.5085C24.1231 73.732 24.679 73.8438 25.4062 73.8438C25.8892 73.8438 26.2973 73.7926 26.6307 73.6903C26.9659 73.59 27.2197 73.4451 27.392 73.2557C27.5663 73.0682 27.6534 72.8447 27.6534 72.5852C27.6534 72.1932 27.4602 71.8854 27.0739 71.6619C26.6875 71.4384 26.1316 71.3258 25.4062 71.3239C24.9214 71.3239 24.5114 71.3741 24.1761 71.4744C23.8428 71.5767 23.59 71.7216 23.4176 71.9091C23.2472 72.0966 23.1619 72.322 23.1619 72.5852Z" fill="#805A99"/>
<path d="M22.4205 110.518C22.4205 110.162 22.4886 109.841 22.625 109.557C22.7633 109.275 22.9527 109.05 23.1932 108.881C23.4337 108.713 23.7083 108.623 24.017 108.611V109.464C23.767 109.484 23.5616 109.595 23.4006 109.796C23.2396 109.997 23.1591 110.237 23.1591 110.518C23.1591 110.741 23.2102 110.939 23.3125 111.111C23.4167 111.286 23.5597 111.422 23.7415 111.52C23.9233 111.621 24.1307 111.671 24.3636 111.671C24.6004 111.671 24.8116 111.62 24.9972 111.518C25.1828 111.415 25.3286 111.274 25.4347 111.094C25.5407 110.916 25.5947 110.712 25.5966 110.481C25.5966 110.305 25.5663 110.127 25.5057 109.949C25.4451 109.771 25.3655 109.627 25.267 109.518L25.3864 108.714L28.3182 109.04V112.239H27.5653V109.77L25.9375 109.586V109.62C26.0473 109.734 26.1392 109.884 26.2131 110.072C26.2869 110.261 26.3239 110.464 26.3239 110.68C26.3239 111.034 26.2396 111.349 26.071 111.626C25.9025 111.904 25.6723 112.123 25.3807 112.282C25.0909 112.443 24.7576 112.522 24.3807 112.52C24.0038 112.522 23.6676 112.437 23.3722 112.265C23.0767 112.094 22.8438 111.858 22.6733 111.555C22.5047 111.253 22.4205 110.908 22.4205 110.518ZM22.4034 116.384C22.4053 115.935 22.5237 115.551 22.7585 115.233C22.9934 114.915 23.3352 114.672 23.7841 114.503C24.233 114.334 24.7737 114.25 25.4062 114.25C26.0369 114.25 26.5758 114.334 27.0227 114.503C27.4697 114.673 27.8106 114.918 28.0455 115.236C28.2803 115.556 28.3977 115.939 28.3977 116.384C28.3977 116.829 28.2794 117.21 28.0426 117.529C27.8078 117.847 27.4669 118.09 27.0199 118.259C26.5748 118.429 26.0369 118.514 25.4062 118.514C24.7718 118.514 24.2301 118.43 23.7812 118.262C23.3343 118.093 22.9924 117.85 22.7557 117.531C22.5208 117.213 22.4034 116.831 22.4034 116.384ZM23.1619 116.384C23.1619 116.778 23.3542 117.085 23.7386 117.307C24.1231 117.53 24.679 117.642 25.4062 117.642C25.8892 117.642 26.2973 117.591 26.6307 117.489C26.9659 117.388 27.2197 117.244 27.392 117.054C27.5663 116.867 27.6534 116.643 27.6534 116.384C27.6534 115.992 27.4602 115.684 27.0739 115.46C26.6875 115.237 26.1316 115.124 25.4062 115.122C24.9214 115.122 24.5114 115.172 24.1761 115.273C23.8428 115.375 23.59 115.52 23.4176 115.708C23.2472 115.895 23.1619 116.12 23.1619 116.384Z" fill="#805A99"/>
<path d="M28.3182 153.912H22.5V153.032H27.4375V152.998L26.5284 151.606H27.3693L28.3182 153.057V153.912ZM22.4034 158.312C22.4053 157.863 22.5237 157.479 22.7585 157.161C22.9934 156.843 23.3352 156.6 23.7841 156.431C24.233 156.263 24.7737 156.178 25.4062 156.178C26.0369 156.178 26.5758 156.263 27.0227 156.431C27.4697 156.602 27.8106 156.846 28.0455 157.164C28.2803 157.484 28.3977 157.867 28.3977 158.312C28.3977 158.757 28.2794 159.138 28.0426 159.457C27.8078 159.775 27.4669 160.018 27.0199 160.187C26.5748 160.357 26.0369 160.442 25.4062 160.442C24.7718 160.442 24.2301 160.358 23.7812 160.19C23.3343 160.021 22.9924 159.778 22.7557 159.46C22.5208 159.141 22.4034 158.759 22.4034 158.312ZM23.1619 158.312C23.1619 158.706 23.3542 159.013 23.7386 159.235C24.1231 159.459 24.679 159.57 25.4062 159.57C25.8892 159.57 26.2973 159.519 26.6307 159.417C26.9659 159.317 27.2197 159.172 27.392 158.982C27.5663 158.795 27.6534 158.571 27.6534 158.312C27.6534 157.92 27.4602 157.612 27.0739 157.388C26.6875 157.165 26.1316 157.052 25.4062 157.05C24.9214 157.05 24.5114 157.101 24.1761 157.201C23.8428 157.303 23.59 157.448 23.4176 157.636C23.2472 157.823 23.1619 158.049 23.1619 158.312ZM22.4034 164.276C22.4053 163.827 22.5237 163.443 22.7585 163.125C22.9934 162.807 23.3352 162.564 23.7841 162.395C24.233 162.227 24.7737 162.142 25.4062 162.142C26.0369 162.142 26.5758 162.227 27.0227 162.395C27.4697 162.566 27.8106 162.81 28.0455 163.128C28.2803 163.448 28.3977 163.831 28.3977 164.276C28.3977 164.721 28.2794 165.103 28.0426 165.421C27.8078 165.739 27.4669 165.982 27.0199 166.151C26.5748 166.321 26.0369 166.407 25.4062 166.407C24.7718 166.407 24.2301 166.322 23.7812 166.154C23.3343 165.985 22.9924 165.742 22.7557 165.424C22.5208 165.105 22.4034 164.723 22.4034 164.276ZM23.1619 164.276C23.1619 164.67 23.3542 164.978 23.7386 165.199C24.1231 165.423 24.679 165.534 25.4062 165.534C25.8892 165.534 26.2973 165.483 26.6307 165.381C26.9659 165.281 27.2197 165.136 27.392 164.946C27.5663 164.759 27.6534 164.535 27.6534 164.276C27.6534 163.884 27.4602 163.576 27.0739 163.353C26.6875 163.129 26.1316 163.016 25.4062 163.014C24.9214 163.014 24.5114 163.065 24.1761 163.165C23.8428 163.267 23.59 163.412 23.4176 163.6C23.2472 163.787 23.1619 164.013 23.1619 164.276Z" fill="#805A99"/>
<path d="M28.3182 202.014H22.5V201.133H27.4375V201.099L26.5284 199.707H27.3693L28.3182 201.159V202.014ZM22.4205 206.308C22.4205 205.952 22.4886 205.632 22.625 205.348C22.7633 205.066 22.9527 204.84 23.1932 204.672C23.4337 204.503 23.7083 204.413 24.017 204.402V205.254C23.767 205.275 23.5616 205.386 23.4006 205.587C23.2396 205.787 23.1591 206.028 23.1591 206.308C23.1591 206.532 23.2102 206.73 23.3125 206.902C23.4167 207.076 23.5597 207.213 23.7415 207.311C23.9233 207.411 24.1307 207.462 24.3636 207.462C24.6004 207.462 24.8116 207.411 24.9972 207.308C25.1828 207.206 25.3286 207.065 25.4347 206.885C25.5407 206.707 25.5947 206.502 25.5966 206.271C25.5966 206.095 25.5663 205.918 25.5057 205.74C25.4451 205.562 25.3655 205.418 25.267 205.308L25.3864 204.504L28.3182 204.831V208.03H27.5653V205.561L25.9375 205.376V205.411C26.0473 205.524 26.1392 205.675 26.2131 205.862C26.2869 206.052 26.3239 206.254 26.3239 206.47C26.3239 206.824 26.2396 207.14 26.071 207.416C25.9025 207.695 25.6723 207.913 25.3807 208.072C25.0909 208.233 24.7576 208.313 24.3807 208.311C24.0038 208.313 23.6676 208.228 23.3722 208.055C23.0767 207.885 22.8438 207.648 22.6733 207.345C22.5047 207.044 22.4205 206.698 22.4205 206.308ZM22.4034 212.174C22.4053 211.725 22.5237 211.342 22.7585 211.024C22.9934 210.706 23.3352 210.462 23.7841 210.294C24.233 210.125 24.7737 210.041 25.4062 210.041C26.0369 210.041 26.5758 210.125 27.0227 210.294C27.4697 210.464 27.8106 210.708 28.0455 211.027C28.2803 211.347 28.3977 211.729 28.3977 212.174C28.3977 212.619 28.2794 213.001 28.0426 213.319C27.8078 213.637 27.4669 213.881 27.0199 214.049C26.5748 214.22 26.0369 214.305 25.4062 214.305C24.7718 214.305 24.2301 214.221 23.7812 214.052C23.3343 213.884 22.9924 213.64 22.7557 213.322C22.5208 213.004 22.4034 212.621 22.4034 212.174ZM23.1619 212.174C23.1619 212.568 23.3542 212.876 23.7386 213.098C24.1231 213.321 24.679 213.433 25.4062 213.433C25.8892 213.433 26.2973 213.382 26.6307 213.279C26.9659 213.179 27.2197 213.034 27.392 212.845C27.5663 212.657 27.6534 212.434 27.6534 212.174C27.6534 211.782 27.4602 211.474 27.0739 211.251C26.6875 211.028 26.1316 210.915 25.4062 210.913C24.9214 210.913 24.5114 210.963 24.1761 211.063C23.8428 211.166 23.59 211.311 23.4176 211.498C23.2472 211.686 23.1619 211.911 23.1619 212.174Z" fill="#805A99"/>
<path d="M22.5 247.642H23.1364L25.1761 249.611C25.3977 249.821 25.5919 249.995 25.7585 250.131C25.9271 250.269 26.0871 250.373 26.2386 250.441C26.3902 250.509 26.5511 250.543 26.7216 250.543C26.9148 250.543 27.0814 250.498 27.2216 250.407C27.3636 250.316 27.4725 250.192 27.5483 250.035C27.6259 249.877 27.6648 249.7 27.6648 249.503C27.6648 249.295 27.6222 249.113 27.5369 248.958C27.4517 248.803 27.3314 248.683 27.1761 248.6C27.0208 248.517 26.839 248.475 26.6307 248.475V247.637C26.9848 247.637 27.2945 247.718 27.5597 247.881C27.8248 248.044 28.0303 248.267 28.1761 248.552C28.3239 248.836 28.3977 249.159 28.3977 249.52C28.3977 249.886 28.3248 250.208 28.179 250.486C28.035 250.767 27.8381 250.985 27.5881 251.142C27.34 251.3 27.0597 251.378 26.7472 251.378C26.5312 251.378 26.3201 251.338 26.1136 251.256C25.9072 251.177 25.6771 251.037 25.4233 250.838C25.1714 250.64 24.8655 250.363 24.5057 250.009L23.2955 248.853H23.2528V251.472H22.5V247.642ZM22.4034 255.374C22.4053 254.925 22.5237 254.542 22.7585 254.224C22.9934 253.906 23.3352 253.662 23.7841 253.494C24.233 253.325 24.7737 253.241 25.4062 253.241C26.0369 253.241 26.5758 253.325 27.0227 253.494C27.4697 253.664 27.8106 253.908 28.0455 254.227C28.2803 254.547 28.3977 254.929 28.3977 255.374C28.3977 255.819 28.2794 256.201 28.0426 256.519C27.8078 256.837 27.4669 257.081 27.0199 257.249C26.5748 257.42 26.0369 257.505 25.4062 257.505C24.7718 257.505 24.2301 257.421 23.7812 257.252C23.3343 257.084 22.9924 256.84 22.7557 256.522C22.5208 256.204 22.4034 255.821 22.4034 255.374ZM23.1619 255.374C23.1619 255.768 23.3542 256.076 23.7386 256.298C24.1231 256.521 24.679 256.633 25.4062 256.633C25.8892 256.633 26.2973 256.582 26.6307 256.479C26.9659 256.379 27.2197 256.234 27.392 256.045C27.5663 255.857 27.6534 255.634 27.6534 255.374C27.6534 254.982 27.4602 254.674 27.0739 254.451C26.6875 254.228 26.1316 254.115 25.4062 254.113C24.9214 254.113 24.5114 254.163 24.1761 254.263C23.8428 254.366 23.59 254.511 23.4176 254.698C23.2472 254.886 23.1619 255.111 23.1619 255.374ZM22.4034 261.338C22.4053 260.889 22.5237 260.506 22.7585 260.188C22.9934 259.87 23.3352 259.626 23.7841 259.458C24.233 259.289 24.7737 259.205 25.4062 259.205C26.0369 259.205 26.5758 259.289 27.0227 259.458C27.4697 259.628 27.8106 259.872 28.0455 260.191C28.2803 260.511 28.3977 260.893 28.3977 261.338C28.3977 261.783 28.2794 262.165 28.0426 262.483C27.8078 262.801 27.4669 263.045 27.0199 263.213C26.5748 263.384 26.0369 263.469 25.4062 263.469C24.7718 263.469 24.2301 263.385 23.7812 263.216C23.3343 263.048 22.9924 262.804 22.7557 262.486C22.5208 262.168 22.4034 261.785 22.4034 261.338ZM23.1619 261.338C23.1619 261.732 23.3542 262.04 23.7386 262.262C24.1231 262.485 24.679 262.597 25.4062 262.597C25.8892 262.597 26.2973 262.546 26.6307 262.443C26.9659 262.343 27.2197 262.198 27.392 262.009C27.5663 261.821 27.6534 261.598 27.6534 261.338C27.6534 260.946 27.4602 260.639 27.0739 260.415C26.6875 260.192 26.1316 260.079 25.4062 260.077C24.9214 260.077 24.5114 260.127 24.1761 260.228C23.8428 260.33 23.59 260.475 23.4176 260.662C23.2472 260.85 23.1619 261.075 23.1619 261.338Z" fill="#805A99"/>
<path d="M22.5 296.744H23.1364L25.1761 298.713C25.3977 298.923 25.5919 299.096 25.7585 299.233C25.9271 299.371 26.0871 299.474 26.2386 299.542C26.3902 299.611 26.5511 299.645 26.7216 299.645C26.9148 299.645 27.0814 299.599 27.2216 299.508C27.3636 299.417 27.4725 299.293 27.5483 299.136C27.6259 298.979 27.6648 298.802 27.6648 298.605C27.6648 298.396 27.6222 298.215 27.5369 298.059C27.4517 297.904 27.3314 297.785 27.1761 297.701C27.0208 297.618 26.839 297.576 26.6307 297.576V296.738C26.9848 296.738 27.2945 296.82 27.5597 296.983C27.8248 297.146 28.0303 297.369 28.1761 297.653C28.3239 297.937 28.3977 298.26 28.3977 298.622C28.3977 298.987 28.3248 299.309 28.179 299.588C28.035 299.868 27.8381 300.087 27.5881 300.244C27.34 300.401 27.0597 300.48 26.7472 300.48C26.5312 300.48 26.3201 300.439 26.1136 300.358C25.9072 300.278 25.6771 300.139 25.4233 299.94C25.1714 299.741 24.8655 299.465 24.5057 299.111L23.2955 297.954H23.2528V300.574H22.5V296.744ZM22.4205 304.371C22.4205 304.015 22.4886 303.695 22.625 303.411C22.7633 303.128 22.9527 302.903 23.1932 302.734C23.4337 302.566 23.7083 302.476 24.017 302.464V303.317C23.767 303.338 23.5616 303.448 23.4006 303.649C23.2396 303.85 23.1591 304.09 23.1591 304.371C23.1591 304.594 23.2102 304.792 23.3125 304.964C23.4167 305.139 23.5597 305.275 23.7415 305.374C23.9233 305.474 24.1307 305.524 24.3636 305.524C24.6004 305.524 24.8116 305.473 24.9972 305.371C25.1828 305.268 25.3286 305.127 25.4347 304.947C25.5407 304.769 25.5947 304.565 25.5966 304.334C25.5966 304.158 25.5663 303.981 25.5057 303.803C25.4451 303.625 25.3655 303.481 25.267 303.371L25.3864 302.567L28.3182 302.893V306.092H27.5653V303.624L25.9375 303.439V303.473C26.0473 303.587 26.1392 303.737 26.2131 303.925C26.2869 304.114 26.3239 304.317 26.3239 304.533C26.3239 304.887 26.2396 305.202 26.071 305.479C25.9025 305.757 25.6723 305.976 25.3807 306.135C25.0909 306.296 24.7576 306.375 24.3807 306.374C24.0038 306.375 23.6676 306.29 23.3722 306.118C23.0767 305.947 22.8438 305.711 22.6733 305.408C22.5047 305.107 22.4205 304.761 22.4205 304.371ZM22.4034 310.237C22.4053 309.788 22.5237 309.404 22.7585 309.086C22.9934 308.768 23.3352 308.525 23.7841 308.356C24.233 308.188 24.7737 308.103 25.4062 308.103C26.0369 308.103 26.5758 308.188 27.0227 308.356C27.4697 308.527 27.8106 308.771 28.0455 309.089C28.2803 309.409 28.3977 309.792 28.3977 310.237C28.3977 310.682 28.2794 311.063 28.0426 311.382C27.8078 311.7 27.4669 311.943 27.0199 312.112C26.5748 312.282 26.0369 312.367 25.4062 312.367C24.7718 312.367 24.2301 312.283 23.7812 312.115C23.3343 311.946 22.9924 311.703 22.7557 311.385C22.5208 311.066 22.4034 310.684 22.4034 310.237ZM23.1619 310.237C23.1619 310.631 23.3542 310.938 23.7386 311.16C24.1231 311.384 24.679 311.495 25.4062 311.495C25.8892 311.495 26.2973 311.444 26.6307 311.342C26.9659 311.242 27.2197 311.097 27.392 310.907C27.5663 310.72 27.6534 310.496 27.6534 310.237C27.6534 309.845 27.4602 309.537 27.0739 309.313C26.6875 309.09 26.1316 308.977 25.4062 308.975C24.9214 308.975 24.5114 309.026 24.1761 309.126C23.8428 309.228 23.59 309.373 23.4176 309.561C23.2472 309.748 23.1619 309.974 23.1619 310.237Z" fill="#805A99"/>
<path d="M22.4205 348.043C22.4205 347.653 22.4877 347.304 22.6222 346.998C22.7566 346.693 22.9432 346.451 23.1818 346.273C23.4223 346.097 23.7008 346.002 24.017 345.989V346.881C23.8447 346.892 23.6951 346.95 23.5682 347.054C23.4432 347.16 23.3466 347.299 23.2784 347.469C23.2102 347.64 23.1761 347.829 23.1761 348.037C23.1761 348.267 23.2159 348.469 23.2955 348.645C23.375 348.823 23.4858 348.963 23.6278 349.063C23.7718 349.163 23.9375 349.213 24.125 349.213C24.3201 349.213 24.4915 349.163 24.6392 349.063C24.7888 348.964 24.9063 348.82 24.9915 348.628C25.0767 348.439 25.1193 348.21 25.1193 347.941V347.449H25.8352V347.941C25.8352 348.157 25.8741 348.346 25.9517 348.509C26.0294 348.674 26.1373 348.803 26.2756 348.895C26.4157 348.988 26.5795 349.035 26.767 349.035C26.947 349.035 27.1032 348.994 27.2358 348.912C27.3703 348.833 27.4754 348.719 27.5511 348.571C27.6269 348.426 27.6648 348.253 27.6648 348.054C27.6648 347.865 27.6297 347.688 27.5597 347.523C27.4915 347.36 27.393 347.228 27.2642 347.125C27.1373 347.023 26.9848 346.968 26.8068 346.961V346.111C27.1212 346.121 27.3977 346.213 27.6364 346.39C27.875 346.568 28.0616 346.803 28.196 347.094C28.3305 347.386 28.3977 347.71 28.3977 348.066C28.3977 348.439 28.3248 348.761 28.179 349.032C28.035 349.304 27.8428 349.515 27.6023 349.662C27.3617 349.812 27.0985 349.886 26.8125 349.884C26.4867 349.886 26.2102 349.795 25.983 349.611C25.7557 349.429 25.6032 349.187 25.5256 348.884H25.4801C25.4214 349.27 25.268 349.57 25.0199 349.782C24.7718 349.996 24.464 350.102 24.0966 350.1C23.7765 350.102 23.4896 350.013 23.2358 349.833C22.982 349.655 22.7822 349.411 22.6364 349.103C22.4924 348.794 22.4205 348.441 22.4205 348.043ZM22.4034 353.999C22.4053 353.55 22.5237 353.167 22.7585 352.849C22.9934 352.531 23.3352 352.287 23.7841 352.119C24.233 351.95 24.7737 351.866 25.4062 351.866C26.0369 351.866 26.5758 351.95 27.0227 352.119C27.4697 352.289 27.8106 352.533 28.0455 352.852C28.2803 353.172 28.3977 353.554 28.3977 353.999C28.3977 354.444 28.2794 354.826 28.0426 355.144C27.8078 355.462 27.4669 355.706 27.0199 355.874C26.5748 356.045 26.0369 356.13 25.4062 356.13C24.7718 356.13 24.2301 356.046 23.7812 355.877C23.3343 355.709 22.9924 355.465 22.7557 355.147C22.5208 354.829 22.4034 354.446 22.4034 353.999ZM23.1619 353.999C23.1619 354.393 23.3542 354.701 23.7386 354.923C24.1231 355.146 24.679 355.258 25.4062 355.258C25.8892 355.258 26.2973 355.207 26.6307 355.104C26.9659 355.004 27.2197 354.859 27.392 354.67C27.5663 354.482 27.6534 354.259 27.6534 353.999C27.6534 353.607 27.4602 353.299 27.0739 353.076C26.6875 352.853 26.1316 352.74 25.4062 352.738C24.9214 352.738 24.5114 352.788 24.1761 352.888C23.8428 352.991 23.59 353.136 23.4176 353.323C23.2472 353.511 23.1619 353.736 23.1619 353.999ZM22.4034 359.963C22.4053 359.514 22.5237 359.131 22.7585 358.813C22.9934 358.495 23.3352 358.251 23.7841 358.083C24.233 357.914 24.7737 357.83 25.4062 357.83C26.0369 357.83 26.5758 357.914 27.0227 358.083C27.4697 358.253 27.8106 358.497 28.0455 358.816C28.2803 359.136 28.3977 359.518 28.3977 359.963C28.3977 360.408 28.2794 360.79 28.0426 361.108C27.8078 361.426 27.4669 361.67 27.0199 361.838C26.5748 362.009 26.0369 362.094 25.4062 362.094C24.7718 362.094 24.2301 362.01 23.7812 361.841C23.3343 361.673 22.9924 361.429 22.7557 361.111C22.5208 360.793 22.4034 360.41 22.4034 359.963ZM23.1619 359.963C23.1619 360.357 23.3542 360.665 23.7386 360.887C24.1231 361.11 24.679 361.222 25.4062 361.222C25.8892 361.222 26.2973 361.171 26.6307 361.068C26.9659 360.968 27.2197 360.823 27.392 360.634C27.5663 360.446 27.6534 360.223 27.6534 359.963C27.6534 359.571 27.4602 359.264 27.0739 359.04C26.6875 358.817 26.1316 358.704 25.4062 358.702C24.9214 358.702 24.5114 358.752 24.1761 358.853C23.8428 358.955 23.59 359.1 23.4176 359.287C23.2472 359.475 23.1619 359.7 23.1619 359.963Z" fill="#805A99"/>
<path d="M22.4205 397.645C22.4205 397.254 22.4877 396.906 22.6222 396.599C22.7566 396.294 22.9432 396.053 23.1818 395.875C23.4223 395.699 23.7008 395.604 24.017 395.591V396.483C23.8447 396.494 23.6951 396.552 23.5682 396.656C23.4432 396.762 23.3466 396.9 23.2784 397.071C23.2102 397.241 23.1761 397.431 23.1761 397.639C23.1761 397.868 23.2159 398.071 23.2955 398.247C23.375 398.425 23.4858 398.564 23.6278 398.664C23.7718 398.765 23.9375 398.815 24.125 398.815C24.3201 398.815 24.4915 398.765 24.6392 398.664C24.7888 398.566 24.9063 398.421 24.9915 398.23C25.0767 398.04 25.1193 397.811 25.1193 397.542V397.051H25.8352V397.542C25.8352 397.758 25.8741 397.948 25.9517 398.111C26.0294 398.275 26.1373 398.404 26.2756 398.497C26.4157 398.59 26.5795 398.636 26.767 398.636C26.947 398.636 27.1032 398.595 27.2358 398.514C27.3703 398.434 27.4754 398.321 27.5511 398.173C27.6269 398.027 27.6648 397.855 27.6648 397.656C27.6648 397.467 27.6297 397.289 27.5597 397.125C27.4915 396.962 27.393 396.829 27.2642 396.727C27.1373 396.625 26.9848 396.57 26.8068 396.562V395.713C27.1212 395.722 27.3977 395.815 27.6364 395.991C27.875 396.169 28.0616 396.404 28.196 396.696C28.3305 396.987 28.3977 397.311 28.3977 397.667C28.3977 398.04 28.3248 398.362 28.179 398.633C28.035 398.906 27.8428 399.116 27.6023 399.264C27.3617 399.414 27.0985 399.487 26.8125 399.486C26.4867 399.487 26.2102 399.396 25.983 399.213C25.7557 399.031 25.6032 398.789 25.5256 398.486H25.4801C25.4214 398.872 25.268 399.171 25.0199 399.383C24.7718 399.597 24.464 399.703 24.0966 399.701C23.7765 399.703 23.4896 399.614 23.2358 399.434C22.982 399.256 22.7822 399.013 22.6364 398.704C22.4924 398.396 22.4205 398.042 22.4205 397.645ZM22.4205 403.496C22.4205 403.14 22.4886 402.82 22.625 402.536C22.7633 402.253 22.9527 402.028 23.1932 401.859C23.4337 401.691 23.7083 401.601 24.017 401.589V402.442C23.767 402.463 23.5616 402.573 23.4006 402.774C23.2396 402.975 23.1591 403.215 23.1591 403.496C23.1591 403.719 23.2102 403.917 23.3125 404.089C23.4167 404.264 23.5597 404.4 23.7415 404.499C23.9233 404.599 24.1307 404.649 24.3636 404.649C24.6004 404.649 24.8116 404.598 24.9972 404.496C25.1828 404.393 25.3286 404.252 25.4347 404.072C25.5407 403.894 25.5947 403.69 25.5966 403.459C25.5966 403.283 25.5663 403.106 25.5057 402.928C25.4451 402.75 25.3655 402.606 25.267 402.496L25.3864 401.692L28.3182 402.018V405.217H27.5653V402.749L25.9375 402.564V402.598C26.0473 402.712 26.1392 402.862 26.2131 403.05C26.2869 403.239 26.3239 403.442 26.3239 403.658C26.3239 404.012 26.2396 404.327 26.071 404.604C25.9025 404.882 25.6723 405.101 25.3807 405.26C25.0909 405.421 24.7576 405.5 24.3807 405.499C24.0038 405.5 23.6676 405.415 23.3722 405.243C23.0767 405.072 22.8438 404.836 22.6733 404.533C22.5047 404.232 22.4205 403.886 22.4205 403.496ZM22.4034 409.362C22.4053 408.913 22.5237 408.529 22.7585 408.211C22.9934 407.893 23.3352 407.65 23.7841 407.481C24.233 407.313 24.7737 407.228 25.4062 407.228C26.0369 407.228 26.5758 407.313 27.0227 407.481C27.4697 407.652 27.8106 407.896 28.0455 408.214C28.2803 408.534 28.3977 408.917 28.3977 409.362C28.3977 409.807 28.2794 410.188 28.0426 410.507C27.8078 410.825 27.4669 411.068 27.0199 411.237C26.5748 411.407 26.0369 411.492 25.4062 411.492C24.7718 411.492 24.2301 411.408 23.7812 411.24C23.3343 411.071 22.9924 410.828 22.7557 410.51C22.5208 410.191 22.4034 409.809 22.4034 409.362ZM23.1619 409.362C23.1619 409.756 23.3542 410.063 23.7386 410.285C24.1231 410.509 24.679 410.62 25.4062 410.62C25.8892 410.62 26.2973 410.569 26.6307 410.467C26.9659 410.367 27.2197 410.222 27.392 410.032C27.5663 409.845 27.6534 409.621 27.6534 409.362C27.6534 408.97 27.4602 408.662 27.0739 408.438C26.6875 408.215 26.1316 408.102 25.4062 408.1C24.9214 408.1 24.5114 408.151 24.1761 408.251C23.8428 408.353 23.59 408.498 23.4176 408.686C23.2472 408.873 23.1619 409.099 23.1619 409.362Z" fill="#805A99"/>
<path d="M23.6364 444.856H24.3466L28.3182 447.37V447.93H27.2727V447.575L24.4261 445.777H24.3807V449.223H23.6364V444.856ZM22.5 447.615H23.8523L24.1761 447.62H28.3182V448.453H22.5V447.615ZM22.4034 453.038C22.4053 452.589 22.5237 452.206 22.7585 451.888C22.9934 451.57 23.3352 451.326 23.7841 451.158C24.233 450.989 24.7737 450.905 25.4062 450.905C26.0369 450.905 26.5758 450.989 27.0227 451.158C27.4697 451.328 27.8106 451.572 28.0455 451.891C28.2803 452.211 28.3977 452.593 28.3977 453.038C28.3977 453.483 28.2794 453.865 28.0426 454.183C27.8078 454.501 27.4669 454.745 27.0199 454.913C26.5748 455.084 26.0369 455.169 25.4062 455.169C24.7718 455.169 24.2301 455.085 23.7812 454.916C23.3343 454.748 22.9924 454.504 22.7557 454.186C22.5208 453.868 22.4034 453.485 22.4034 453.038ZM23.1619 453.038C23.1619 453.432 23.3542 453.74 23.7386 453.962C24.1231 454.185 24.679 454.297 25.4062 454.297C25.8892 454.297 26.2973 454.246 26.6307 454.143C26.9659 454.043 27.2197 453.898 27.392 453.709C27.5663 453.521 27.6534 453.298 27.6534 453.038C27.6534 452.646 27.4602 452.339 27.0739 452.115C26.6875 451.892 26.1316 451.779 25.4062 451.777C24.9214 451.777 24.5114 451.827 24.1761 451.928C23.8428 452.03 23.59 452.175 23.4176 452.362C23.2472 452.55 23.1619 452.775 23.1619 453.038ZM22.4034 459.002C22.4053 458.554 22.5237 458.17 22.7585 457.852C22.9934 457.534 23.3352 457.29 23.7841 457.122C24.233 456.953 24.7737 456.869 25.4062 456.869C26.0369 456.869 26.5758 456.953 27.0227 457.122C27.4697 457.292 27.8106 457.537 28.0455 457.855C28.2803 458.175 28.3977 458.557 28.3977 459.002C28.3977 459.447 28.2794 459.829 28.0426 460.147C27.8078 460.465 27.4669 460.709 27.0199 460.877C26.5748 461.048 26.0369 461.133 25.4062 461.133C24.7718 461.133 24.2301 461.049 23.7812 460.88C23.3343 460.712 22.9924 460.468 22.7557 460.15C22.5208 459.832 22.4034 459.449 22.4034 459.002ZM23.1619 459.002C23.1619 459.396 23.3542 459.704 23.7386 459.926C24.1231 460.149 24.679 460.261 25.4062 460.261C25.8892 460.261 26.2973 460.21 26.6307 460.108C26.9659 460.007 27.2197 459.862 27.392 459.673C27.5663 459.485 27.6534 459.262 27.6534 459.002C27.6534 458.61 27.4602 458.303 27.0739 458.079C26.6875 457.856 26.1316 457.743 25.4062 457.741C24.9214 457.741 24.5114 457.791 24.1761 457.892C23.8428 457.994 23.59 458.139 23.4176 458.326C23.2472 458.514 23.1619 458.739 23.1619 459.002Z" fill="#805A99"/>
<path d="M23.6364 494.458H24.3466L28.3182 496.972V497.532H27.2727V497.177L24.4261 495.378H24.3807V498.824H23.6364V494.458ZM22.5 497.216H23.8523L24.1761 497.222H28.3182V498.054H22.5V497.216ZM22.4205 502.535C22.4205 502.179 22.4886 501.859 22.625 501.575C22.7633 501.292 22.9527 501.067 23.1932 500.898C23.4337 500.73 23.7083 500.64 24.017 500.629V501.481C23.767 501.502 23.5616 501.612 23.4006 501.813C23.2396 502.014 23.1591 502.254 23.1591 502.535C23.1591 502.758 23.2102 502.956 23.3125 503.129C23.4167 503.303 23.5597 503.439 23.7415 503.538C23.9233 503.638 24.1307 503.688 24.3636 503.688C24.6004 503.688 24.8116 503.637 24.9972 503.535C25.1828 503.433 25.3286 503.291 25.4347 503.112C25.5407 502.933 25.5947 502.729 25.5966 502.498C25.5966 502.322 25.5663 502.145 25.5057 501.967C25.4451 501.789 25.3655 501.645 25.267 501.535L25.3864 500.731L28.3182 501.058V504.256H27.5653V501.788L25.9375 501.603V501.637C26.0473 501.751 26.1392 501.901 26.2131 502.089C26.2869 502.278 26.3239 502.481 26.3239 502.697C26.3239 503.051 26.2396 503.366 26.071 503.643C25.9025 503.921 25.6723 504.14 25.3807 504.299C25.0909 504.46 24.7576 504.54 24.3807 504.538C24.0038 504.54 23.6676 504.454 23.3722 504.282C23.0767 504.112 22.8438 503.875 22.6733 503.572C22.5047 503.271 22.4205 502.925 22.4205 502.535ZM22.4034 508.401C22.4053 507.952 22.5237 507.568 22.7585 507.25C22.9934 506.932 23.3352 506.689 23.7841 506.52C24.233 506.352 24.7737 506.267 25.4062 506.267C26.0369 506.267 26.5758 506.352 27.0227 506.52C27.4697 506.691 27.8106 506.935 28.0455 507.253C28.2803 507.573 28.3977 507.956 28.3977 508.401C28.3977 508.846 28.2794 509.228 28.0426 509.546C27.8078 509.864 27.4669 510.107 27.0199 510.276C26.5748 510.446 26.0369 510.532 25.4062 510.532C24.7718 510.532 24.2301 510.447 23.7812 510.279C23.3343 510.11 22.9924 509.867 22.7557 509.549C22.5208 509.23 22.4034 508.848 22.4034 508.401ZM23.1619 508.401C23.1619 508.795 23.3542 509.103 23.7386 509.324C24.1231 509.548 24.679 509.659 25.4062 509.659C25.8892 509.659 26.2973 509.608 26.6307 509.506C26.9659 509.406 27.2197 509.261 27.392 509.071C27.5663 508.884 27.6534 508.66 27.6534 508.401C27.6534 508.009 27.4602 507.701 27.0739 507.478C26.6875 507.254 26.1316 507.141 25.4062 507.139C24.9214 507.139 24.5114 507.19 24.1761 507.29C23.8428 507.392 23.59 507.537 23.4176 507.725C23.2472 507.912 23.1619 508.138 23.1619 508.401Z" fill="#805A99"/>
<path d="M22.4205 545.536C22.4205 545.18 22.4886 544.859 22.625 544.575C22.7633 544.293 22.9527 544.068 23.1932 543.899C23.4337 543.731 23.7083 543.641 24.017 543.629V544.482C23.767 544.502 23.5616 544.613 23.4006 544.814C23.2396 545.015 23.1591 545.255 23.1591 545.536C23.1591 545.759 23.2102 545.957 23.3125 546.129C23.4167 546.304 23.5597 546.44 23.7415 546.538C23.9233 546.639 24.1307 546.689 24.3636 546.689C24.6004 546.689 24.8116 546.638 24.9972 546.536C25.1828 546.433 25.3286 546.292 25.4347 546.112C25.5407 545.934 25.5947 545.73 25.5966 545.499C25.5966 545.323 25.5663 545.145 25.5057 544.967C25.4451 544.789 25.3655 544.645 25.267 544.536L25.3864 543.732L28.3182 544.058V547.257H27.5653V544.788L25.9375 544.604V544.638C26.0473 544.751 26.1392 544.902 26.2131 545.09C26.2869 545.279 26.3239 545.482 26.3239 545.698C26.3239 546.052 26.2396 546.367 26.071 546.644C25.9025 546.922 25.6723 547.141 25.3807 547.3C25.0909 547.461 24.7576 547.54 24.3807 547.538C24.0038 547.54 23.6676 547.455 23.3722 547.283C23.0767 547.112 22.8438 546.876 22.6733 546.573C22.5047 546.271 22.4205 545.926 22.4205 545.536ZM22.4034 551.402C22.4053 550.953 22.5237 550.569 22.7585 550.251C22.9934 549.933 23.3352 549.69 23.7841 549.521C24.233 549.352 24.7737 549.268 25.4062 549.268C26.0369 549.268 26.5758 549.352 27.0227 549.521C27.4697 549.691 27.8106 549.936 28.0455 550.254C28.2803 550.574 28.3977 550.957 28.3977 551.402C28.3977 551.847 28.2794 552.228 28.0426 552.547C27.8078 552.865 27.4669 553.108 27.0199 553.277C26.5748 553.447 26.0369 553.532 25.4062 553.532C24.7718 553.532 24.2301 553.448 23.7812 553.279C23.3343 553.111 22.9924 552.868 22.7557 552.549C22.5208 552.231 22.4034 551.849 22.4034 551.402ZM23.1619 551.402C23.1619 551.796 23.3542 552.103 23.7386 552.325C24.1231 552.548 24.679 552.66 25.4062 552.66C25.8892 552.66 26.2973 552.609 26.6307 552.507C26.9659 552.406 27.2197 552.261 27.392 552.072C27.5663 551.885 27.6534 551.661 27.6534 551.402C27.6534 551.01 27.4602 550.702 27.0739 550.478C26.6875 550.255 26.1316 550.142 25.4062 550.14C24.9214 550.14 24.5114 550.19 24.1761 550.291C23.8428 550.393 23.59 550.538 23.4176 550.725C23.2472 550.913 23.1619 551.138 23.1619 551.402ZM22.4034 557.366C22.4053 556.917 22.5237 556.533 22.7585 556.215C22.9934 555.897 23.3352 555.654 23.7841 555.485C24.233 555.316 24.7737 555.232 25.4062 555.232C26.0369 555.232 26.5758 555.316 27.0227 555.485C27.4697 555.655 27.8106 555.9 28.0455 556.218C28.2803 556.538 28.3977 556.921 28.3977 557.366C28.3977 557.811 28.2794 558.192 28.0426 558.511C27.8078 558.829 27.4669 559.072 27.0199 559.241C26.5748 559.411 26.0369 559.496 25.4062 559.496C24.7718 559.496 24.2301 559.412 23.7812 559.244C23.3343 559.075 22.9924 558.832 22.7557 558.513C22.5208 558.195 22.4034 557.813 22.4034 557.366ZM23.1619 557.366C23.1619 557.76 23.3542 558.067 23.7386 558.289C24.1231 558.512 24.679 558.624 25.4062 558.624C25.8892 558.624 26.2973 558.573 26.6307 558.471C26.9659 558.37 27.2197 558.226 27.392 558.036C27.5663 557.849 27.6534 557.625 27.6534 557.366C27.6534 556.974 27.4602 556.666 27.0739 556.442C26.6875 556.219 26.1316 556.106 25.4062 556.104C24.9214 556.104 24.5114 556.155 24.1761 556.255C23.8428 556.357 23.59 556.502 23.4176 556.69C23.2472 556.877 23.1619 557.102 23.1619 557.366Z" fill="#805A99"/>
<path d="M22.4205 594.536C22.4205 594.18 22.4886 593.859 22.625 593.575C22.7633 593.293 22.9527 593.068 23.1932 592.899C23.4337 592.731 23.7083 592.641 24.017 592.629V593.482C23.767 593.502 23.5616 593.613 23.4006 593.814C23.2396 594.015 23.1591 594.255 23.1591 594.536C23.1591 594.759 23.2102 594.957 23.3125 595.129C23.4167 595.304 23.5597 595.44 23.7415 595.538C23.9233 595.639 24.1307 595.689 24.3636 595.689C24.6004 595.689 24.8116 595.638 24.9972 595.536C25.1828 595.433 25.3286 595.292 25.4347 595.112C25.5407 594.934 25.5947 594.73 25.5966 594.499C25.5966 594.323 25.5663 594.145 25.5057 593.967C25.4451 593.789 25.3655 593.645 25.267 593.536L25.3864 592.732L28.3182 593.058V596.257H27.5653V593.788L25.9375 593.604V593.638C26.0473 593.751 26.1392 593.902 26.2131 594.09C26.2869 594.279 26.3239 594.482 26.3239 594.698C26.3239 595.052 26.2396 595.367 26.071 595.644C25.9025 595.922 25.6723 596.141 25.3807 596.3C25.0909 596.461 24.7576 596.54 24.3807 596.538C24.0038 596.54 23.6676 596.455 23.3722 596.283C23.0767 596.112 22.8438 595.876 22.6733 595.573C22.5047 595.271 22.4205 594.926 22.4205 594.536ZM22.4034 600.402C22.4053 599.953 22.5237 599.569 22.7585 599.251C22.9934 598.933 23.3352 598.69 23.7841 598.521C24.233 598.352 24.7737 598.268 25.4062 598.268C26.0369 598.268 26.5758 598.352 27.0227 598.521C27.4697 598.691 27.8106 598.936 28.0455 599.254C28.2803 599.574 28.3977 599.957 28.3977 600.402C28.3977 600.847 28.2794 601.228 28.0426 601.547C27.8078 601.865 27.4669 602.108 27.0199 602.277C26.5748 602.447 26.0369 602.532 25.4062 602.532C24.7718 602.532 24.2301 602.448 23.7812 602.279C23.3343 602.111 22.9924 601.868 22.7557 601.549C22.5208 601.231 22.4034 600.849 22.4034 600.402ZM23.1619 600.402C23.1619 600.796 23.3542 601.103 23.7386 601.325C24.1231 601.548 24.679 601.66 25.4062 601.66C25.8892 601.66 26.2973 601.609 26.6307 601.507C26.9659 601.406 27.2197 601.261 27.392 601.072C27.5663 600.885 27.6534 600.661 27.6534 600.402C27.6534 600.01 27.4602 599.702 27.0739 599.478C26.6875 599.255 26.1316 599.142 25.4062 599.14C24.9214 599.14 24.5114 599.19 24.1761 599.291C23.8428 599.393 23.59 599.538 23.4176 599.725C23.2472 599.913 23.1619 600.138 23.1619 600.402ZM22.4034 606.366C22.4053 605.917 22.5237 605.533 22.7585 605.215C22.9934 604.897 23.3352 604.654 23.7841 604.485C24.233 604.316 24.7737 604.232 25.4062 604.232C26.0369 604.232 26.5758 604.316 27.0227 604.485C27.4697 604.655 27.8106 604.9 28.0455 605.218C28.2803 605.538 28.3977 605.921 28.3977 606.366C28.3977 606.811 28.2794 607.192 28.0426 607.511C27.8078 607.829 27.4669 608.072 27.0199 608.241C26.5748 608.411 26.0369 608.496 25.4062 608.496C24.7718 608.496 24.2301 608.412 23.7812 608.244C23.3343 608.075 22.9924 607.832 22.7557 607.513C22.5208 607.195 22.4034 606.813 22.4034 606.366ZM23.1619 606.366C23.1619 606.76 23.3542 607.067 23.7386 607.289C24.1231 607.512 24.679 607.624 25.4062 607.624C25.8892 607.624 26.2973 607.573 26.6307 607.471C26.9659 607.37 27.2197 607.226 27.392 607.036C27.5663 606.849 27.6534 606.625 27.6534 606.366C27.6534 605.974 27.4602 605.666 27.0739 605.442C26.6875 605.219 26.1316 605.106 25.4062 605.104C24.9214 605.104 24.5114 605.155 24.1761 605.255C23.8428 605.357 23.59 605.502 23.4176 605.69C23.2472 605.877 23.1619 606.102 23.1619 606.366Z" fill="#805A99"/>
<path d="M22.4205 643.536C22.4205 643.18 22.4886 642.859 22.625 642.575C22.7633 642.293 22.9527 642.068 23.1932 641.899C23.4337 641.731 23.7083 641.641 24.017 641.629V642.482C23.767 642.502 23.5616 642.613 23.4006 642.814C23.2396 643.015 23.1591 643.255 23.1591 643.536C23.1591 643.759 23.2102 643.957 23.3125 644.129C23.4167 644.304 23.5597 644.44 23.7415 644.538C23.9233 644.639 24.1307 644.689 24.3636 644.689C24.6004 644.689 24.8116 644.638 24.9972 644.536C25.1828 644.433 25.3286 644.292 25.4347 644.112C25.5407 643.934 25.5947 643.73 25.5966 643.499C25.5966 643.323 25.5663 643.145 25.5057 642.967C25.4451 642.789 25.3655 642.645 25.267 642.536L25.3864 641.732L28.3182 642.058V645.257H27.5653V642.788L25.9375 642.604V642.638C26.0473 642.751 26.1392 642.902 26.2131 643.09C26.2869 643.279 26.3239 643.482 26.3239 643.698C26.3239 644.052 26.2396 644.367 26.071 644.644C25.9025 644.922 25.6723 645.141 25.3807 645.3C25.0909 645.461 24.7576 645.54 24.3807 645.538C24.0038 645.54 23.6676 645.455 23.3722 645.283C23.0767 645.112 22.8438 644.876 22.6733 644.573C22.5047 644.271 22.4205 643.926 22.4205 643.536ZM22.4034 649.402C22.4053 648.953 22.5237 648.569 22.7585 648.251C22.9934 647.933 23.3352 647.69 23.7841 647.521C24.233 647.352 24.7737 647.268 25.4062 647.268C26.0369 647.268 26.5758 647.352 27.0227 647.521C27.4697 647.691 27.8106 647.936 28.0455 648.254C28.2803 648.574 28.3977 648.957 28.3977 649.402C28.3977 649.847 28.2794 650.228 28.0426 650.547C27.8078 650.865 27.4669 651.108 27.0199 651.277C26.5748 651.447 26.0369 651.532 25.4062 651.532C24.7718 651.532 24.2301 651.448 23.7812 651.279C23.3343 651.111 22.9924 650.868 22.7557 650.549C22.5208 650.231 22.4034 649.849 22.4034 649.402ZM23.1619 649.402C23.1619 649.796 23.3542 650.103 23.7386 650.325C24.1231 650.548 24.679 650.66 25.4062 650.66C25.8892 650.66 26.2973 650.609 26.6307 650.507C26.9659 650.406 27.2197 650.261 27.392 650.072C27.5663 649.885 27.6534 649.661 27.6534 649.402C27.6534 649.01 27.4602 648.702 27.0739 648.478C26.6875 648.255 26.1316 648.142 25.4062 648.14C24.9214 648.14 24.5114 648.19 24.1761 648.291C23.8428 648.393 23.59 648.538 23.4176 648.725C23.2472 648.913 23.1619 649.138 23.1619 649.402ZM22.4034 655.366C22.4053 654.917 22.5237 654.533 22.7585 654.215C22.9934 653.897 23.3352 653.654 23.7841 653.485C24.233 653.316 24.7737 653.232 25.4062 653.232C26.0369 653.232 26.5758 653.316 27.0227 653.485C27.4697 653.655 27.8106 653.9 28.0455 654.218C28.2803 654.538 28.3977 654.921 28.3977 655.366C28.3977 655.811 28.2794 656.192 28.0426 656.511C27.8078 656.829 27.4669 657.072 27.0199 657.241C26.5748 657.411 26.0369 657.496 25.4062 657.496C24.7718 657.496 24.2301 657.412 23.7812 657.244C23.3343 657.075 22.9924 656.832 22.7557 656.513C22.5208 656.195 22.4034 655.813 22.4034 655.366ZM23.1619 655.366C23.1619 655.76 23.3542 656.067 23.7386 656.289C24.1231 656.512 24.679 656.624 25.4062 656.624C25.8892 656.624 26.2973 656.573 26.6307 656.471C26.9659 656.37 27.2197 656.226 27.392 656.036C27.5663 655.849 27.6534 655.625 27.6534 655.366C27.6534 654.974 27.4602 654.666 27.0739 654.442C26.6875 654.219 26.1316 654.106 25.4062 654.104C24.9214 654.104 24.5114 654.155 24.1761 654.255C23.8428 654.357 23.59 654.502 23.4176 654.69C23.2472 654.877 23.1619 655.102 23.1619 655.366Z" fill="#805A99"/>
<path d="M22.4205 692.536C22.4205 692.18 22.4886 691.859 22.625 691.575C22.7633 691.293 22.9527 691.068 23.1932 690.899C23.4337 690.731 23.7083 690.641 24.017 690.629V691.482C23.767 691.502 23.5616 691.613 23.4006 691.814C23.2396 692.015 23.1591 692.255 23.1591 692.536C23.1591 692.759 23.2102 692.957 23.3125 693.129C23.4167 693.304 23.5597 693.44 23.7415 693.538C23.9233 693.639 24.1307 693.689 24.3636 693.689C24.6004 693.689 24.8116 693.638 24.9972 693.536C25.1828 693.433 25.3286 693.292 25.4347 693.112C25.5407 692.934 25.5947 692.73 25.5966 692.499C25.5966 692.323 25.5663 692.145 25.5057 691.967C25.4451 691.789 25.3655 691.645 25.267 691.536L25.3864 690.732L28.3182 691.058V694.257H27.5653V691.788L25.9375 691.604V691.638C26.0473 691.751 26.1392 691.902 26.2131 692.09C26.2869 692.279 26.3239 692.482 26.3239 692.698C26.3239 693.052 26.2396 693.367 26.071 693.644C25.9025 693.922 25.6723 694.141 25.3807 694.3C25.0909 694.461 24.7576 694.54 24.3807 694.538C24.0038 694.54 23.6676 694.455 23.3722 694.283C23.0767 694.112 22.8438 693.876 22.6733 693.573C22.5047 693.271 22.4205 692.926 22.4205 692.536ZM22.4034 698.402C22.4053 697.953 22.5237 697.569 22.7585 697.251C22.9934 696.933 23.3352 696.69 23.7841 696.521C24.233 696.352 24.7737 696.268 25.4062 696.268C26.0369 696.268 26.5758 696.352 27.0227 696.521C27.4697 696.691 27.8106 696.936 28.0455 697.254C28.2803 697.574 28.3977 697.957 28.3977 698.402C28.3977 698.847 28.2794 699.228 28.0426 699.547C27.8078 699.865 27.4669 700.108 27.0199 700.277C26.5748 700.447 26.0369 700.532 25.4062 700.532C24.7718 700.532 24.2301 700.448 23.7812 700.279C23.3343 700.111 22.9924 699.868 22.7557 699.549C22.5208 699.231 22.4034 698.849 22.4034 698.402ZM23.1619 698.402C23.1619 698.796 23.3542 699.103 23.7386 699.325C24.1231 699.548 24.679 699.66 25.4062 699.66C25.8892 699.66 26.2973 699.609 26.6307 699.507C26.9659 699.406 27.2197 699.261 27.392 699.072C27.5663 698.885 27.6534 698.661 27.6534 698.402C27.6534 698.01 27.4602 697.702 27.0739 697.478C26.6875 697.255 26.1316 697.142 25.4062 697.14C24.9214 697.14 24.5114 697.19 24.1761 697.291C23.8428 697.393 23.59 697.538 23.4176 697.725C23.2472 697.913 23.1619 698.138 23.1619 698.402ZM22.4034 704.366C22.4053 703.917 22.5237 703.533 22.7585 703.215C22.9934 702.897 23.3352 702.654 23.7841 702.485C24.233 702.316 24.7737 702.232 25.4062 702.232C26.0369 702.232 26.5758 702.316 27.0227 702.485C27.4697 702.655 27.8106 702.9 28.0455 703.218C28.2803 703.538 28.3977 703.921 28.3977 704.366C28.3977 704.811 28.2794 705.192 28.0426 705.511C27.8078 705.829 27.4669 706.072 27.0199 706.241C26.5748 706.411 26.0369 706.496 25.4062 706.496C24.7718 706.496 24.2301 706.412 23.7812 706.244C23.3343 706.075 22.9924 705.832 22.7557 705.513C22.5208 705.195 22.4034 704.813 22.4034 704.366ZM23.1619 704.366C23.1619 704.76 23.3542 705.067 23.7386 705.289C24.1231 705.512 24.679 705.624 25.4062 705.624C25.8892 705.624 26.2973 705.573 26.6307 705.471C26.9659 705.37 27.2197 705.226 27.392 705.036C27.5663 704.849 27.6534 704.625 27.6534 704.366C27.6534 703.974 27.4602 703.666 27.0739 703.442C26.6875 703.219 26.1316 703.106 25.4062 703.104C24.9214 703.104 24.5114 703.155 24.1761 703.255C23.8428 703.357 23.59 703.502 23.4176 703.69C23.2472 703.877 23.1619 704.102 23.1619 704.366Z" fill="#805A99"/>
<path d="M22.4205 741.536C22.4205 741.18 22.4886 740.859 22.625 740.575C22.7633 740.293 22.9527 740.068 23.1932 739.899C23.4337 739.731 23.7083 739.641 24.017 739.629V740.482C23.767 740.502 23.5616 740.613 23.4006 740.814C23.2396 741.015 23.1591 741.255 23.1591 741.536C23.1591 741.759 23.2102 741.957 23.3125 742.129C23.4167 742.304 23.5597 742.44 23.7415 742.538C23.9233 742.639 24.1307 742.689 24.3636 742.689C24.6004 742.689 24.8116 742.638 24.9972 742.536C25.1828 742.433 25.3286 742.292 25.4347 742.112C25.5407 741.934 25.5947 741.73 25.5966 741.499C25.5966 741.323 25.5663 741.145 25.5057 740.967C25.4451 740.789 25.3655 740.645 25.267 740.536L25.3864 739.732L28.3182 740.058V743.257H27.5653V740.788L25.9375 740.604V740.638C26.0473 740.751 26.1392 740.902 26.2131 741.09C26.2869 741.279 26.3239 741.482 26.3239 741.698C26.3239 742.052 26.2396 742.367 26.071 742.644C25.9025 742.922 25.6723 743.141 25.3807 743.3C25.0909 743.461 24.7576 743.54 24.3807 743.538C24.0038 743.54 23.6676 743.455 23.3722 743.283C23.0767 743.112 22.8438 742.876 22.6733 742.573C22.5047 742.271 22.4205 741.926 22.4205 741.536ZM22.4034 747.402C22.4053 746.953 22.5237 746.569 22.7585 746.251C22.9934 745.933 23.3352 745.69 23.7841 745.521C24.233 745.352 24.7737 745.268 25.4062 745.268C26.0369 745.268 26.5758 745.352 27.0227 745.521C27.4697 745.691 27.8106 745.936 28.0455 746.254C28.2803 746.574 28.3977 746.957 28.3977 747.402C28.3977 747.847 28.2794 748.228 28.0426 748.547C27.8078 748.865 27.4669 749.108 27.0199 749.277C26.5748 749.447 26.0369 749.532 25.4062 749.532C24.7718 749.532 24.2301 749.448 23.7812 749.279C23.3343 749.111 22.9924 748.868 22.7557 748.549C22.5208 748.231 22.4034 747.849 22.4034 747.402ZM23.1619 747.402C23.1619 747.796 23.3542 748.103 23.7386 748.325C24.1231 748.548 24.679 748.66 25.4062 748.66C25.8892 748.66 26.2973 748.609 26.6307 748.507C26.9659 748.406 27.2197 748.261 27.392 748.072C27.5663 747.885 27.6534 747.661 27.6534 747.402C27.6534 747.01 27.4602 746.702 27.0739 746.478C26.6875 746.255 26.1316 746.142 25.4062 746.14C24.9214 746.14 24.5114 746.19 24.1761 746.291C23.8428 746.393 23.59 746.538 23.4176 746.725C23.2472 746.913 23.1619 747.138 23.1619 747.402ZM22.4034 753.366C22.4053 752.917 22.5237 752.533 22.7585 752.215C22.9934 751.897 23.3352 751.654 23.7841 751.485C24.233 751.316 24.7737 751.232 25.4062 751.232C26.0369 751.232 26.5758 751.316 27.0227 751.485C27.4697 751.655 27.8106 751.9 28.0455 752.218C28.2803 752.538 28.3977 752.921 28.3977 753.366C28.3977 753.811 28.2794 754.192 28.0426 754.511C27.8078 754.829 27.4669 755.072 27.0199 755.241C26.5748 755.411 26.0369 755.496 25.4062 755.496C24.7718 755.496 24.2301 755.412 23.7812 755.244C23.3343 755.075 22.9924 754.832 22.7557 754.513C22.5208 754.195 22.4034 753.813 22.4034 753.366ZM23.1619 753.366C23.1619 753.76 23.3542 754.067 23.7386 754.289C24.1231 754.512 24.679 754.624 25.4062 754.624C25.8892 754.624 26.2973 754.573 26.6307 754.471C26.9659 754.37 27.2197 754.226 27.392 754.036C27.5663 753.849 27.6534 753.625 27.6534 753.366C27.6534 752.974 27.4602 752.666 27.0739 752.442C26.6875 752.219 26.1316 752.106 25.4062 752.104C24.9214 752.104 24.5114 752.155 24.1761 752.255C23.8428 752.357 23.59 752.502 23.4176 752.69C23.2472 752.877 23.1619 753.102 23.1619 753.366Z" fill="#805A99"/>
</svg>
