<svg width="107" height="836" viewBox="0 0 107 836" fill="none" xmlns="http://www.w3.org/2000/svg">
<path d="M103.5 0V836" stroke="#371F47"/>
<path d="M0 38H104" stroke="#371F47"/>
<rect x="99.5" y="34.5" width="7" height="7" rx="1.5" fill="#180425" stroke="#371F47"/>
<path d="M0 798H104" stroke="#371F47" stroke-opacity="0.32"/>
<rect x="99" y="794" width="8" height="8" rx="2" fill="#FBFBFE"/>
<rect x="99.5" y="794.5" width="7" height="7" rx="1.5" stroke="#371F47" stroke-opacity="0.32"/>
<path d="M90 73H93.5" stroke="#805A99"/>
<path d="M90 115H93.5" stroke="#805A99"/>
<path d="M90 159H93.5" stroke="#805A99"/>
<path d="M90 207H93.5" stroke="#805A99"/>
<path d="M90 255H93.5" stroke="#805A99"/>
<path d="M90 304H93.5" stroke="#805A99"/>
<path d="M90 354H93.5" stroke="#805A99"/>
<path d="M90 403H93.5" stroke="#805A99"/>
<path d="M90 453H93.5" stroke="#805A99"/>
<path d="M90 502H93.5" stroke="#805A99"/>
<path d="M90 551H93.5" stroke="#805A99"/>
<path d="M86.0966 73.4148C86.0947 73.8636 85.9763 74.2472 85.7415 74.5653C85.5066 74.8835 85.1648 75.1269 84.7159 75.2955C84.267 75.464 83.7263 75.5483 83.0937 75.5483C82.4631 75.5483 81.9242 75.464 81.4773 75.2955C81.0303 75.125 80.6894 74.8807 80.4545 74.5625C80.2197 74.2424 80.1023 73.8598 80.1023 73.4148C80.1023 72.9697 80.2206 72.5881 80.4574 72.2699C80.6922 71.9517 81.0331 71.7083 81.4801 71.5398C81.9252 71.3693 82.4631 71.2841 83.0937 71.2841C83.7282 71.2841 84.2699 71.3684 84.7187 71.5369C85.1657 71.7055 85.5076 71.9489 85.7443 72.267C85.9792 72.5852 86.0966 72.9678 86.0966 73.4148ZM85.3381 73.4148C85.3381 73.0208 85.1458 72.7131 84.7614 72.4915C84.3769 72.268 83.821 72.1562 83.0937 72.1562C82.6108 72.1562 82.2027 72.2074 81.8693 72.3097C81.5341 72.41 81.2803 72.5549 81.108 72.7443C80.9337 72.9318 80.8466 73.1553 80.8466 73.4148C80.8466 73.8068 81.0398 74.1146 81.4261 74.3381C81.8125 74.5616 82.3684 74.6742 83.0937 74.6761C83.5786 74.6761 83.9886 74.6259 84.3239 74.5256C84.6572 74.4233 84.91 74.2784 85.0824 74.0909C85.2528 73.9034 85.3381 73.678 85.3381 73.4148Z" fill="#805A99"/>
<path d="M86.0795 116.482C86.0795 116.838 86.0114 117.159 85.875 117.443C85.7367 117.725 85.5473 117.95 85.3068 118.119C85.0663 118.287 84.7917 118.377 84.483 118.389L84.483 117.536C84.733 117.516 84.9384 117.405 85.0994 117.204C85.2604 117.003 85.3409 116.763 85.3409 116.482C85.3409 116.259 85.2898 116.061 85.1875 115.889C85.0833 115.714 84.9403 115.578 84.7585 115.48C84.5767 115.379 84.3693 115.329 84.1364 115.329C83.8996 115.329 83.6884 115.38 83.5028 115.482C83.3172 115.585 83.1714 115.726 83.0653 115.906C82.9593 116.084 82.9053 116.288 82.9034 116.519C82.9034 116.695 82.9337 116.873 82.9943 117.051C83.0549 117.229 83.1345 117.373 83.233 117.482L83.1136 118.286L80.1818 117.96L80.1818 114.761L80.9347 114.761L80.9347 117.23L82.5625 117.414L82.5625 117.38C82.4527 117.266 82.3608 117.116 82.2869 116.928C82.2131 116.739 82.1761 116.536 82.1761 116.32C82.1761 115.966 82.2604 115.651 82.429 115.374C82.5975 115.096 82.8277 114.877 83.1193 114.718C83.4091 114.557 83.7424 114.478 84.1193 114.48C84.4962 114.478 84.8324 114.563 85.1278 114.735C85.4233 114.906 85.6562 115.142 85.8267 115.445C85.9953 115.747 86.0795 116.092 86.0795 116.482ZM86.0966 110.616C86.0947 111.065 85.9763 111.449 85.7415 111.767C85.5066 112.085 85.1648 112.328 84.7159 112.497C84.267 112.666 83.7263 112.75 83.0937 112.75C82.4631 112.75 81.9242 112.666 81.4773 112.497C81.0303 112.327 80.6894 112.082 80.4545 111.764C80.2197 111.444 80.1023 111.061 80.1023 110.616C80.1023 110.171 80.2206 109.79 80.4574 109.471C80.6922 109.153 81.0331 108.91 81.4801 108.741C81.9252 108.571 82.4631 108.486 83.0937 108.486C83.7282 108.486 84.2699 108.57 84.7187 108.738C85.1657 108.907 85.5076 109.15 85.7443 109.469C85.9792 109.787 86.0966 110.169 86.0966 110.616ZM85.3381 110.616C85.3381 110.222 85.1458 109.915 84.7614 109.693C84.3769 109.47 83.821 109.358 83.0937 109.358C82.6108 109.358 82.2027 109.409 81.8693 109.511C81.5341 109.612 81.2803 109.756 81.108 109.946C80.9337 110.133 80.8466 110.357 80.8466 110.616C80.8466 111.008 81.0398 111.316 81.4261 111.54C81.8125 111.763 82.3684 111.876 83.0937 111.878C83.5786 111.878 83.9886 111.828 84.3239 111.727C84.6572 111.625 84.91 111.48 85.0824 111.292C85.2528 111.105 85.3381 110.88 85.3381 110.616Z" fill="#805A99"/>
<path d="M80.1818 164.088L86 164.088L86 164.968L81.0625 164.968L81.0625 165.002L81.9716 166.394L81.1307 166.394L80.1818 164.943L80.1818 164.088ZM86.0966 159.688C86.0947 160.137 85.9763 160.521 85.7415 160.839C85.5066 161.157 85.1648 161.4 84.7159 161.569C84.267 161.737 83.7263 161.822 83.0937 161.822C82.4631 161.822 81.9242 161.737 81.4773 161.569C81.0303 161.398 80.6894 161.154 80.4545 160.836C80.2197 160.516 80.1023 160.133 80.1023 159.688C80.1023 159.243 80.2206 158.862 80.4574 158.543C80.6922 158.225 81.0331 157.982 81.4801 157.813C81.9252 157.643 82.4631 157.558 83.0937 157.558C83.7282 157.558 84.2699 157.642 84.7187 157.81C85.1657 157.979 85.5076 158.222 85.7443 158.54C85.9792 158.859 86.0966 159.241 86.0966 159.688ZM85.3381 159.688C85.3381 159.294 85.1458 158.987 84.7614 158.765C84.3769 158.541 83.821 158.43 83.0937 158.43C82.6108 158.43 82.2027 158.481 81.8693 158.583C81.5341 158.683 81.2803 158.828 81.108 159.018C80.9337 159.205 80.8466 159.429 80.8466 159.688C80.8466 160.08 81.0398 160.388 81.4261 160.612C81.8125 160.835 82.3684 160.948 83.0937 160.95C83.5786 160.95 83.9886 160.899 84.3239 160.799C84.6572 160.697 84.91 160.552 85.0824 160.364C85.2528 160.177 85.3381 159.951 85.3381 159.688ZM86.0966 153.724C86.0947 154.173 85.9763 154.557 85.7415 154.875C85.5066 155.193 85.1648 155.436 84.7159 155.605C84.267 155.773 83.7263 155.858 83.0937 155.858C82.4631 155.858 81.9242 155.773 81.4773 155.605C81.0303 155.434 80.6894 155.19 80.4545 154.872C80.2197 154.552 80.1023 154.169 80.1023 153.724C80.1023 153.279 80.2206 152.897 80.4574 152.579C80.6922 152.261 81.0331 152.018 81.4801 151.849C81.9252 151.679 82.4631 151.593 83.0937 151.593C83.7282 151.593 84.2699 151.678 84.7187 151.846C85.1657 152.015 85.5076 152.258 85.7443 152.576C85.9792 152.895 86.0966 153.277 86.0966 153.724ZM85.3381 153.724C85.3381 153.33 85.1458 153.022 84.7614 152.801C84.3769 152.577 83.821 152.466 83.0937 152.466C82.6108 152.466 82.2027 152.517 81.8693 152.619C81.5341 152.719 81.2803 152.864 81.108 153.054C80.9337 153.241 80.8466 153.465 80.8466 153.724C80.8466 154.116 81.0398 154.424 81.4261 154.647C81.8125 154.871 82.3684 154.984 83.0937 154.986C83.5786 154.986 83.9886 154.935 84.3239 154.835C84.6572 154.733 84.91 154.588 85.0824 154.4C85.2528 154.213 85.3381 153.987 85.3381 153.724Z" fill="#805A99"/>
<path d="M80.1818 211.986L86 211.986L86 212.867L81.0625 212.867L81.0625 212.901L81.9716 214.293L81.1307 214.293L80.1818 212.841L80.1818 211.986ZM86.0795 207.692C86.0795 208.048 86.0114 208.368 85.875 208.652C85.7367 208.934 85.5473 209.16 85.3068 209.328C85.0663 209.497 84.7917 209.587 84.483 209.598L84.483 208.746C84.733 208.725 84.9384 208.614 85.0994 208.413C85.2604 208.213 85.3409 207.972 85.3409 207.692C85.3409 207.468 85.2898 207.27 85.1875 207.098C85.0833 206.924 84.9403 206.787 84.7585 206.689C84.5767 206.589 84.3693 206.538 84.1364 206.538C83.8996 206.538 83.6884 206.589 83.5028 206.692C83.3172 206.794 83.1714 206.935 83.0653 207.115C82.9593 207.293 82.9053 207.498 82.9034 207.729C82.9034 207.905 82.9337 208.082 82.9943 208.26C83.0549 208.438 83.1345 208.582 83.233 208.692L83.1136 209.496L80.1818 209.169L80.1818 205.97L80.9347 205.97L80.9347 208.439L82.5625 208.624L82.5625 208.589C82.4527 208.476 82.3608 208.325 82.2869 208.138C82.2131 207.948 82.1761 207.746 82.1761 207.53C82.1761 207.176 82.2604 206.86 82.429 206.584C82.5975 206.305 82.8277 206.087 83.1193 205.928C83.4091 205.767 83.7424 205.687 84.1193 205.689C84.4962 205.687 84.8324 205.772 85.1278 205.945C85.4233 206.115 85.6562 206.352 85.8267 206.655C85.9953 206.956 86.0795 207.302 86.0795 207.692ZM86.0966 201.826C86.0947 202.275 85.9763 202.658 85.7415 202.976C85.5066 203.294 85.1648 203.538 84.7159 203.706C84.267 203.875 83.7263 203.959 83.0937 203.959C82.4631 203.959 81.9242 203.875 81.4773 203.706C81.0303 203.536 80.6894 203.292 80.4545 202.973C80.2197 202.653 80.1023 202.271 80.1023 201.826C80.1023 201.381 80.2206 200.999 80.4574 200.681C80.6922 200.363 81.0331 200.119 81.4801 199.951C81.9252 199.78 82.4631 199.695 83.0937 199.695C83.7282 199.695 84.2699 199.779 84.7187 199.948C85.1657 200.116 85.5076 200.36 85.7443 200.678C85.9792 200.996 86.0966 201.379 86.0966 201.826ZM85.3381 201.826C85.3381 201.432 85.1458 201.124 84.7614 200.902C84.3769 200.679 83.821 200.567 83.0937 200.567C82.6108 200.567 82.2027 200.618 81.8693 200.721C81.5341 200.821 81.2803 200.966 81.108 201.155C80.9337 201.343 80.8466 201.566 80.8466 201.826C80.8466 202.218 81.0398 202.526 81.4261 202.749C81.8125 202.972 82.3684 203.085 83.0937 203.087C83.5786 203.087 83.9886 203.037 84.3239 202.937C84.6572 202.834 84.91 202.689 85.0824 202.502C85.2528 202.314 85.3381 202.089 85.3381 201.826Z" fill="#805A99"/>
<path d="M86 263.358L85.3636 263.358L83.3239 261.389C83.1023 261.179 82.9081 261.005 82.7415 260.869C82.5729 260.731 82.4129 260.627 82.2614 260.559C82.1098 260.491 81.9489 260.457 81.7784 260.457C81.5852 260.457 81.4186 260.502 81.2784 260.593C81.1364 260.684 81.0275 260.808 80.9517 260.965C80.8741 261.123 80.8352 261.3 80.8352 261.497C80.8352 261.705 80.8778 261.887 80.9631 262.042C81.0483 262.197 81.1686 262.317 81.3239 262.4C81.4792 262.483 81.661 262.525 81.8693 262.525L81.8693 263.363C81.5152 263.363 81.2055 263.282 80.9403 263.119C80.6752 262.956 80.4697 262.733 80.3239 262.448C80.1761 262.164 80.1023 261.841 80.1023 261.48C80.1023 261.114 80.1752 260.792 80.321 260.514C80.465 260.233 80.6619 260.015 80.9119 259.858C81.16 259.7 81.4403 259.622 81.7528 259.622C81.9687 259.622 82.1799 259.662 82.3864 259.744C82.5928 259.823 82.8229 259.963 83.0767 260.162C83.3286 260.36 83.6345 260.637 83.9943 260.991L85.2045 262.147L85.2472 262.147L85.2472 259.528L86 259.528L86 263.358ZM86.0966 255.626C86.0947 256.075 85.9763 256.458 85.7415 256.776C85.5066 257.094 85.1648 257.338 84.7159 257.506C84.267 257.675 83.7263 257.759 83.0937 257.759C82.4631 257.759 81.9242 257.675 81.4773 257.506C81.0303 257.336 80.6894 257.092 80.4545 256.773C80.2197 256.453 80.1023 256.071 80.1023 255.626C80.1023 255.181 80.2206 254.799 80.4574 254.481C80.6922 254.163 81.0331 253.919 81.4801 253.751C81.9252 253.58 82.4631 253.495 83.0937 253.495C83.7282 253.495 84.2699 253.579 84.7187 253.748C85.1657 253.916 85.5076 254.16 85.7443 254.478C85.9792 254.796 86.0966 255.179 86.0966 255.626ZM85.3381 255.626C85.3381 255.232 85.1458 254.924 84.7614 254.702C84.3769 254.479 83.821 254.367 83.0937 254.367C82.6108 254.367 82.2027 254.418 81.8693 254.521C81.5341 254.621 81.2803 254.766 81.108 254.955C80.9337 255.143 80.8466 255.366 80.8466 255.626C80.8466 256.018 81.0398 256.326 81.4261 256.549C81.8125 256.772 82.3684 256.885 83.0937 256.887C83.5786 256.887 83.9886 256.837 84.3239 256.737C84.6572 256.634 84.91 256.489 85.0824 256.302C85.2528 256.114 85.3381 255.889 85.3381 255.626ZM86.0966 249.662C86.0947 250.111 85.9763 250.494 85.7415 250.812C85.5066 251.13 85.1648 251.374 84.7159 251.542C84.267 251.711 83.7263 251.795 83.0937 251.795C82.4631 251.795 81.9242 251.711 81.4773 251.542C81.0303 251.372 80.6894 251.128 80.4545 250.809C80.2197 250.489 80.1023 250.107 80.1023 249.662C80.1023 249.217 80.2206 248.835 80.4574 248.517C80.6922 248.199 81.0331 247.955 81.4801 247.787C81.9252 247.616 82.4631 247.531 83.0937 247.531C83.7282 247.531 84.2699 247.615 84.7187 247.784C85.1657 247.952 85.5076 248.196 85.7443 248.514C85.9792 248.832 86.0966 249.215 86.0966 249.662ZM85.3381 249.662C85.3381 249.268 85.1458 248.96 84.7614 248.738C84.3769 248.515 83.821 248.403 83.0937 248.403C82.6108 248.403 82.2027 248.454 81.8693 248.557C81.5341 248.657 81.2803 248.802 81.108 248.991C80.9337 249.179 80.8466 249.402 80.8466 249.662C80.8466 250.054 81.0398 250.361 81.4261 250.585C81.8125 250.808 82.3684 250.921 83.0937 250.923C83.5786 250.923 83.9886 250.873 84.3239 250.772C84.6572 250.67 84.91 250.525 85.0824 250.338C85.2528 250.15 85.3381 249.925 85.3381 249.662Z" fill="#805A99"/>
<path d="M86 312.256L85.3636 312.256L83.3239 310.287C83.1023 310.077 82.9081 309.904 82.7415 309.767C82.5729 309.629 82.4129 309.526 82.2614 309.458C82.1098 309.389 81.9489 309.355 81.7784 309.355C81.5852 309.355 81.4186 309.401 81.2784 309.492C81.1364 309.583 81.0275 309.707 80.9517 309.864C80.8741 310.021 80.8352 310.198 80.8352 310.395C80.8352 310.604 80.8778 310.785 80.9631 310.941C81.0483 311.096 81.1686 311.215 81.3239 311.299C81.4792 311.382 81.661 311.424 81.8693 311.424L81.8693 312.262C81.5152 312.262 81.2055 312.18 80.9403 312.017C80.6752 311.854 80.4697 311.631 80.3239 311.347C80.1761 311.063 80.1023 310.74 80.1023 310.378C80.1023 310.013 80.1752 309.691 80.321 309.412C80.465 309.132 80.6619 308.913 80.9119 308.756C81.16 308.599 81.4403 308.52 81.7528 308.52C81.9687 308.52 82.1799 308.561 82.3864 308.642C82.5928 308.722 82.8229 308.861 83.0767 309.06C83.3286 309.259 83.6345 309.535 83.9943 309.889L85.2045 311.046L85.2472 311.046L85.2472 308.426L86 308.426L86 312.256ZM86.0795 304.629C86.0795 304.985 86.0114 305.305 85.875 305.589C85.7367 305.872 85.5473 306.097 85.3068 306.266C85.0663 306.434 84.7917 306.524 84.483 306.536L84.483 305.683C84.733 305.662 84.9384 305.552 85.0994 305.351C85.2604 305.15 85.3409 304.91 85.3409 304.629C85.3409 304.406 85.2898 304.208 85.1875 304.036C85.0833 303.861 84.9403 303.725 84.7585 303.626C84.5767 303.526 84.3693 303.476 84.1364 303.476C83.8996 303.476 83.6884 303.527 83.5028 303.629C83.3172 303.732 83.1714 303.873 83.0653 304.053C82.9593 304.231 82.9053 304.435 82.9034 304.666C82.9034 304.842 82.9337 305.019 82.9943 305.197C83.0549 305.375 83.1345 305.519 83.233 305.629L83.1136 306.433L80.1818 306.107L80.1818 302.908L80.9347 302.908L80.9347 305.376L82.5625 305.561L82.5625 305.527C82.4527 305.413 82.3608 305.263 82.2869 305.075C82.2131 304.886 82.1761 304.683 82.1761 304.467C82.1761 304.113 82.2604 303.798 82.429 303.521C82.5975 303.243 82.8277 303.024 83.1193 302.865C83.4091 302.704 83.7424 302.625 84.1193 302.626C84.4962 302.625 84.8324 302.71 85.1278 302.882C85.4233 303.053 85.6562 303.289 85.8267 303.592C85.9953 303.893 86.0795 304.239 86.0795 304.629ZM86.0966 298.763C86.0947 299.212 85.9763 299.596 85.7415 299.914C85.5066 300.232 85.1648 300.475 84.7159 300.644C84.267 300.812 83.7263 300.897 83.0937 300.897C82.4631 300.897 81.9242 300.812 81.4773 300.644C81.0303 300.473 80.6894 300.229 80.4545 299.911C80.2197 299.591 80.1023 299.208 80.1023 298.763C80.1023 298.318 80.2206 297.937 80.4574 297.618C80.6922 297.3 81.0331 297.057 81.4801 296.888C81.9252 296.718 82.4631 296.633 83.0937 296.633C83.7282 296.633 84.2699 296.717 84.7187 296.885C85.1657 297.054 85.5076 297.297 85.7443 297.615C85.9792 297.934 86.0966 298.316 86.0966 298.763ZM85.3381 298.763C85.3381 298.369 85.1458 298.062 84.7614 297.84C84.3769 297.616 83.821 297.505 83.0937 297.505C82.6108 297.505 82.2027 297.556 81.8693 297.658C81.5341 297.758 81.2803 297.903 81.108 298.093C80.9337 298.28 80.8466 298.504 80.8466 298.763C80.8466 299.155 81.0398 299.463 81.4261 299.687C81.8125 299.91 82.3684 300.023 83.0937 300.025C83.5786 300.025 83.9886 299.974 84.3239 299.874C84.6572 299.772 84.91 299.627 85.0824 299.439C85.2528 299.252 85.3381 299.026 85.3381 298.763Z" fill="#805A99"/>
<path d="M86.0795 359.957C86.0795 360.347 86.0123 360.696 85.8778 361.002C85.7434 361.307 85.5568 361.549 85.3182 361.727C85.0777 361.903 84.7992 361.998 84.483 362.011L84.483 361.119C84.6553 361.108 84.8049 361.05 84.9318 360.946C85.0568 360.84 85.1534 360.701 85.2216 360.531C85.2898 360.36 85.3239 360.171 85.3239 359.963C85.3239 359.733 85.2841 359.531 85.2045 359.355C85.125 359.177 85.0142 359.037 84.8722 358.937C84.7282 358.837 84.5625 358.787 84.375 358.787C84.1799 358.787 84.0085 358.837 83.8608 358.937C83.7112 359.036 83.5937 359.18 83.5085 359.372C83.4233 359.561 83.3807 359.79 83.3807 360.059L83.3807 360.551L82.6648 360.551L82.6648 360.059C82.6648 359.843 82.6259 359.654 82.5483 359.491C82.4706 359.326 82.3627 359.197 82.2244 359.105C82.0843 359.012 81.9205 358.965 81.733 358.965C81.553 358.965 81.3968 359.006 81.2642 359.088C81.1297 359.167 81.0246 359.281 80.9489 359.429C80.8731 359.574 80.8352 359.747 80.8352 359.946C80.8352 360.135 80.8703 360.312 80.9403 360.477C81.0085 360.64 81.107 360.772 81.2358 360.875C81.3627 360.977 81.5152 361.032 81.6932 361.039L81.6932 361.889C81.3788 361.879 81.1023 361.787 80.8636 361.61C80.625 361.432 80.4384 361.197 80.304 360.906C80.1695 360.614 80.1023 360.29 80.1023 359.934C80.1023 359.561 80.1752 359.239 80.321 358.968C80.465 358.696 80.6572 358.485 80.8977 358.338C81.1383 358.188 81.4015 358.114 81.6875 358.116C82.0133 358.114 82.2898 358.205 82.517 358.389C82.7443 358.571 82.8968 358.813 82.9744 359.116L83.0199 359.116C83.0786 358.73 83.232 358.43 83.4801 358.218C83.7282 358.004 84.036 357.898 84.4034 357.9C84.7235 357.898 85.0104 357.987 85.2642 358.167C85.518 358.345 85.7178 358.589 85.8636 358.897C86.0076 359.206 86.0795 359.559 86.0795 359.957ZM86.0966 354.001C86.0947 354.45 85.9763 354.833 85.7415 355.151C85.5066 355.469 85.1648 355.713 84.7159 355.881C84.267 356.05 83.7263 356.134 83.0937 356.134C82.4631 356.134 81.9242 356.05 81.4773 355.881C81.0303 355.711 80.6894 355.467 80.4545 355.148C80.2197 354.828 80.1023 354.446 80.1023 354.001C80.1023 353.556 80.2206 353.174 80.4574 352.856C80.6922 352.538 81.0331 352.294 81.4801 352.126C81.9252 351.955 82.4631 351.87 83.0937 351.87C83.7282 351.87 84.2699 351.954 84.7187 352.123C85.1657 352.291 85.5076 352.535 85.7443 352.853C85.9792 353.171 86.0966 353.554 86.0966 354.001ZM85.3381 354.001C85.3381 353.607 85.1458 353.299 84.7614 353.077C84.3769 352.854 83.821 352.742 83.0937 352.742C82.6108 352.742 82.2027 352.793 81.8693 352.896C81.5341 352.996 81.2803 353.141 81.108 353.33C80.9337 353.518 80.8466 353.741 80.8466 354.001C80.8466 354.393 81.0398 354.701 81.4261 354.924C81.8125 355.147 82.3684 355.26 83.0937 355.262C83.5786 355.262 83.9886 355.212 84.3239 355.112C84.6572 355.009 84.91 354.864 85.0824 354.677C85.2528 354.489 85.3381 354.264 85.3381 354.001ZM86.0966 348.037C86.0947 348.486 85.9763 348.869 85.7415 349.187C85.5066 349.505 85.1648 349.749 84.7159 349.917C84.267 350.086 83.7263 350.17 83.0937 350.17C82.4631 350.17 81.9242 350.086 81.4773 349.917C81.0303 349.747 80.6894 349.503 80.4545 349.184C80.2197 348.864 80.1023 348.482 80.1023 348.037C80.1023 347.592 80.2206 347.21 80.4574 346.892C80.6922 346.574 81.0331 346.33 81.4801 346.162C81.9252 345.991 82.4631 345.906 83.0937 345.906C83.7282 345.906 84.2699 345.99 84.7187 346.159C85.1657 346.327 85.5076 346.571 85.7443 346.889C85.9792 347.207 86.0966 347.59 86.0966 348.037ZM85.3381 348.037C85.3381 347.643 85.1458 347.335 84.7614 347.113C84.3769 346.89 83.821 346.778 83.0937 346.778C82.6108 346.778 82.2027 346.829 81.8693 346.932C81.5341 347.032 81.2803 347.177 81.108 347.366C80.9337 347.554 80.8466 347.777 80.8466 348.037C80.8466 348.429 81.0398 348.736 81.4261 348.96C81.8125 349.183 82.3684 349.296 83.0937 349.298C83.5786 349.298 83.9886 349.248 84.3239 349.147C84.6572 349.045 84.91 348.9 85.0824 348.713C85.2528 348.525 85.3381 348.3 85.3381 348.037Z" fill="#805A99"/>
<path d="M86.0795 409.355C86.0795 409.746 86.0123 410.094 85.8778 410.401C85.7434 410.706 85.5568 410.947 85.3182 411.125C85.0777 411.301 84.7992 411.396 84.483 411.409L84.483 410.517C84.6553 410.506 84.8049 410.448 84.9318 410.344C85.0568 410.238 85.1534 410.1 85.2216 409.929C85.2898 409.759 85.3239 409.569 85.3239 409.361C85.3239 409.132 85.2841 408.929 85.2045 408.753C85.125 408.575 85.0142 408.436 84.8722 408.336C84.7282 408.235 84.5625 408.185 84.375 408.185C84.1799 408.185 84.0085 408.235 83.8608 408.336C83.7112 408.434 83.5937 408.579 83.5085 408.77C83.4233 408.96 83.3807 409.189 83.3807 409.458L83.3807 409.949L82.6648 409.949L82.6648 409.458C82.6648 409.242 82.6259 409.052 82.5483 408.889C82.4706 408.725 82.3627 408.596 82.2244 408.503C82.0843 408.41 81.9205 408.364 81.733 408.364C81.553 408.364 81.3968 408.405 81.2642 408.486C81.1297 408.566 81.0246 408.679 80.9489 408.827C80.8731 408.973 80.8352 409.145 80.8352 409.344C80.8352 409.533 80.8703 409.711 80.9403 409.875C81.0085 410.038 81.107 410.171 81.2358 410.273C81.3627 410.375 81.5152 410.43 81.6932 410.438L81.6932 411.287C81.3788 411.278 81.1023 411.185 80.8636 411.009C80.625 410.831 80.4384 410.596 80.304 410.304C80.1695 410.013 80.1023 409.689 80.1023 409.333C80.1023 408.96 80.1752 408.638 80.321 408.367C80.465 408.094 80.6572 407.884 80.8977 407.736C81.1383 407.586 81.4015 407.513 81.6875 407.514C82.0133 407.513 82.2898 407.604 82.517 407.787C82.7443 407.969 82.8968 408.211 82.9744 408.514L83.0199 408.514C83.0786 408.128 83.232 407.829 83.4801 407.617C83.7282 407.403 84.036 407.297 84.4034 407.299C84.7235 407.297 85.0104 407.386 85.2642 407.566C85.518 407.744 85.7178 407.987 85.8636 408.296C86.0076 408.604 86.0795 408.958 86.0795 409.355ZM86.0795 403.504C86.0795 403.86 86.0114 404.18 85.875 404.464C85.7367 404.747 85.5473 404.972 85.3068 405.141C85.0663 405.309 84.7917 405.399 84.483 405.411L84.483 404.558C84.733 404.537 84.9384 404.427 85.0994 404.226C85.2604 404.025 85.3409 403.785 85.3409 403.504C85.3409 403.281 85.2898 403.083 85.1875 402.911C85.0833 402.736 84.9403 402.6 84.7585 402.501C84.5767 402.401 84.3693 402.351 84.1364 402.351C83.8996 402.351 83.6884 402.402 83.5028 402.504C83.3172 402.607 83.1714 402.748 83.0653 402.928C82.9593 403.106 82.9053 403.31 82.9034 403.541C82.9034 403.717 82.9337 403.894 82.9943 404.072C83.0549 404.25 83.1345 404.394 83.233 404.504L83.1136 405.308L80.1818 404.982L80.1818 401.783L80.9347 401.783L80.9347 404.251L82.5625 404.436L82.5625 404.402C82.4527 404.288 82.3608 404.138 82.2869 403.95C82.2131 403.761 82.1761 403.558 82.1761 403.342C82.1761 402.988 82.2604 402.673 82.429 402.396C82.5975 402.118 82.8277 401.899 83.1193 401.74C83.4091 401.579 83.7424 401.5 84.1193 401.501C84.4962 401.5 84.8324 401.585 85.1278 401.757C85.4233 401.928 85.6562 402.164 85.8267 402.467C85.9953 402.768 86.0795 403.114 86.0795 403.504ZM86.0966 397.638C86.0947 398.087 85.9763 398.471 85.7415 398.789C85.5066 399.107 85.1648 399.35 84.7159 399.519C84.267 399.687 83.7263 399.772 83.0937 399.772C82.4631 399.772 81.9242 399.687 81.4773 399.519C81.0303 399.348 80.6894 399.104 80.4545 398.786C80.2197 398.466 80.1023 398.083 80.1023 397.638C80.1023 397.193 80.2206 396.812 80.4574 396.493C80.6922 396.175 81.0331 395.932 81.4801 395.763C81.9252 395.593 82.4631 395.508 83.0937 395.508C83.7282 395.508 84.2699 395.592 84.7187 395.76C85.1657 395.929 85.5076 396.172 85.7443 396.49C85.9792 396.809 86.0966 397.191 86.0966 397.638ZM85.3381 397.638C85.3381 397.244 85.1458 396.937 84.7614 396.715C84.3769 396.491 83.821 396.38 83.0937 396.38C82.6108 396.38 82.2027 396.431 81.8693 396.533C81.5341 396.633 81.2803 396.778 81.108 396.968C80.9337 397.155 80.8466 397.379 80.8466 397.638C80.8466 398.03 81.0398 398.338 81.4261 398.562C81.8125 398.785 82.3684 398.898 83.0937 398.9C83.5786 398.9 83.9886 398.849 84.3239 398.749C84.6572 398.647 84.91 398.502 85.0824 398.314C85.2528 398.127 85.3381 397.901 85.3381 397.638Z" fill="#805A99"/>
<path d="M84.8636 461.144L84.1534 461.144L80.1818 458.63L80.1818 458.07L81.2273 458.07L81.2273 458.425L84.0739 460.223L84.1193 460.223L84.1193 456.777L84.8636 456.777L84.8636 461.144ZM86 458.385L84.6477 458.385L84.3239 458.38L80.1818 458.38L80.1818 457.547L86 457.547L86 458.385ZM86.0966 452.962C86.0947 453.411 85.9763 453.794 85.7415 454.112C85.5066 454.43 85.1648 454.674 84.7159 454.842C84.267 455.011 83.7263 455.095 83.0937 455.095C82.4631 455.095 81.9242 455.011 81.4773 454.842C81.0303 454.672 80.6894 454.428 80.4545 454.109C80.2197 453.789 80.1023 453.407 80.1023 452.962C80.1023 452.517 80.2206 452.135 80.4574 451.817C80.6922 451.499 81.0331 451.255 81.4801 451.087C81.9252 450.916 82.4631 450.831 83.0937 450.831C83.7282 450.831 84.2699 450.915 84.7187 451.084C85.1657 451.252 85.5076 451.496 85.7443 451.814C85.9792 452.132 86.0966 452.515 86.0966 452.962ZM85.3381 452.962C85.3381 452.568 85.1458 452.26 84.7614 452.038C84.3769 451.815 83.821 451.703 83.0937 451.703C82.6108 451.703 82.2027 451.754 81.8693 451.857C81.5341 451.957 81.2803 452.102 81.108 452.291C80.9337 452.479 80.8466 452.702 80.8466 452.962C80.8466 453.354 81.0398 453.661 81.4261 453.885C81.8125 454.108 82.3684 454.221 83.0937 454.223C83.5786 454.223 83.9886 454.173 84.3239 454.072C84.6572 453.97 84.91 453.825 85.0824 453.638C85.2528 453.45 85.3381 453.225 85.3381 452.962ZM86.0966 446.998C86.0947 447.446 85.9763 447.83 85.7415 448.148C85.5066 448.466 85.1648 448.71 84.7159 448.878C84.267 449.047 83.7263 449.131 83.0937 449.131C82.4631 449.131 81.9242 449.047 81.4773 448.878C81.0303 448.708 80.6894 448.463 80.4545 448.145C80.2197 447.825 80.1023 447.443 80.1023 446.998C80.1023 446.553 80.2206 446.171 80.4574 445.853C80.6922 445.535 81.0331 445.291 81.4801 445.123C81.9252 444.952 82.4631 444.867 83.0937 444.867C83.7282 444.867 84.2699 444.951 84.7187 445.12C85.1657 445.288 85.5076 445.532 85.7443 445.85C85.9792 446.168 86.0966 446.551 86.0966 446.998ZM85.3381 446.998C85.3381 446.604 85.1458 446.296 84.7614 446.074C84.3769 445.851 83.821 445.739 83.0937 445.739C82.6108 445.739 82.2027 445.79 81.8693 445.892C81.5341 445.993 81.2803 446.138 81.108 446.327C80.9337 446.515 80.8466 446.738 80.8466 446.998C80.8466 447.39 81.0398 447.697 81.4261 447.921C81.8125 448.144 82.3684 448.257 83.0937 448.259C83.5786 448.259 83.9886 448.209 84.3239 448.108C84.6572 448.006 84.91 447.861 85.0824 447.674C85.2528 447.486 85.3381 447.261 85.3381 446.998Z" fill="#805A99"/>
<path d="M84.8636 510.542L84.1534 510.542L80.1818 508.028L80.1818 507.468L81.2273 507.468L81.2273 507.823L84.0739 509.622L84.1193 509.622L84.1193 506.176L84.8636 506.176L84.8636 510.542ZM86 507.784L84.6477 507.784L84.3239 507.778L80.1818 507.778L80.1818 506.946L86 506.946L86 507.784ZM86.0795 502.465C86.0795 502.821 86.0114 503.141 85.875 503.425C85.7367 503.708 85.5473 503.933 85.3068 504.102C85.0663 504.27 84.7917 504.36 84.483 504.371L84.483 503.519C84.733 503.498 84.9384 503.388 85.0994 503.187C85.2604 502.986 85.3409 502.746 85.3409 502.465C85.3409 502.242 85.2898 502.044 85.1875 501.871C85.0833 501.697 84.9403 501.561 84.7585 501.462C84.5767 501.362 84.3693 501.312 84.1364 501.312C83.8996 501.312 83.6884 501.363 83.5028 501.465C83.3172 501.567 83.1714 501.709 83.0653 501.888C82.9593 502.067 82.9053 502.271 82.9034 502.502C82.9034 502.678 82.9337 502.855 82.9943 503.033C83.0549 503.211 83.1345 503.355 83.233 503.465L83.1136 504.269L80.1818 503.942L80.1818 500.744L80.9347 500.744L80.9347 503.212L82.5625 503.397L82.5625 503.363C82.4527 503.249 82.3608 503.099 82.2869 502.911C82.2131 502.722 82.1761 502.519 82.1761 502.303C82.1761 501.949 82.2604 501.634 82.429 501.357C82.5975 501.079 82.8277 500.86 83.1193 500.701C83.4091 500.54 83.7424 500.46 84.1193 500.462C84.4962 500.46 84.8324 500.546 85.1278 500.718C85.4233 500.888 85.6562 501.125 85.8267 501.428C85.9953 501.729 86.0795 502.075 86.0795 502.465ZM86.0966 496.599C86.0947 497.048 85.9763 497.432 85.7415 497.75C85.5066 498.068 85.1648 498.311 84.7159 498.48C84.267 498.648 83.7263 498.733 83.0937 498.733C82.4631 498.733 81.9242 498.648 81.4773 498.48C81.0303 498.309 80.6894 498.065 80.4545 497.747C80.2197 497.427 80.1023 497.044 80.1023 496.599C80.1023 496.154 80.2206 495.772 80.4574 495.454C80.6922 495.136 81.0331 494.893 81.4801 494.724C81.9252 494.554 82.4631 494.468 83.0937 494.468C83.7282 494.468 84.2699 494.553 84.7187 494.721C85.1657 494.89 85.5076 495.133 85.7443 495.451C85.9792 495.77 86.0966 496.152 86.0966 496.599ZM85.3381 496.599C85.3381 496.205 85.1458 495.897 84.7614 495.676C84.3769 495.452 83.821 495.341 83.0937 495.341C82.6108 495.341 82.2027 495.392 81.8693 495.494C81.5341 495.594 81.2803 495.739 81.108 495.929C80.9337 496.116 80.8466 496.34 80.8466 496.599C80.8466 496.991 81.0398 497.299 81.4261 497.522C81.8125 497.746 82.3684 497.859 83.0937 497.861C83.5786 497.861 83.9886 497.81 84.3239 497.71C84.6572 497.608 84.91 497.463 85.0824 497.275C85.2528 497.088 85.3381 496.862 85.3381 496.599Z" fill="#805A99"/>
<path d="M86.0795 557.464C86.0795 557.82 86.0114 558.141 85.875 558.425C85.7367 558.707 85.5473 558.932 85.3068 559.101C85.0663 559.269 84.7917 559.359 84.483 559.371L84.483 558.518C84.733 558.498 84.9384 558.387 85.0994 558.186C85.2604 557.985 85.3409 557.745 85.3409 557.464C85.3409 557.241 85.2898 557.043 85.1875 556.871C85.0833 556.696 84.9403 556.56 84.7585 556.462C84.5767 556.361 84.3693 556.311 84.1364 556.311C83.8996 556.311 83.6884 556.362 83.5028 556.464C83.3172 556.567 83.1714 556.708 83.0653 556.888C82.9593 557.066 82.9053 557.27 82.9034 557.501C82.9034 557.677 82.9337 557.855 82.9943 558.033C83.0549 558.211 83.1345 558.355 83.233 558.464L83.1136 559.268L80.1818 558.942L80.1818 555.743L80.9347 555.743L80.9347 558.212L82.5625 558.396L82.5625 558.362C82.4527 558.249 82.3608 558.098 82.2869 557.91C82.2131 557.721 82.1761 557.518 82.1761 557.302C82.1761 556.948 82.2604 556.633 82.429 556.356C82.5975 556.078 82.8277 555.859 83.1193 555.7C83.4091 555.539 83.7424 555.46 84.1193 555.462C84.4962 555.46 84.8324 555.545 85.1278 555.717C85.4233 555.888 85.6562 556.124 85.8267 556.427C85.9953 556.729 86.0795 557.074 86.0795 557.464ZM86.0966 551.598C86.0947 552.047 85.9763 552.431 85.7415 552.749C85.5066 553.067 85.1648 553.31 84.7159 553.479C84.267 553.648 83.7263 553.732 83.0937 553.732C82.4631 553.732 81.9242 553.648 81.4773 553.479C81.0303 553.309 80.6894 553.064 80.4545 552.746C80.2197 552.426 80.1023 552.043 80.1023 551.598C80.1023 551.153 80.2206 550.772 80.4574 550.453C80.6922 550.135 81.0331 549.892 81.4801 549.723C81.9252 549.553 82.4631 549.468 83.0937 549.468C83.7282 549.468 84.2699 549.552 84.7187 549.721C85.1657 549.889 85.5076 550.132 85.7443 550.451C85.9792 550.769 86.0966 551.151 86.0966 551.598ZM85.3381 551.598C85.3381 551.204 85.1458 550.897 84.7614 550.675C84.3769 550.452 83.821 550.34 83.0937 550.34C82.6108 550.34 82.2027 550.391 81.8693 550.493C81.5341 550.594 81.2803 550.739 81.108 550.928C80.9337 551.115 80.8466 551.339 80.8466 551.598C80.8466 551.99 81.0398 552.298 81.4261 552.522C81.8125 552.745 82.3684 552.858 83.0937 552.86C83.5786 552.86 83.9886 552.81 84.3239 552.709C84.6572 552.607 84.91 552.462 85.0824 552.275C85.2528 552.087 85.3381 551.862 85.3381 551.598ZM86.0966 545.634C86.0947 546.083 85.9763 546.467 85.7415 546.785C85.5066 547.103 85.1648 547.346 84.7159 547.515C84.267 547.684 83.7263 547.768 83.0937 547.768C82.4631 547.768 81.9242 547.684 81.4773 547.515C81.0303 547.345 80.6894 547.1 80.4545 546.782C80.2197 546.462 80.1023 546.079 80.1023 545.634C80.1023 545.189 80.2206 544.808 80.4574 544.489C80.6922 544.171 81.0331 543.928 81.4801 543.759C81.9252 543.589 82.4631 543.504 83.0937 543.504C83.7282 543.504 84.2699 543.588 84.7187 543.756C85.1657 543.925 85.5076 544.168 85.7443 544.487C85.9792 544.805 86.0966 545.187 86.0966 545.634ZM85.3381 545.634C85.3381 545.24 85.1458 544.933 84.7614 544.711C84.3769 544.488 83.821 544.376 83.0937 544.376C82.6108 544.376 82.2027 544.427 81.8693 544.529C81.5341 544.63 81.2803 544.774 81.108 544.964C80.9337 545.151 80.8466 545.375 80.8466 545.634C80.8466 546.026 81.0398 546.334 81.4261 546.558C81.8125 546.781 82.3684 546.894 83.0937 546.896C83.5786 546.896 83.9886 546.845 84.3239 546.745C84.6572 546.643 84.91 546.498 85.0824 546.31C85.2528 546.123 85.3381 545.898 85.3381 545.634Z" fill="#805A99"/>
<path d="M86.0795 606.464C86.0795 606.82 86.0114 607.141 85.875 607.425C85.7367 607.707 85.5473 607.932 85.3068 608.101C85.0663 608.269 84.7917 608.359 84.483 608.371L84.483 607.518C84.733 607.498 84.9384 607.387 85.0994 607.186C85.2604 606.985 85.3409 606.745 85.3409 606.464C85.3409 606.241 85.2898 606.043 85.1875 605.871C85.0833 605.696 84.9403 605.56 84.7585 605.462C84.5767 605.361 84.3693 605.311 84.1364 605.311C83.8996 605.311 83.6884 605.362 83.5028 605.464C83.3172 605.567 83.1714 605.708 83.0653 605.888C82.9593 606.066 82.9053 606.27 82.9034 606.501C82.9034 606.677 82.9337 606.855 82.9943 607.033C83.0549 607.211 83.1345 607.355 83.233 607.464L83.1136 608.268L80.1818 607.942L80.1818 604.743L80.9347 604.743L80.9347 607.212L82.5625 607.396L82.5625 607.362C82.4527 607.249 82.3608 607.098 82.2869 606.91C82.2131 606.721 82.1761 606.518 82.1761 606.302C82.1761 605.948 82.2604 605.633 82.429 605.356C82.5975 605.078 82.8277 604.859 83.1193 604.7C83.4091 604.539 83.7424 604.46 84.1193 604.462C84.4962 604.46 84.8324 604.545 85.1278 604.717C85.4233 604.888 85.6562 605.124 85.8267 605.427C85.9953 605.729 86.0795 606.074 86.0795 606.464ZM86.0966 600.598C86.0947 601.047 85.9763 601.431 85.7415 601.749C85.5066 602.067 85.1648 602.31 84.7159 602.479C84.267 602.648 83.7263 602.732 83.0937 602.732C82.4631 602.732 81.9242 602.648 81.4773 602.479C81.0303 602.309 80.6894 602.064 80.4545 601.746C80.2197 601.426 80.1023 601.043 80.1023 600.598C80.1023 600.153 80.2206 599.772 80.4574 599.453C80.6922 599.135 81.0331 598.892 81.4801 598.723C81.9252 598.553 82.4631 598.468 83.0937 598.468C83.7282 598.468 84.2699 598.552 84.7187 598.721C85.1657 598.889 85.5076 599.132 85.7443 599.451C85.9792 599.769 86.0966 600.151 86.0966 600.598ZM85.3381 600.598C85.3381 600.204 85.1458 599.897 84.7614 599.675C84.3769 599.452 83.821 599.34 83.0937 599.34C82.6108 599.34 82.2027 599.391 81.8693 599.493C81.5341 599.594 81.2803 599.739 81.108 599.928C80.9337 600.115 80.8466 600.339 80.8466 600.598C80.8466 600.99 81.0398 601.298 81.4261 601.522C81.8125 601.745 82.3684 601.858 83.0937 601.86C83.5786 601.86 83.9886 601.81 84.3239 601.709C84.6572 601.607 84.91 601.462 85.0824 601.275C85.2528 601.087 85.3381 600.862 85.3381 600.598ZM86.0966 594.634C86.0947 595.083 85.9763 595.467 85.7415 595.785C85.5066 596.103 85.1648 596.346 84.7159 596.515C84.267 596.684 83.7263 596.768 83.0937 596.768C82.4631 596.768 81.9242 596.684 81.4773 596.515C81.0303 596.345 80.6894 596.1 80.4545 595.782C80.2197 595.462 80.1023 595.079 80.1023 594.634C80.1023 594.189 80.2206 593.808 80.4574 593.489C80.6922 593.171 81.0331 592.928 81.4801 592.759C81.9252 592.589 82.4631 592.504 83.0937 592.504C83.7282 592.504 84.2699 592.588 84.7187 592.756C85.1657 592.925 85.5076 593.168 85.7443 593.487C85.9792 593.805 86.0966 594.187 86.0966 594.634ZM85.3381 594.634C85.3381 594.24 85.1458 593.933 84.7614 593.711C84.3769 593.488 83.821 593.376 83.0937 593.376C82.6108 593.376 82.2027 593.427 81.8693 593.529C81.5341 593.63 81.2803 593.774 81.108 593.964C80.9337 594.151 80.8466 594.375 80.8466 594.634C80.8466 595.026 81.0398 595.334 81.4261 595.558C81.8125 595.781 82.3684 595.894 83.0937 595.896C83.5786 595.896 83.9886 595.845 84.3239 595.745C84.6572 595.643 84.91 595.498 85.0824 595.31C85.2528 595.123 85.3381 594.898 85.3381 594.634Z" fill="#805A99"/>
<path d="M86.0795 655.464C86.0795 655.82 86.0114 656.141 85.875 656.425C85.7367 656.707 85.5473 656.932 85.3068 657.101C85.0663 657.269 84.7917 657.359 84.483 657.371L84.483 656.518C84.733 656.498 84.9384 656.387 85.0994 656.186C85.2604 655.985 85.3409 655.745 85.3409 655.464C85.3409 655.241 85.2898 655.043 85.1875 654.871C85.0833 654.696 84.9403 654.56 84.7585 654.462C84.5767 654.361 84.3693 654.311 84.1364 654.311C83.8996 654.311 83.6884 654.362 83.5028 654.464C83.3172 654.567 83.1714 654.708 83.0653 654.888C82.9593 655.066 82.9053 655.27 82.9034 655.501C82.9034 655.677 82.9337 655.855 82.9943 656.033C83.0549 656.211 83.1345 656.355 83.233 656.464L83.1136 657.268L80.1818 656.942L80.1818 653.743L80.9347 653.743L80.9347 656.212L82.5625 656.396L82.5625 656.362C82.4527 656.249 82.3608 656.098 82.2869 655.91C82.2131 655.721 82.1761 655.518 82.1761 655.302C82.1761 654.948 82.2604 654.633 82.429 654.356C82.5975 654.078 82.8277 653.859 83.1193 653.7C83.4091 653.539 83.7424 653.46 84.1193 653.462C84.4962 653.46 84.8324 653.545 85.1278 653.717C85.4233 653.888 85.6562 654.124 85.8267 654.427C85.9953 654.729 86.0795 655.074 86.0795 655.464ZM86.0966 649.598C86.0947 650.047 85.9763 650.431 85.7415 650.749C85.5066 651.067 85.1648 651.31 84.7159 651.479C84.267 651.648 83.7263 651.732 83.0937 651.732C82.4631 651.732 81.9242 651.648 81.4773 651.479C81.0303 651.309 80.6894 651.064 80.4545 650.746C80.2197 650.426 80.1023 650.043 80.1023 649.598C80.1023 649.153 80.2206 648.772 80.4574 648.453C80.6922 648.135 81.0331 647.892 81.4801 647.723C81.9252 647.553 82.4631 647.468 83.0937 647.468C83.7282 647.468 84.2699 647.552 84.7187 647.721C85.1657 647.889 85.5076 648.132 85.7443 648.451C85.9792 648.769 86.0966 649.151 86.0966 649.598ZM85.3381 649.598C85.3381 649.204 85.1458 648.897 84.7614 648.675C84.3769 648.452 83.821 648.34 83.0937 648.34C82.6108 648.34 82.2027 648.391 81.8693 648.493C81.5341 648.594 81.2803 648.739 81.108 648.928C80.9337 649.115 80.8466 649.339 80.8466 649.598C80.8466 649.99 81.0398 650.298 81.4261 650.522C81.8125 650.745 82.3684 650.858 83.0937 650.86C83.5786 650.86 83.9886 650.81 84.3239 650.709C84.6572 650.607 84.91 650.462 85.0824 650.275C85.2528 650.087 85.3381 649.862 85.3381 649.598ZM86.0966 643.634C86.0947 644.083 85.9763 644.467 85.7415 644.785C85.5066 645.103 85.1648 645.346 84.7159 645.515C84.267 645.684 83.7263 645.768 83.0937 645.768C82.4631 645.768 81.9242 645.684 81.4773 645.515C81.0303 645.345 80.6894 645.1 80.4545 644.782C80.2197 644.462 80.1023 644.079 80.1023 643.634C80.1023 643.189 80.2206 642.808 80.4574 642.489C80.6922 642.171 81.0331 641.928 81.4801 641.759C81.9252 641.589 82.4631 641.504 83.0937 641.504C83.7282 641.504 84.2699 641.588 84.7187 641.756C85.1657 641.925 85.5076 642.168 85.7443 642.487C85.9792 642.805 86.0966 643.187 86.0966 643.634ZM85.3381 643.634C85.3381 643.24 85.1458 642.933 84.7614 642.711C84.3769 642.488 83.821 642.376 83.0937 642.376C82.6108 642.376 82.2027 642.427 81.8693 642.529C81.5341 642.63 81.2803 642.774 81.108 642.964C80.9337 643.151 80.8466 643.375 80.8466 643.634C80.8466 644.026 81.0398 644.334 81.4261 644.558C81.8125 644.781 82.3684 644.894 83.0937 644.896C83.5786 644.896 83.9886 644.845 84.3239 644.745C84.6572 644.643 84.91 644.498 85.0824 644.31C85.2528 644.123 85.3381 643.898 85.3381 643.634Z" fill="#805A99"/>
<path d="M86.0795 704.464C86.0795 704.82 86.0114 705.141 85.875 705.425C85.7367 705.707 85.5473 705.932 85.3068 706.101C85.0663 706.269 84.7917 706.359 84.483 706.371L84.483 705.518C84.733 705.498 84.9384 705.387 85.0994 705.186C85.2604 704.985 85.3409 704.745 85.3409 704.464C85.3409 704.241 85.2898 704.043 85.1875 703.871C85.0833 703.696 84.9403 703.56 84.7585 703.462C84.5767 703.361 84.3693 703.311 84.1364 703.311C83.8996 703.311 83.6884 703.362 83.5028 703.464C83.3172 703.567 83.1714 703.708 83.0653 703.888C82.9593 704.066 82.9053 704.27 82.9034 704.501C82.9034 704.677 82.9337 704.855 82.9943 705.033C83.0549 705.211 83.1345 705.355 83.233 705.464L83.1136 706.268L80.1818 705.942L80.1818 702.743L80.9347 702.743L80.9347 705.212L82.5625 705.396L82.5625 705.362C82.4527 705.249 82.3608 705.098 82.2869 704.91C82.2131 704.721 82.1761 704.518 82.1761 704.302C82.1761 703.948 82.2604 703.633 82.429 703.356C82.5975 703.078 82.8277 702.859 83.1193 702.7C83.4091 702.539 83.7424 702.46 84.1193 702.462C84.4962 702.46 84.8324 702.545 85.1278 702.717C85.4233 702.888 85.6562 703.124 85.8267 703.427C85.9953 703.729 86.0795 704.074 86.0795 704.464ZM86.0966 698.598C86.0947 699.047 85.9763 699.431 85.7415 699.749C85.5066 700.067 85.1648 700.31 84.7159 700.479C84.267 700.648 83.7263 700.732 83.0937 700.732C82.4631 700.732 81.9242 700.648 81.4773 700.479C81.0303 700.309 80.6894 700.064 80.4545 699.746C80.2197 699.426 80.1023 699.043 80.1023 698.598C80.1023 698.153 80.2206 697.772 80.4574 697.453C80.6922 697.135 81.0331 696.892 81.4801 696.723C81.9252 696.553 82.4631 696.468 83.0937 696.468C83.7282 696.468 84.2699 696.552 84.7187 696.721C85.1657 696.889 85.5076 697.132 85.7443 697.451C85.9792 697.769 86.0966 698.151 86.0966 698.598ZM85.3381 698.598C85.3381 698.204 85.1458 697.897 84.7614 697.675C84.3769 697.452 83.821 697.34 83.0937 697.34C82.6108 697.34 82.2027 697.391 81.8693 697.493C81.5341 697.594 81.2803 697.739 81.108 697.928C80.9337 698.115 80.8466 698.339 80.8466 698.598C80.8466 698.99 81.0398 699.298 81.4261 699.522C81.8125 699.745 82.3684 699.858 83.0937 699.86C83.5786 699.86 83.9886 699.81 84.3239 699.709C84.6572 699.607 84.91 699.462 85.0824 699.275C85.2528 699.087 85.3381 698.862 85.3381 698.598ZM86.0966 692.634C86.0947 693.083 85.9763 693.467 85.7415 693.785C85.5066 694.103 85.1648 694.346 84.7159 694.515C84.267 694.684 83.7263 694.768 83.0937 694.768C82.4631 694.768 81.9242 694.684 81.4773 694.515C81.0303 694.345 80.6894 694.1 80.4545 693.782C80.2197 693.462 80.1023 693.079 80.1023 692.634C80.1023 692.189 80.2206 691.808 80.4574 691.489C80.6922 691.171 81.0331 690.928 81.4801 690.759C81.9252 690.589 82.4631 690.504 83.0937 690.504C83.7282 690.504 84.2699 690.588 84.7187 690.756C85.1657 690.925 85.5076 691.168 85.7443 691.487C85.9792 691.805 86.0966 692.187 86.0966 692.634ZM85.3381 692.634C85.3381 692.24 85.1458 691.933 84.7614 691.711C84.3769 691.488 83.821 691.376 83.0937 691.376C82.6108 691.376 82.2027 691.427 81.8693 691.529C81.5341 691.63 81.2803 691.774 81.108 691.964C80.9337 692.151 80.8466 692.375 80.8466 692.634C80.8466 693.026 81.0398 693.334 81.4261 693.558C81.8125 693.781 82.3684 693.894 83.0937 693.896C83.5786 693.896 83.9886 693.845 84.3239 693.745C84.6572 693.643 84.91 693.498 85.0824 693.31C85.2528 693.123 85.3381 692.898 85.3381 692.634Z" fill="#805A99"/>
<path d="M86.0795 753.464C86.0795 753.82 86.0114 754.141 85.875 754.425C85.7367 754.707 85.5473 754.932 85.3068 755.101C85.0663 755.269 84.7917 755.359 84.483 755.371L84.483 754.518C84.733 754.498 84.9384 754.387 85.0994 754.186C85.2604 753.985 85.3409 753.745 85.3409 753.464C85.3409 753.241 85.2898 753.043 85.1875 752.871C85.0833 752.696 84.9403 752.56 84.7585 752.462C84.5767 752.361 84.3693 752.311 84.1364 752.311C83.8996 752.311 83.6884 752.362 83.5028 752.464C83.3172 752.567 83.1714 752.708 83.0653 752.888C82.9593 753.066 82.9053 753.27 82.9034 753.501C82.9034 753.677 82.9337 753.855 82.9943 754.033C83.0549 754.211 83.1345 754.355 83.233 754.464L83.1136 755.268L80.1818 754.942L80.1818 751.743L80.9347 751.743L80.9347 754.212L82.5625 754.396L82.5625 754.362C82.4527 754.249 82.3608 754.098 82.2869 753.91C82.2131 753.721 82.1761 753.518 82.1761 753.302C82.1761 752.948 82.2604 752.633 82.429 752.356C82.5975 752.078 82.8277 751.859 83.1193 751.7C83.4091 751.539 83.7424 751.46 84.1193 751.462C84.4962 751.46 84.8324 751.545 85.1278 751.717C85.4233 751.888 85.6562 752.124 85.8267 752.427C85.9953 752.729 86.0795 753.074 86.0795 753.464ZM86.0966 747.598C86.0947 748.047 85.9763 748.431 85.7415 748.749C85.5066 749.067 85.1648 749.31 84.7159 749.479C84.267 749.648 83.7263 749.732 83.0937 749.732C82.4631 749.732 81.9242 749.648 81.4773 749.479C81.0303 749.309 80.6894 749.064 80.4545 748.746C80.2197 748.426 80.1023 748.043 80.1023 747.598C80.1023 747.153 80.2206 746.772 80.4574 746.453C80.6922 746.135 81.0331 745.892 81.4801 745.723C81.9252 745.553 82.4631 745.468 83.0937 745.468C83.7282 745.468 84.2699 745.552 84.7187 745.721C85.1657 745.889 85.5076 746.132 85.7443 746.451C85.9792 746.769 86.0966 747.151 86.0966 747.598ZM85.3381 747.598C85.3381 747.204 85.1458 746.897 84.7614 746.675C84.3769 746.452 83.821 746.34 83.0937 746.34C82.6108 746.34 82.2027 746.391 81.8693 746.493C81.5341 746.594 81.2803 746.739 81.108 746.928C80.9337 747.115 80.8466 747.339 80.8466 747.598C80.8466 747.99 81.0398 748.298 81.4261 748.522C81.8125 748.745 82.3684 748.858 83.0937 748.86C83.5786 748.86 83.9886 748.81 84.3239 748.709C84.6572 748.607 84.91 748.462 85.0824 748.275C85.2528 748.087 85.3381 747.862 85.3381 747.598ZM86.0966 741.634C86.0947 742.083 85.9763 742.467 85.7415 742.785C85.5066 743.103 85.1648 743.346 84.7159 743.515C84.267 743.684 83.7263 743.768 83.0937 743.768C82.4631 743.768 81.9242 743.684 81.4773 743.515C81.0303 743.345 80.6894 743.1 80.4545 742.782C80.2197 742.462 80.1023 742.079 80.1023 741.634C80.1023 741.189 80.2206 740.808 80.4574 740.489C80.6922 740.171 81.0331 739.928 81.4801 739.759C81.9252 739.589 82.4631 739.504 83.0937 739.504C83.7282 739.504 84.2699 739.588 84.7187 739.756C85.1657 739.925 85.5076 740.168 85.7443 740.487C85.9792 740.805 86.0966 741.187 86.0966 741.634ZM85.3381 741.634C85.3381 741.24 85.1458 740.933 84.7614 740.711C84.3769 740.488 83.821 740.376 83.0937 740.376C82.6108 740.376 82.2027 740.427 81.8693 740.529C81.5341 740.63 81.2803 740.774 81.108 740.964C80.9337 741.151 80.8466 741.375 80.8466 741.634C80.8466 742.026 81.0398 742.334 81.4261 742.558C81.8125 742.781 82.3684 742.894 83.0937 742.896C83.5786 742.896 83.9886 742.845 84.3239 742.745C84.6572 742.643 84.91 742.498 85.0824 742.31C85.2528 742.123 85.3381 741.898 85.3381 741.634Z" fill="#805A99"/>
</svg>
