<svg width="32" height="32" viewBox="0 0 32 32" fill="none" xmlns="http://www.w3.org/2000/svg">
<g clip-path="url(#clip0_4155_10612)">
<g clip-path="url(#clip1_4155_10612)">
<mask id="path-3-inside-1_4155_10612" fill="white">
<path d="M1 6.45455C1 3.44208 3.44208 1 6.45455 1H25.5455C28.5579 1 31 3.44208 31 6.45455V25.5455C31 28.5579 28.5579 31 25.5455 31H6.45455C3.44208 31 1 28.5579 1 25.5455V6.45455Z"/>
</mask>
<path d="M1 6.45455C1 3.44208 3.44208 1 6.45455 1H25.5455C28.5579 1 31 3.44208 31 6.45455V25.5455C31 28.5579 28.5579 31 25.5455 31H6.45455C3.44208 31 1 28.5579 1 25.5455V6.45455Z" fill="url(#paint0_linear_4155_10612)"/>
<path d="M0.454545 6.45455C0.454545 3.14084 3.14084 0.454545 6.45455 0.454545H25.5455C28.8592 0.454545 31.5455 3.14084 31.5455 6.45455L30.4545 6.45455C30.4545 3.74333 28.2567 1.54545 25.5455 1.54545H6.45455C3.74333 1.54545 1.54545 3.74333 1.54545 6.45455L0.454545 6.45455ZM31 31H1H31ZM6.45455 31C3.14084 31 0.454545 28.3137 0.454545 25V6.45455C0.454545 3.14084 3.14084 0.454545 6.45455 0.454545L6.45455 1.54545C3.74333 1.54545 1.54545 3.74333 1.54545 6.45455V25.5455C1.54545 28.5579 3.74333 31 6.45455 31H6.45455ZM25.5455 0.454545C28.8592 0.454545 31.5455 3.14084 31.5455 6.45455V25C31.5455 28.3137 28.8592 31 25.5455 31H25.5455C28.2567 31 30.4545 28.5579 30.4545 25.5455V6.45455C30.4545 3.74333 28.2567 1.54545 25.5455 1.54545L25.5455 0.454545Z" fill="#A96DFD" mask="url(#path-3-inside-1_4155_10612)"/>
<path d="M18.003 22.5455L15.695 18.5291L13.242 14.257L14.396 12.2462L16.0008 9.45459L18.2275 13.3345L17.2999 14.9497L16.0008 12.6884L15.0991 14.257L16.4724 16.6479L18.9306 20.9286H20.7289L19.6786 19.0922L20.6063 17.477L23.5171 22.5455H18.003Z" fill="white"/>
<path d="M8.48291 22.5454L12.3473 15.8186L13.275 17.4338L12.444 18.8832L11.2676 20.9268H15.2789L16.2082 22.5454H8.48291Z" fill="white"/>
</g>
<rect x="0.727273" y="0.727273" width="30.5455" height="30.5455" rx="5.72727" stroke="#8C3CFC" stroke-width="0.545455"/>
</g>
<defs>
<linearGradient id="paint0_linear_4155_10612" x1="16" y1="31.4412" x2="16" y2="1.44118" gradientUnits="userSpaceOnUse">
<stop stop-color="#8C3CFC" stop-opacity="0.72"/>
<stop offset="1" stop-color="#8C3CFC"/>
</linearGradient>
<clipPath id="clip0_4155_10612">
<rect width="32" height="32" fill="white"/>
</clipPath>
<clipPath id="clip1_4155_10612">
<rect x="1" y="1" width="30" height="30" rx="5.45455" fill="white"/>
</clipPath>
</defs>
</svg>
