<svg width="256" height="256" viewBox="0 0 256 256" fill="none" xmlns="http://www.w3.org/2000/svg">
<g clip-path="url(#clip0_4155_10613)">
<g clip-path="url(#clip1_4155_10613)">
<mask id="path-3-inside-1_4155_10613" fill="white">
<path d="M4 49.0909C4 24.1879 24.1879 4 49.0909 4H206.909C231.812 4 252 24.1879 252 49.0909V206.909C252 231.812 231.812 252 206.909 252H49.0909C24.1879 252 4 231.812 4 206.909V49.0909Z"/>
</mask>
<path d="M4 49.0909C4 24.1879 24.1879 4 49.0909 4H206.909C231.812 4 252 24.1879 252 49.0909V206.909C252 231.812 231.812 252 206.909 252H49.0909C24.1879 252 4 231.812 4 206.909V49.0909Z" fill="url(#paint0_linear_4155_10613)"/>
<path d="M-0.509091 49.0909C-0.509091 21.6976 21.6976 -0.509091 49.0909 -0.509091H206.909C234.302 -0.509091 256.509 21.6976 256.509 49.0909L247.491 49.0909C247.491 26.6782 229.322 8.50909 206.909 8.50909H49.0909C26.6782 8.50909 8.50909 26.6782 8.50909 49.0909L-0.509091 49.0909ZM252 252H4H252ZM49.0909 252C21.6976 252 -0.509091 229.793 -0.509091 202.4V49.0909C-0.509091 21.6976 21.6976 -0.509091 49.0909 -0.509091L49.0909 8.50909C26.6782 8.50909 8.50909 26.6782 8.50909 49.0909V206.909C8.50909 231.812 26.6782 252 49.0909 252H49.0909ZM206.909 -0.509091C234.302 -0.509091 256.509 21.6976 256.509 49.0909V202.4C256.509 229.793 234.302 252 206.909 252H206.909C229.322 252 247.491 231.812 247.491 206.909V49.0909C247.491 26.6782 229.322 8.50909 206.909 8.50909L206.909 -0.509091Z" fill="#A96DFD" mask="url(#path-3-inside-1_4155_10613)"/>
<path d="M144.558 182.109L125.479 148.907L105.201 113.591L114.74 96.9683L128.007 73.8909L146.414 105.965L138.746 119.317L128.007 100.624L120.552 113.591L131.905 133.355L152.227 168.742H167.093L158.41 153.562L166.079 140.21L190.142 182.109H144.558Z" fill="white"/>
<path d="M65.8582 182.109L97.8039 126.5L105.473 139.852L98.6036 151.834L88.8785 168.728H122.038L129.721 182.109H65.8582Z" fill="white"/>
</g>
<rect x="1.74545" y="1.74545" width="252.509" height="252.509" rx="47.3455" stroke="#8C3CFC" stroke-width="4.50909"/>
</g>
<defs>
<linearGradient id="paint0_linear_4155_10613" x1="128" y1="255.647" x2="128" y2="7.64706" gradientUnits="userSpaceOnUse">
<stop stop-color="#8C3CFC" stop-opacity="0.72"/>
<stop offset="1" stop-color="#8C3CFC"/>
</linearGradient>
<clipPath id="clip0_4155_10613">
<rect width="256" height="256" fill="white"/>
</clipPath>
<clipPath id="clip1_4155_10613">
<rect x="4" y="4" width="248" height="248" rx="45.0909" fill="white"/>
</clipPath>
</defs>
</svg>
