<svg width="36" height="36" viewBox="0 0 36 36" fill="none" xmlns="http://www.w3.org/2000/svg">
<path d="M27 3H9C6.51 3 4.5 4.995 4.5 7.455V23.82C4.5 26.28 6.51 28.275 9 28.275H10.14C11.34 28.275 12.48 28.74 13.32 29.58L15.885 32.115C17.055 33.27 18.96 33.27 20.13 32.115L22.695 29.58C23.535 28.74 24.69 28.275 25.875 28.275H27C29.49 28.275 31.5 26.28 31.5 23.82V7.455C31.5 4.995 29.49 3 27 3ZM15.57 19.515C16.185 19.515 16.695 20.025 16.695 20.64C16.695 21.255 16.185 21.765 15.57 21.765H11.55C10.89 21.765 10.275 21.45 9.885 20.91C9.51 20.4 9.42 19.77 9.6 19.17C10.125 17.565 11.415 16.695 12.555 15.915C13.755 15.105 14.43 14.595 14.43 13.725C14.43 12.945 13.8 12.315 13.02 12.315C12.24 12.315 11.625 12.96 11.625 13.74C11.625 14.355 11.115 14.865 10.5 14.865C9.885 14.865 9.375 14.355 9.375 13.74C9.375 11.73 11.01 10.08 13.035 10.08C15.06 10.08 16.695 11.715 16.695 13.74C16.695 15.855 15.105 16.935 13.83 17.805C13.035 18.345 12.285 18.855 11.91 19.53H15.57V19.515ZM25.5 19.62H25.185V20.655C25.185 21.27 24.675 21.78 24.06 21.78C23.445 21.78 22.935 21.27 22.935 20.655V19.62H19.995C19.995 19.62 19.995 19.62 19.98 19.62C19.245 19.62 18.57 19.23 18.195 18.6C17.82 17.955 17.82 17.16 18.195 16.53C19.215 14.775 20.4 12.78 21.48 11.04C21.96 10.275 22.875 9.93 23.73 10.17C24.585 10.425 25.185 11.205 25.17 12.105V17.385H25.5C26.115 17.385 26.625 17.895 26.625 18.51C26.625 19.125 26.115 19.62 25.5 19.62Z" fill="#151C28"/>
<path d="M22.9351 17.37V12.96C22.0501 14.4 21.1351 15.945 20.3101 17.355H22.9351V17.37Z" fill="#151C28"/>
</svg>
