<svg width="36" height="36" viewBox="0 0 36 36" fill="none" xmlns="http://www.w3.org/2000/svg">
<path d="M10.125 20.25H3.375C2.75368 20.25 2.25 20.7537 2.25 21.375V32.625C2.25 33.2463 2.75368 33.75 3.375 33.75H10.125C10.7463 33.75 11.25 33.2463 11.25 32.625V21.375C11.25 20.7537 10.7463 20.25 10.125 20.25Z" fill="#151C28"/>
<path d="M32.625 11.25H25.875C25.2537 11.25 24.75 11.7537 24.75 12.375V32.625C24.75 33.2463 25.2537 33.75 25.875 33.75H32.625C33.2463 33.75 33.75 33.2463 33.75 32.625V12.375C33.75 11.7537 33.2463 11.25 32.625 11.25Z" fill="#151C28"/>
<path d="M21.375 2.25H14.625C14.0037 2.25 13.5 2.75368 13.5 3.375V32.625C13.5 33.2463 14.0037 33.75 14.625 33.75H21.375C21.9963 33.75 22.5 33.2463 22.5 32.625V3.375C22.5 2.75368 21.9963 2.25 21.375 2.25Z" fill="#151C28"/>
</svg>
