<svg width="36" height="36" viewBox="0 0 36 36" fill="none" xmlns="http://www.w3.org/2000/svg">
<path d="M10.5 16.5C12.0908 16.4985 13.616 15.8658 14.7409 14.741C15.8658 13.6161 16.4985 12.0908 16.5 10.5V7.50002C16.5 5.90873 15.8679 4.3826 14.7426 3.25738C13.6174 2.13217 12.0913 1.50002 10.5 1.50002C8.9087 1.50002 7.38258 2.13217 6.25736 3.25738C5.13214 4.3826 4.5 5.90873 4.5 7.50002V10.5C4.50155 12.0908 5.13419 13.6161 6.25907 14.741C7.38395 15.8658 8.90918 16.4985 10.5 16.5ZM7.5 7.50002C7.5 6.70437 7.81607 5.94131 8.37868 5.3787C8.94129 4.81609 9.70435 4.50002 10.5 4.50002C11.2956 4.50002 12.0587 4.81609 12.6213 5.3787C13.1839 5.94131 13.5 6.70437 13.5 7.50002V10.5C13.5 11.2957 13.1839 12.0587 12.6213 12.6213C12.0587 13.184 11.2956 13.5 10.5 13.5C9.70435 13.5 8.94129 13.184 8.37868 12.6213C7.81607 12.0587 7.5 11.2957 7.5 10.5V7.50002ZM19.5 28.5C19.5 30.0913 20.1321 31.6174 21.2574 32.7427C22.3826 33.8679 23.9087 34.5 25.5 34.5C27.0913 34.5 28.6174 33.8679 29.7426 32.7427C30.8679 31.6174 31.5 30.0913 31.5 28.5V25.5C31.5 23.9087 30.8679 22.3826 29.7426 21.2574C28.6174 20.1322 27.0913 19.5 25.5 19.5C23.9087 19.5 22.3826 20.1322 21.2574 21.2574C20.1321 22.3826 19.5 23.9087 19.5 25.5V28.5ZM22.5 25.5C22.5 24.7044 22.8161 23.9413 23.3787 23.3787C23.9413 22.8161 24.7044 22.5 25.5 22.5C26.2956 22.5 27.0587 22.8161 27.6213 23.3787C28.1839 23.9413 28.5 24.7044 28.5 25.5V28.5C28.5 29.2957 28.1839 30.0587 27.6213 30.6213C27.0587 31.184 26.2956 31.5 25.5 31.5C24.7044 31.5 23.9413 31.184 23.3787 30.6213C22.8161 30.0587 22.5 29.2957 22.5 28.5V25.5ZM24 13.5V5.42747L23.1709 5.84192C22.8151 6.01987 22.4031 6.04917 22.0257 5.92337C21.6482 5.79757 21.3362 5.52698 21.1583 5.17112C20.9803 4.81527 20.951 4.4033 21.0768 4.02585C21.2026 3.64839 21.4732 3.33637 21.8291 3.15842L24.8291 1.65842C25.0577 1.54405 25.3119 1.49004 25.5673 1.50151C25.8228 1.51299 26.071 1.58957 26.2885 1.72399C26.5061 1.85841 26.6856 2.04621 26.8101 2.26954C26.9346 2.49287 27 2.74433 27 3.00002V13.5H30C30.3978 13.5 30.7794 13.6581 31.0607 13.9394C31.342 14.2207 31.5 14.6022 31.5 15C31.5 15.3978 31.342 15.7794 31.0607 16.0607C30.7794 16.342 30.3978 16.5 30 16.5H21C20.6022 16.5 20.2206 16.342 19.9393 16.0607C19.658 15.7794 19.5 15.3978 19.5 15C19.5 14.6022 19.658 14.2207 19.9393 13.9394C20.2206 13.6581 20.6022 13.5 21 13.5H24ZM4.5 33C4.5 32.6022 4.65804 32.2207 4.93934 31.9394C5.22064 31.6581 5.60218 31.5 6 31.5H9V23.4275L8.17095 23.8419C7.99475 23.93 7.80292 23.9826 7.60641 23.9966C7.4099 24.0105 7.21257 23.9857 7.02567 23.9234C6.64822 23.7976 6.3362 23.527 6.15825 23.1711C6.07014 22.9949 6.0176 22.8031 6.00362 22.6066C5.98965 22.4101 6.01452 22.2127 6.07681 22.0258C6.20261 21.6484 6.4732 21.3364 6.82905 21.1584L9.82905 19.6584C10.0577 19.5441 10.3119 19.49 10.5673 19.5015C10.8228 19.513 11.071 19.5896 11.2885 19.724C11.5061 19.8584 11.6856 20.0462 11.8101 20.2695C11.9346 20.4929 12 20.7443 12 21V31.5H15C15.3978 31.5 15.7794 31.6581 16.0607 31.9394C16.342 32.2207 16.5 32.6022 16.5 33C16.5 33.3978 16.342 33.7794 16.0607 34.0607C15.7794 34.342 15.3978 34.5 15 34.5H6C5.60218 34.5 5.22064 34.342 4.93934 34.0607C4.65804 33.7794 4.5 33.3978 4.5 33Z" fill="#151C28"/>
</svg>
