<svg width="36" height="36" viewBox="0 0 36 36" fill="none" xmlns="http://www.w3.org/2000/svg">
<path d="M31.95 11.37H23.58C22.995 11.37 22.53 10.905 22.53 10.32C22.53 9.73502 22.995 9.27002 23.58 9.27002H31.95C32.535 9.27002 33 9.73502 33 10.32C33 10.905 32.535 11.37 31.95 11.37Z" fill="#151C28"/>
<path d="M9.63 11.37H4.05C3.465 11.37 3 10.905 3 10.32C3 9.73502 3.465 9.27002 4.05 9.27002H9.63C10.215 9.27002 10.68 9.73502 10.68 10.32C10.68 10.905 10.2 11.37 9.63 11.37Z" fill="#151C28"/>
<path d="M15.2099 16.245C18.4822 16.245 21.1349 13.5923 21.1349 10.32C21.1349 7.04773 18.4822 4.39502 15.2099 4.39502C11.9376 4.39502 9.28491 7.04773 9.28491 10.32C9.28491 13.5923 11.9376 16.245 15.2099 16.245Z" fill="#151C28"/>
<path d="M31.9501 26.7147H26.3701C25.7851 26.7147 25.3201 26.2497 25.3201 25.6647C25.3201 25.0797 25.7851 24.6147 26.3701 24.6147H31.9501C32.5351 24.6147 33.0001 25.0797 33.0001 25.6647C33.0001 26.2497 32.5351 26.7147 31.9501 26.7147Z" fill="#151C28"/>
<path d="M12.42 26.7147H4.05C3.465 26.7147 3 26.2497 3 25.6647C3 25.0797 3.465 24.6147 4.05 24.6147H12.42C13.005 24.6147 13.47 25.0797 13.47 25.6647C13.47 26.2497 12.99 26.7147 12.42 26.7147Z" fill="#151C28"/>
<path d="M20.79 31.6049C24.0623 31.6049 26.715 28.9522 26.715 25.6799C26.715 22.4076 24.0623 19.7549 20.79 19.7549C17.5177 19.7549 14.865 22.4076 14.865 25.6799C14.865 28.9522 17.5177 31.6049 20.79 31.6049Z" fill="#151C28"/>
</svg>
