<svg width="32" height="36" viewBox="0 0 32 36" fill="none" xmlns="http://www.w3.org/2000/svg">
<path d="M7.5625 23.3438C7.5625 24.897 6.30327 26.1562 4.75 26.1562C3.19673 26.1562 1.9375 24.897 1.9375 23.3438V18.2812C1.9375 16.728 3.19673 15.4688 4.75 15.4688C6.30327 15.4688 7.5625 16.728 7.5625 18.2812V23.3438Z" stroke="#151C28" stroke-width="2.8125" stroke-miterlimit="10" stroke-linecap="round" stroke-linejoin="round"/>
<path d="M30.0625 23.3438C30.0625 24.897 28.8033 26.1562 27.25 26.1562C25.6967 26.1562 24.4375 24.897 24.4375 23.3438V18.2812C24.4375 16.728 25.6967 15.4688 27.25 15.4688C28.8033 15.4688 30.0625 16.728 30.0625 18.2812V23.3438Z" stroke="#151C28" stroke-width="2.8125" stroke-miterlimit="10" stroke-linecap="round" stroke-linejoin="round"/>
<path d="M1.9375 18.2812V15.4688C1.9375 7.70224 8.23349 1.40625 16 1.40625C23.7665 1.40625 30.0625 7.70224 30.0625 15.4688V18.2812" stroke="#151C28" stroke-width="2.8125" stroke-miterlimit="10" stroke-linecap="round" stroke-linejoin="round"/>
<path d="M30.0625 23.3438V26.1562C30.0625 29.2629 27.5441 31.7812 24.4375 31.7812H18.8125" stroke="#151C28" stroke-width="2.8125" stroke-miterlimit="10" stroke-linecap="round" stroke-linejoin="round"/>
<path d="M16 34.5938C17.5533 34.5938 18.8125 33.3346 18.8125 31.7812C18.8125 30.2279 17.5533 28.9688 16 28.9688C14.4467 28.9688 13.1875 30.2279 13.1875 31.7812C13.1875 33.3346 14.4467 34.5938 16 34.5938Z" stroke="#151C28" stroke-width="2.8125" stroke-miterlimit="10" stroke-linecap="round" stroke-linejoin="round"/>
</svg>
